<?xml version="1.0" encoding="UTF-8"?>
<svg width="43px" height="44px" viewBox="0 0 43 44" version="1.1" xmlns="http://www.w3.org/2000/svg" xmlns:xlink="http://www.w3.org/1999/xlink">
    <g id="Components" stroke="none" stroke-width="1" fill="none" fill-rule="evenodd">
        <g id="About-web" transform="translate(-184.000000, -730.000000)" fill-rule="nonzero" fill="#259EFA">
            <g id="Group-4" transform="translate(175.000000, 481.000000)">
                <g id="about" transform="translate(9.000000, 249.000000)">
                    <path d="M24.7900284,24.7903562 C29.5858597,19.9951092 29.5858597,12.2197105 24.7899637,7.42439883 C19.9947706,2.62862131 12.2199777,2.62862131 7.42413558,7.42446345 C2.62893841,12.2196606 2.62893841,19.9951591 7.42407096,24.7902916 C12.2199279,29.5855642 19.9948204,29.5855642 24.7900284,24.7903562 Z M26.9112841,26.9117412 C20.9445894,32.8784358 11.2703016,32.8784358 5.30281524,26.9116766 C-0.663954806,20.9449065 -0.663954806,11.2699132 5.30281524,5.30314311 C11.2702518,-0.664293446 20.9446393,-0.664293446 26.9112841,5.30307849 C32.878796,11.2698633 32.878796,20.9449564 26.9112841,26.9117412 Z" id="Stroke-1"></path>
                    <path d="M27.06393,23.6637421 L39.0809792,35.6807913 C40.1024419,36.7026708 40.1024419,38.3839099 39.0809792,39.4053726 C38.0588968,40.427455 36.3778246,40.427455 35.3557421,39.4053726 L23.338693,27.3883234 C22.7529065,26.802537 21.8031591,26.802537 21.2173726,27.3883234 C20.6315862,27.9741099 20.6315862,28.9238573 21.2173726,29.5096438 L33.2344218,41.526693 C35.4280771,43.7203482 39.0086442,43.7203482 41.2022995,41.526693 C43.395263,39.3337295 43.395263,35.7533292 41.2025158,33.5596873 L29.1852503,21.5424218 C28.5994639,20.9566354 27.6497164,20.9566354 27.06393,21.5424218 C26.4781436,22.1282082 26.4781436,23.0779557 27.06393,23.6637421 Z" id="Stroke-3"></path>
                </g>
            </g>
        </g>
    </g>
</svg>