<?xml version="1.0" encoding="UTF-8"?>
<svg width="47px" height="35px" viewBox="0 0 47 35" version="1.1" xmlns="http://www.w3.org/2000/svg" xmlns:xlink="http://www.w3.org/1999/xlink">
    <g id="Components" stroke="none" stroke-width="1" fill="none" fill-rule="evenodd">
        <g id="About-web" transform="translate(-537.000000, -1251.000000)" fill-rule="nonzero" fill="#4B9DF4">
            <g id="07---Testimonials" transform="translate(537.000000, 1237.000000)">
                <g id="Group-5" transform="translate(0.000000, 14.000000)">
                    <path d="M3,10.0061681 L3,24.9938319 C3,28.871183 6.12711849,32 9.99273517,32 L36.0598964,32 C39.9181483,32 43.0526316,28.8623111 43.0526316,24.9938319 L43.0526316,10.0061681 C43.0526316,6.12881701 39.9255131,3 36.0598964,3 L9.99273517,3 C6.13448325,3 3,6.13768889 3,10.0061681 Z M0,10.0061681 C0,4.47991405 4.47854718,0 9.99273517,0 L36.0598964,0 C41.5787317,0 46.0526316,4.46832468 46.0526316,10.0061681 L46.0526316,24.9938319 C46.0526316,30.5200859 41.5740844,35 36.0598964,35 L9.99273517,35 C4.47389993,35 0,30.5316753 0,24.9938319 L0,10.0061681 Z" id="Rectangle-7"></path>
                    <polygon id="Path-2" points="2.17471657 7.85373785 0.895458872 10.5673148 23.0152535 20.995218 45.9065014 10.5757534 44.663674 7.84529923 23.0373781 17.6889926"></polygon>
                </g>
            </g>
        </g>
    </g>
</svg>