<?xml version="1.0" encoding="UTF-8" standalone="no"?>
<svg width="20px" height="20px" viewBox="0 0 20 20" version="1.1" xmlns="http://www.w3.org/2000/svg" xmlns:xlink="http://www.w3.org/1999/xlink">
    <g id="Page-1" stroke="none" stroke-width="1" fill="none" fill-rule="evenodd">
        <g id="About-web" transform="translate(-187.000000, -1008.000000)" fill-rule="nonzero" fill="#4C9DF4">
            <g id="trusted" transform="translate(184.000000, 1004.000000)">
                <g id="text">
                    <g id="1" transform="translate(0.000000, 1.000000)">
                        <g id="Group-6" transform="translate(3.000000, 3.000000)">
                            <path d="M9.60009546,12.048 L9.87285058,12.9208164 L10.2143874,12.048 L9.60009546,12.048 Z M11.6160955,8.168 L11.1539031,9.64701543 L13.0427353,4.82 L18.0533724,4.82 L13.0297653,18.8937697 L12.8443655,18.9827615 C12.7009773,19.0515879 12.4441789,19.1444999 12.0753,19.2339251 C11.4802258,19.3781855 10.7758315,19.464 9.964,19.464 C9.15216846,19.464 8.44777422,19.3781855 7.85269999,19.2339251 C7.48382114,19.1444999 7.22702269,19.0515879 7.08363447,18.9827615 L6.89823473,18.8937697 L1.87462758,4.82 L12.768544,4.82 L11.5376616,8.168 L11.6160955,8.168 Z M8.056,8.168 L8.556,8.668 L8.556,7.768 L8.056,8.268 L11.5008969,8.268 L11.5376616,8.168 L8.056,8.168 Z M7.69472616,18.1505101 C7.79342603,18.1837796 7.9246674,18.2224064 8.08830001,18.2620749 C8.60697578,18.3878145 9.23233154,18.464 9.964,18.464 C10.6956685,18.464 11.3210242,18.3878145 11.8397,18.2620749 C12.0033326,18.2224064 12.134574,18.1837796 12.2332738,18.1505101 L16.6346276,5.82 L13.7252647,5.82 L9.76714942,15.9351836 L8.23990454,11.048 L9.66840454,11.048 L10.2559045,9.168 L7.556,9.168 L7.556,7.268 L10.8031031,7.268 L11.335456,5.82 L3.29337242,5.82 L7.69472616,18.1505101 Z" id="Shape"></path>
                            <path d="M10,20 C4.4771525,20 0,15.5228475 0,10 C0,4.4771525 4.4771525,0 10,0 C15.5228475,0 20,4.4771525 20,10 C20,15.5228475 15.5228475,20 10,20 Z M10,18 C14.418278,18 18,14.418278 18,10 C18,5.581722 14.418278,2 10,2 C5.581722,2 2,5.581722 2,10 C2,14.418278 5.581722,18 10,18 Z" id="Oval"></path>
                        </g>
                    </g>
                </g>
            </g>
        </g>
    </g>
</svg>