<?xml version="1.0" encoding="UTF-8" standalone="no"?>
<svg width="17px" height="20px" viewBox="0 0 17 20" version="1.1" xmlns="http://www.w3.org/2000/svg" xmlns:xlink="http://www.w3.org/1999/xlink">
    <defs>
        <polygon id="path-1" points="17 3.55271368e-15 17 12 8.5001 12 0.0002 12 0.0002 0 17 0"></polygon>
    </defs>
    <g id="Page-1" stroke="none" stroke-width="1" fill="none" fill-rule="evenodd">
        <g id="About-web" transform="translate(-756.000000, -1010.000000)">
            <g id="trusted" transform="translate(184.000000, 1004.000000)">
                <g id="text">
                    <g id="3" transform="translate(570.000000, 2.000000)">
                        <g id="Page-1" transform="translate(2.000000, 4.000000)">
                            <g id="Group-3" transform="translate(0.000000, 8.000000)">
                                <mask id="mask-2" fill="white">
                                    <use xlink:href="#path-1"></use>
                                </mask>
                                <g id="Clip-2"></g>
                                <path d="M14.0002,0 L3.0002,0 C1.3502,0 0.0002,1.35 0.0002,3 L0.0002,9 C0.0002,10.65 1.3502,12 3.0002,12 L14.0002,12 C15.6502,12 17.0002,10.65 17.0002,9 L17.0002,3 C17.0002,1.35 15.6502,0 14.0002,0 M14.0002,2 C14.5422,2 15.0002,2.458 15.0002,3 L15.0002,9 C15.0002,9.542 14.5422,10 14.0002,10 L3.0002,10 C2.4582,10 2.0002,9.542 2.0002,9 L2.0002,3 C2.0002,2.458 2.4582,2 3.0002,2 L14.0002,2" id="Fill-1" fill="#4C9DF4" mask="url(#mask-2)"></path>
                            </g>
                            <path d="M14.0002,8.5 L12.0002,8.5 L12.0002,5 C12.0002,3.374 10.9592,2 9.7272,2 L7.2722,2 C6.0412,2 5.0002,3.374 5.0002,5 L5.0002,8.5 L3.0002,8.5 L3.0002,5 C3.0002,2.243 4.9172,0 7.2722,0 L9.7272,0 C12.0832,0 14.0002,2.243 14.0002,5 L14.0002,8.5 Z" id="Fill-4" fill="#4C9DF4"></path>
                            <path d="M8.5002,12 C7.1222,12 6.0002,13.122 6.0002,14.5 C6.0002,15.878 7.1222,17 8.5002,17 C9.8782,17 11.0002,15.878 11.0002,14.5 C11.0002,13.122 9.8782,12 8.5002,12 M8.5002,14 C8.7752,14 9.0002,14.225 9.0002,14.5 C9.0002,14.775 8.7752,15 8.5002,15 C8.2252,15 8.0002,14.775 8.0002,14.5 C8.0002,14.225 8.2252,14 8.5002,14" id="Fill-6" fill="#4C9DF4"></path>
                        </g>
                    </g>
                </g>
            </g>
        </g>
    </g>
</svg>