<?xml version="1.0" encoding="UTF-8"?>
<svg width="192px" height="20px" viewBox="0 0 192 20" version="1.1" xmlns="http://www.w3.org/2000/svg" xmlns:xlink="http://www.w3.org/1999/xlink">
    <!-- Generator: Sketch 57.1 (83088) - https://sketch.com -->
    <title>partners</title>
    <desc>Created with Sketch.</desc>
    <g id="Page-1" stroke="none" stroke-width="1" fill="none" fill-rule="evenodd">
        <g id="partners">
            <g id="Group" transform="translate(1.000000, 0.000000)" fill-rule="nonzero">
                <g transform="translate(143.000000, 1.000000)">
                    <path d="M47.7882353,7.30769231 C47.7882353,7.38076923 47.7176471,7.38076923 47.7882353,7.30769231 C47.5058824,8.18461538 46.9411765,8.62307692 46.1647059,8.84230769 C45.3882353,8.98846154 44.6823529,8.98846154 43.9764706,8.76923077 C43.2,8.55 42.8470588,7.67307692 42.7764706,7.01538462 C42.7764706,6.94230769 42.7764706,6.94230769 42.8470588,6.94230769 C43.3411765,6.94230769 43.7647059,6.86923077 44.2588235,6.86923077 C44.4,6.86923077 44.4,6.94230769 44.4,7.01538462 C44.5411765,7.67307692 44.9647059,7.96538462 45.6,7.81923077 C45.8823529,7.74615385 46.0941176,7.52692308 46.0941176,7.30769231 C46.0941176,7.01538462 46.0235294,6.86923077 45.7411765,6.72307692 C45.4588235,6.57692308 45.1058824,6.50384615 44.7529412,6.43076923 C44.4,6.35769231 44.1176471,6.21153846 43.7647059,6.06538462 C43.2,5.77307692 42.9176471,5.33461538 42.9176471,4.67692308 C42.9176471,4.01923077 43.2705882,3.50769231 43.9058824,3.21538462 C44.4705882,2.92307692 45.0352941,2.92307692 45.6,2.99615385 C45.8117647,2.99615385 46.0235294,3.06923077 46.2352941,3.06923077 C47.0117647,3.28846154 47.4352941,3.8 47.5764706,4.67692308 C47.0823529,4.67692308 46.5882353,4.75 46.0941176,4.75 C46.0235294,4.75 45.9529412,4.75 45.9529412,4.60384615 C45.8117647,4.01923077 45.3882353,3.94615385 44.9647059,4.01923077 C44.7529412,4.01923077 44.5411765,4.23846154 44.5411765,4.38461538 C44.5411765,4.53076923 44.6117647,4.67692308 44.8941176,4.75 C45.4588235,4.89615385 45.9529412,4.96923077 46.5176471,5.18846154 C47.0117647,5.40769231 47.4352941,5.62692308 47.7176471,6.13846154 C47.7882353,6.28461538 47.7882353,6.43076923 47.8588235,6.50384615 C47.7882353,6.86923077 47.7882353,7.08846154 47.7882353,7.30769231 L47.7882353,7.30769231 Z" id="Path" fill="#006A71"></path>
                    <path d="M21.6705882,17.1730769 C21.1058824,17.1730769 20.6117647,16.9538462 20.2588235,16.5153846 C19.6235294,15.6384615 18.9176471,14.7615385 18.2117647,13.8846154 C18,13.6653846 18,13.3730769 18.1411765,13.1538462 C18.3529412,12.7884615 18.6352941,12.4961538 18.9882353,12.2769231 C19.1294118,12.2038462 19.2705882,12.2769231 19.3411765,12.35 C20.0470588,13.0076923 20.7529412,13.5923077 21.3882353,14.25 C21.6,14.4692308 21.6705882,14.4692308 21.8117647,14.1769231 C23.4352941,11.1076923 25.4117647,8.33076923 27.7411765,5.77307692 C27.8823529,5.62692308 28.0941176,5.48076923 28.3058824,5.40769231 C28.9411765,5.18846154 29.5058824,5.11538462 30.0705882,5.11538462 C30.2117647,5.11538462 30.3529412,5.11538462 30.4235294,5.26153846 C30.4941176,5.40769231 30.3529412,5.48076923 30.2823529,5.62692308 C29.1529412,6.65 28.1647059,7.89230769 27.3176471,9.20769231 C25.8352941,11.5461538 24.4235294,13.9576923 23.1529412,16.4423077 C22.8705882,17.0269231 22.3764706,17.2461538 21.8117647,17.2461538 C21.7411765,17.1730769 21.7411765,17.1730769 21.6705882,17.1730769 Z" id="Path" fill="#29B34B"></path>
                    <path d="M37.9764706,6.86923077 C38.1882353,6.86923077 38.4,6.86923077 38.5411765,6.79615385 C38.6823529,6.79615385 38.7529412,6.86923077 38.7529412,7.01538462 C38.8941176,7.74615385 39.4588235,7.89230769 40.0235294,7.74615385 C40.2352941,7.67307692 40.4470588,7.52692308 40.4470588,7.23461538 C40.4470588,7.01538462 40.3058824,6.79615385 40.0941176,6.72307692 C39.6705882,6.50384615 39.2470588,6.50384615 38.8235294,6.35769231 C38.5411765,6.28461538 38.2588235,6.13846154 37.9764706,5.99230769 C36.9176471,5.33461538 37.0588235,3.87307692 38.0470588,3.36153846 C38.4,3.14230769 38.8235294,3.06923077 39.2470588,3.06923077 C39.8823529,3.06923077 40.4470588,3.06923077 41.0117647,3.36153846 C41.5058824,3.65384615 41.7882353,4.09230769 41.8588235,4.67692308 C41.8588235,4.75 41.8588235,4.82307692 41.7176471,4.82307692 C41.2941176,4.82307692 40.8,4.89615385 40.3764706,4.89615385 C40.2352941,4.89615385 40.2352941,4.89615385 40.1647059,4.75 C40.0235294,4.23846154 39.5294118,4.01923077 39.0352941,4.23846154 C38.8941176,4.31153846 38.7529412,4.45769231 38.7529412,4.60384615 C38.7529412,4.82307692 38.8941176,4.89615385 39.0352941,4.96923077 C39.5294118,4.96923077 39.9529412,4.96923077 40.3058824,5.11538462 C40.5882353,5.18846154 40.9411765,5.33461538 41.2235294,5.48076923 C42.4235294,6.06538462 42.3529412,7.45384615 41.6470588,8.25769231 C41.2235294,8.69615385 40.7294118,8.91538462 40.2352941,8.91538462 C39.6,8.98846154 39.0352941,8.98846154 38.4705882,8.76923077 C37.5529412,8.55 37.2,7.67307692 37.1294118,7.01538462 C37.1294118,6.94230769 37.1294118,6.86923077 37.2705882,6.86923077 L37.9764706,6.86923077 Z" id="Path" fill="#006A71"></path>
                    <path d="M32.1176471,11.6923077 C31.7647059,11.6923077 31.4823529,11.6192308 31.3411765,11.2538462 C31.2,10.8884615 31.2,10.45 31.4117647,10.0846154 C31.6941176,9.71923077 32.6823529,9.64615385 32.8941176,10.2307692 C32.9647059,10.3038462 32.9647059,10.3769231 32.8235294,10.3769231 C32.7529412,10.3769231 32.6823529,10.45 32.6117647,10.45 C32.5411765,10.45 32.4705882,10.45 32.4,10.3769231 C32.3294118,10.2307692 32.1882353,10.2307692 32.0470588,10.2307692 C31.9058824,10.3038462 31.8352941,10.3769231 31.7647059,10.5230769 L31.7647059,10.9615385 C31.7647059,11.1076923 31.9058824,11.2538462 32.0470588,11.2538462 C32.1882353,11.2538462 32.3294118,11.1807692 32.4,11.0346154 C32.4,10.9615385 32.4,10.8884615 32.5411765,10.8884615 C32.6823529,10.8884615 32.8235294,10.9615385 32.9647059,11.0346154 C33.0352941,11.0346154 32.9647059,11.1076923 32.9647059,11.1807692 C32.8235294,11.5461538 32.5411765,11.6923077 32.1176471,11.6923077 L32.1176471,11.6923077 Z" id="Path" fill="#006A71"></path>
                    <path d="M25.9764706,12.5692308 C26.4,11.9115385 26.8235294,11.1807692 27.2470588,10.5230769 C27.4588235,11.0346154 27.6705882,11.4730769 27.8823529,11.9115385 C27.8823529,11.9846154 27.9529412,11.9846154 27.8117647,12.0576923 C27.2470588,12.2038462 26.6823529,12.4230769 26.1176471,12.6423077 C26.0470588,12.5692308 25.9764706,12.5692308 25.9764706,12.5692308 Z" id="Path" fill="#006A71"></path>
                    <path d="M46.8,9.79230769 L47.4352941,9.79230769 C47.5764706,9.79230769 47.6470588,9.86538462 47.5764706,9.93846154 L47.5764706,10.0846154 C47.5764706,10.2307692 47.5764706,10.2307692 47.4352941,10.2307692 C47.0117647,10.2307692 47.0117647,10.2307692 47.0117647,10.6692308 L47.0117647,11.4730769 C47.0117647,11.5461538 47.0117647,11.6192308 46.8705882,11.6192308 C46.4470588,11.6192308 46.4470588,11.6192308 46.4470588,11.1807692 C46.4470588,10.8884615 46.4470588,10.6692308 46.4470588,10.3769231 C46.4470588,10.2307692 46.3764706,10.1576923 46.2352941,10.2307692 C46.1647059,10.2307692 46.0941176,10.2307692 46.0941176,10.2307692 C45.8823529,10.3038462 45.8823529,10.1576923 45.8823529,10.0115385 C45.8823529,9.79230769 45.9529412,9.79230769 46.0941176,9.79230769 L46.8,9.79230769 Z" id="Path" fill="#016A71"></path>
                    <g transform="translate(31.000000, 2.000000)" fill="#006A71">
                        <path d="M5.4941176,3.40769231 C5.3529412,2.01923077 4.5764706,0.99615385 3.0235294,0.99615385 C2.2470588,0.99615385 1.4,0.99615385 0.6235294,0.99615385 C0.4117647,0.99615385 0.4117647,1.06923077 0.4117647,1.21538462 L0.4117647,3.84615385 L0.4117647,6.55 C0.4117647,6.69615385 0.4117647,6.76923077 0.6235294,6.76923077 L1.8941176,6.76923077 C2.4588235,6.76923077 3.0235294,6.84230769 3.5176471,6.69615385 C4.5764706,6.55 5.2823529,5.89230769 5.4941176,4.79615385 C5.4941176,4.43076923 5.5647059,3.91923077 5.4941176,3.40769231 L5.4941176,3.40769231 Z M3.7294118,4.65 C3.6588235,5.16153846 3.3764706,5.45384615 2.8823529,5.45384615 C2.6,5.45384615 2.3176471,5.45384615 2.1058824,5.45384615 C2.1058824,5.08846154 2.1058824,5.01538462 2.1058824,4.72307692 C2.1058824,4.43076923 2.1058824,4.13846154 2.1058824,3.84615385 C2.1058824,3.40769231 2.1058824,2.89615385 2.1058824,2.45769231 C2.1058824,2.38461538 2.1058824,2.38461538 2.2470588,2.38461538 L2.7411765,2.38461538 C3.3058824,2.45769231 3.5882353,2.67692308 3.6588235,3.26153846 C3.8,3.77307692 3.8,4.21153846 3.7294118,4.65 L3.7294118,4.65 Z" id="Shape"></path>
                        <path d="M6.2,7.79230769 C6.0588235,7.79230769 5.9176471,7.79230769 5.7058824,7.79230769 C5.5647059,7.79230769 5.5647059,7.86538462 5.4941176,7.93846154 C5.4235294,8.2307692 5.3529412,8.5230769 5.2823529,8.8153846 C5.2117647,8.6692308 5.1411765,8.5230769 5.1411765,8.3769231 C5,7.79230769 5,7.79230769 4.4352941,7.79230769 C4.2941176,7.79230769 4.2941176,7.86538462 4.2941176,7.93846154 L4.2941176,9.3269231 C4.2941176,9.6192308 4.2941176,9.6192308 4.5764706,9.6192308 C4.7176471,9.6192308 4.7176471,9.5461538 4.7176471,9.4730769 C4.7176471,9.1076923 4.7176471,8.8153846 4.7176471,8.45 C4.7882353,8.8153846 4.9294118,9.1076923 5,9.4730769 C5,9.6192308 5.0705882,9.6923077 5.2117647,9.6923077 C5.3529412,9.6923077 5.4941176,9.6923077 5.4941176,9.4730769 C5.5647059,9.1076923 5.6352941,8.8153846 5.7058824,8.45 L5.7764706,8.45 L5.7764706,8.6692308 L5.7764706,9.3269231 C5.7764706,9.6923077 5.7764706,9.6923077 6.1294118,9.6192308 C6.2,9.6192308 6.2705882,9.5461538 6.2705882,9.4730769 C6.2705882,8.9615385 6.2705882,8.3769231 6.2705882,7.86538462 C6.2705882,7.86538462 6.2705882,7.79230769 6.2,7.79230769 L6.2,7.79230769 Z" id="Path"></path>
                        <path d="M14.7411765,9.4730769 C14.7411765,9.0346154 14.7411765,8.5961538 14.7411765,8.1576923 C14.7411765,7.79230769 14.7411765,7.79230769 14.3882353,7.79230769 C14.2470588,7.79230769 14.1764706,7.79230769 14.1764706,8.0115385 L14.1764706,8.8153846 C14.0352941,8.5230769 13.8235294,8.3769231 13.7529412,8.1576923 C13.6117647,7.86538462 13.4,7.79230769 13.1882353,7.86538462 C13.0470588,7.86538462 13.0470588,7.93846154 13.0470588,8.0115385 L13.0470588,9.3269231 C13.0470588,9.7653846 13.0470588,9.7653846 13.4705882,9.6923077 C13.6117647,9.6923077 13.6117647,9.6923077 13.6117647,9.5461538 C13.6117647,9.3269231 13.6117647,9.0346154 13.6117647,8.8153846 L13.6823529,8.8153846 C13.8235294,9.0346154 13.9647059,9.1807692 14.1058824,9.4 C14.2470588,9.6192308 14.3882353,9.7653846 14.6705882,9.6923077 C14.6705882,9.6192308 14.7411765,9.6192308 14.7411765,9.4730769 Z" id="Path"></path>
                        <path d="M3.0941176,7.79230769 C2.5294118,7.79230769 2.1764706,8.1576923 2.1764706,8.7423077 C2.1764706,9.3269231 2.5294118,9.6923077 3.0941176,9.6923077 C3.6588235,9.6923077 4.0117647,9.3269231 4.0117647,8.7423077 C4.0117647,8.0846154 3.6588235,7.79230769 3.0941176,7.79230769 Z M3.4470588,8.9615385 C3.3764706,9.1076923 3.3058824,9.2538462 3.09411765,9.2538462 C2.8823529,9.2538462 2.8117647,9.1807692 2.7411765,8.9615385 C2.7411765,8.8153846 2.7411765,8.6692308 2.7411765,8.5961538 C2.8117647,8.3769231 2.8823529,8.2307692 3.09411765,8.2307692 C3.3058824,8.2307692 3.4470588,8.3769231 3.4470588,8.5961538 L3.4470588,8.7423077 L3.4470588,8.9615385 Z" id="Shape"></path>
                        <path d="M12.3411765,8.2307692 C12.2,7.71923077 12.2,7.71923077 11.7058824,7.79230769 C11.6352941,7.79230769 11.5647059,7.79230769 11.5647059,7.86538462 C11.3529412,8.45 11.1411765,9.0346154 10.9294118,9.6192308 L11.3529412,9.6192308 C11.4235294,9.6192308 11.4941176,9.6192308 11.4941176,9.4730769 C11.4941176,9.3269231 11.5647059,9.2538462 11.7058824,9.3269231 L11.9882353,9.3269231 C12.0588235,9.3269231 12.1294118,9.3269231 12.1294118,9.4730769 C12.1294118,9.6192308 12.2,9.6923077 12.3411765,9.6192308 L12.5529412,9.6192308 C12.6941176,9.6192308 12.6941176,9.6192308 12.6235294,9.4730769 C12.6235294,9.1076923 12.4823529,8.6692308 12.3411765,8.2307692 Z M11.9882353,8.8884615 C11.9176471,8.8884615 11.7764706,8.8884615 11.7058824,8.8884615 C11.6352941,8.8884615 11.7058824,8.8153846 11.7058824,8.8153846 C11.7764706,8.6692308 11.7764706,8.5230769 11.8470588,8.3038462 C11.9176471,8.5230769 11.9882353,8.6692308 11.9882353,8.8153846 C11.9882353,8.8884615 12.0588235,8.8884615 11.9882353,8.8884615 Z" id="Shape"></path>
                        <path d="M7.6117647,7.79230769 C7.3294118,7.79230769 7.0470588,7.79230769 6.7647059,7.79230769 C6.6235294,7.79230769 6.6235294,7.86538462 6.6235294,7.93846154 L6.6235294,8.6692308 L6.6235294,9.4730769 C6.6235294,9.5461538 6.6235294,9.6192308 6.6941176,9.6192308 C7.1176471,9.6923077 7.1882353,9.6192308 7.1882353,9.1807692 C7.1882353,8.8884615 7.1882353,8.8884615 7.4705882,8.8884615 L7.6823529,8.8884615 C7.9647059,8.8153846 8.1764706,8.5961538 8.1764706,8.3038462 C8.1764706,8.0115385 7.9647059,7.79230769 7.6117647,7.79230769 Z M7.3294118,8.5961538 C7.1882353,8.5961538 7.1882353,8.5230769 7.1882353,8.3769231 C7.1882353,8.3038462 7.1882353,8.1576923 7.3294118,8.2307692 C7.4705882,8.2307692 7.6117647,8.2307692 7.6117647,8.45 C7.6117647,8.5230769 7.4705882,8.5961538 7.3294118,8.5961538 Z" id="Shape"></path>
                    </g>
                    <path d="M40.7294118,11.1807692 C40.5176471,11.1807692 40.3058824,11.1807692 40.1647059,11.1807692 C40.0941176,11.1807692 40.0235294,11.1807692 40.0235294,11.0346154 C40.0235294,10.7423077 40.0235294,10.45 40.0235294,10.1576923 C40.0235294,9.71923077 40.0235294,9.71923077 39.6,9.71923077 C39.5294118,9.71923077 39.4588235,9.79230769 39.4588235,9.86538462 L39.4588235,10.5961538 L39.4588235,11.3269231 C39.4588235,11.4730769 39.4588235,11.5461538 39.6705882,11.5461538 L40.5882353,11.5461538 C40.8705882,11.5461538 40.8705882,11.5461538 40.8705882,11.2538462 C40.8705882,11.1807692 40.8,11.1807692 40.7294118,11.1807692 L40.7294118,11.1807692 Z" id="Path" fill="#016A71"></path>
                    <path d="M41.6470588,10.7423077 C41.6470588,10.5961538 41.6470588,10.3769231 41.6470588,10.2307692 C41.6470588,9.79230769 41.6470588,9.79230769 41.2235294,9.79230769 C41.0823529,9.79230769 41.0823529,9.79230769 41.0823529,9.93846154 L41.0823529,11.1807692 C41.0823529,11.6192308 41.0823529,11.6192308 41.5058824,11.6192308 C41.6470588,11.6192308 41.6470588,11.6192308 41.6470588,11.4730769 C41.6470588,11.2538462 41.6470588,10.9615385 41.6470588,10.7423077 Z" id="Path" fill="#016A71"></path>
                    <path d="M25.6941176,7.01538462 C24.7058824,4.75 23.7176471,2.48461538 22.7294118,0.21923077 C22.6588235,2.49800181e-16 22.5882353,2.49800181e-16 22.3764706,2.49800181e-16 C21.6705882,0.07307692 20.9647059,0.07307692 20.1882353,0.14615385 C18,0.29230769 15.8117647,0.36538462 13.6235294,0.51153846 C11.4352941,0.65769231 9.24705882,0.80384615 6.98823529,0.87692308 C5.29411765,1.02307692 3.6,1.09615385 1.83529412,1.16923077 C1.27058824,1.24230769 0.63529412,1.31538462 -1.33226763e-15,1.31538462 L-1.33226763e-15,1.38846154 C0.07058824,1.53461538 0.07058824,1.68076923 0.14117647,1.82692308 C0.56470588,3.06923077 0.98823529,4.31153846 1.41176471,5.55384615 C2.18823529,7.67307692 2.89411765,9.79230769 3.67058824,11.9115385 C4.44705882,14.1769231 5.29411765,16.5153846 6.07058824,18.7807692 C6.07058824,18.8538462 6.14117647,18.9269231 6.21176471,19 L6.28235294,19 C6.28235294,18.9269231 6.35294118,18.9269231 6.42352941,18.9269231 C9.88235294,17.8307692 13.3411765,16.6615385 16.7294118,15.5653846 C17.2235294,15.4192308 17.7176471,15.2730769 18.2823529,15.0538462 C18.0705882,14.7615385 17.8588235,14.5423077 17.6470588,14.25 C17.5058824,14.1038462 17.4352941,13.9576923 17.3647059,13.7384615 C17.3647059,13.5192308 17.2235294,13.5192308 17.0823529,13.5192308 C16.1647059,13.5192308 15.2470588,13.4461538 14.3294118,13.0807692 C12.5647059,12.4230769 11.7176471,10.8884615 12,8.91538462 C12.2117647,7.67307692 12.9882353,6.79615385 14.0470588,6.21153846 C15.0352941,5.7 16.0941176,5.62692308 17.2235294,5.62692308 C17.7882353,5.62692308 18.3529412,5.7 18.9176471,5.91923077 C18.9882353,5.91923077 19.0588235,5.99230769 19.0588235,6.06538462 L19.0588235,7.96538462 C19.0588235,7.96538462 19.0588235,7.96538462 18.9882353,7.96538462 C18.9882353,7.96538462 18.9176471,7.96538462 18.9176471,7.89230769 C18.2117647,7.52692308 17.4352941,7.30769231 16.5882353,7.45384615 C15.6705882,7.52692308 14.9647059,8.25769231 14.8941176,9.13461538 C14.7529412,10.2307692 15.2470588,11.1076923 16.1647059,11.4730769 C16.8705882,11.7653846 17.6470588,11.6923077 18.4235294,11.4730769 C18.7058824,11.4 18.9882353,11.3269231 19.2,11.2538462 C19.2705882,11.4 19.1294118,11.5461538 19.2705882,11.5461538 C19.5529412,11.6923077 19.7647059,11.9115385 19.9764706,12.1307692 C20.1176471,12.2038462 20.1882353,12.35 20.3294118,12.4230769 C20.3294118,12.35 20.3294118,12.2769231 20.3294118,12.2038462 C20.3294118,10.1576923 20.3294118,8.11153846 20.3294118,5.99230769 C20.5411765,5.84615385 20.5411765,5.84615385 20.7529412,5.84615385 L23.1529412,5.84615385 C23.2941176,5.84615385 23.3647059,5.91923077 23.3647059,6.06538462 L23.3647059,10.3038462 L23.3647059,10.5230769 C23.3647059,10.5230769 23.3647059,10.5230769 23.4352941,10.45 C24.1411765,9.35384615 24.9176471,8.33076923 25.6941176,7.30769231 C25.7647059,7.23461538 25.7647059,7.16153846 25.6941176,7.01538462 L25.6941176,7.01538462 Z M10.5176471,10.45 C9.88235294,10.8884615 9.10588235,11.0346154 8.32941176,11.1807692 C7.97647059,11.1807692 7.62352941,11.2538462 7.27058824,11.1807692 C7.12941176,11.1807692 7.05882353,11.2538462 7.05882353,11.4 L7.05882353,13.3 C7.05882353,13.4461538 7.05882353,13.5192308 6.84705882,13.5192308 C6,13.5192308 5.22352941,13.5192308 4.37647059,13.5192308 C4.23529412,13.5192308 4.23529412,13.4461538 4.23529412,13.3 C4.23529412,12.1307692 4.23529412,10.8884615 4.23529412,9.71923077 C4.23529412,8.55 4.23529412,7.30769231 4.23529412,6.13846154 C4.23529412,5.99230769 4.23529412,5.91923077 4.37647059,5.91923077 L8.11764706,5.91923077 C8.82352941,5.91923077 9.45882353,6.06538462 10.0941176,6.35769231 C10.8705882,6.72307692 11.3647059,7.30769231 11.4352941,8.18461538 C11.5764706,9.13461538 11.2941176,9.86538462 10.5176471,10.45 Z" id="Shape" fill="#006A70"></path>
                    <path d="M8.18823529,7.6 C7.83529412,7.52692308 7.55294118,7.52692308 7.2,7.52692308 C7.05882353,7.52692308 7.05882353,7.6 7.05882353,7.67307692 L7.05882353,8.55 L7.05882353,9.42692308 C7.05882353,9.5 7.05882353,9.57307692 7.12941176,9.57307692 C7.48235294,9.57307692 7.83529412,9.57307692 8.18823529,9.42692308 C8.61176471,9.28076923 8.82352941,8.91538462 8.82352941,8.47692308 C8.82352941,8.03846154 8.61176471,7.74615385 8.18823529,7.6 L8.18823529,7.6 Z" id="Path" fill="#006A71"></path>
                </g>
                <path d="M28.6314465,0.94444444 C28.4377358,1 28.2716981,1.02777778 28.1056604,1.08333333 C27.8289308,1.16666667 27.8842767,1.11111111 27.8842767,1.36111111 C27.8842767,1.66666667 27.8842767,1.66666667 27.5798742,1.66666667 L27.4968553,1.66666667 C27.4691824,1.66666667 27.4415094,1.69444444 27.4415094,1.72222222 L27.4415094,2.16666667 C27.5245283,2.16666667 27.6352201,2.19444444 27.718239,2.19444444 C27.8012579,2.19444444 27.8289308,2.22222222 27.8289308,2.30555556 L27.8289308,3.27777778 C27.8289308,3.44444444 27.8289308,3.63888889 27.8566038,3.80555556 C27.8842767,4.08333333 27.9949686,4.30555556 28.2440252,4.41666667 C28.5761006,4.58333333 28.9081761,4.55555556 29.2402516,4.47222222 C29.2679245,4.47222222 29.2955975,4.41666667 29.2955975,4.41666667 L29.2955975,3.97222222 C29.1849057,3.97222222 29.1018868,4 29.0465409,4 C28.7698113,4 28.6314465,3.88888889 28.6037736,3.61111111 C28.5761006,3.16666667 28.5761006,2.72222222 28.5761006,2.27777778 C28.5761006,2.19444444 28.6314465,2.19444444 28.6867925,2.19444444 L29.2125786,2.19444444 C29.2402516,2.19444444 29.2955975,2.16666667 29.2955975,2.13888889 L29.2955975,1.69444444 L28.6867925,1.69444444 C28.5761006,1.69444444 28.5484277,1.66666667 28.5484277,1.55555556 C28.6314465,1.33333333 28.6314465,1.13888889 28.6314465,0.94444444 L28.6314465,0.94444444 Z" id="Path" fill="#0795DB"></path>
                <path d="M21.7132075,3.91666667 C21.4641509,3.94444444 21.2427673,3.97222222 21.0490566,3.97222222 C20.6339623,3.97222222 20.2742138,3.69444444 20.191195,3.33333333 C20.0805031,2.88888889 20.2188679,2.47222222 20.6062893,2.25 C20.827673,2.13888889 21.0490566,2.08333333 21.2704403,2.13888889 C21.408805,2.16666667 21.5471698,2.19444444 21.7132075,2.22222222 C21.7408805,2.08333333 21.7685535,1.97222222 21.8238994,1.83333333 C21.8515723,1.75 21.8238994,1.72222222 21.7408805,1.69444444 C21.1597484,1.52777778 20.5786164,1.55555556 20.0528302,1.86111111 C19.1949686,2.36111111 19.1396226,3.72222222 19.9698113,4.25 C20.5232704,4.61111111 21.1597484,4.58333333 21.7685535,4.41666667 C21.7962264,4.41666667 21.8238994,4.36111111 21.8238994,4.33333333 C21.7685535,4.19444444 21.7408805,4.05555556 21.7132075,3.91666667 L21.7132075,3.91666667 Z" id="Path" fill="#0795DB"></path>
                <path d="M27.1647799,2.25 L27.1647799,1.75 C27.1647799,1.63888889 27.1371069,1.61111111 27.0264151,1.61111111 C26.6666667,1.61111111 26.3899371,1.77777778 26.1962264,2.11111111 C26.1685535,2.13888889 26.1685535,2.16666667 26.1408805,2.22222222 L26.1132075,2.22222222 C26.1132075,2.05555556 26.0855346,1.88888889 26.0855346,1.72222222 L25.4767296,1.72222222 L25.4767296,2.36111111 L25.4767296,4.36111111 C25.4767296,4.47222222 25.5044025,4.52777778 25.6150943,4.5 L26.0855346,4.5 C26.1962264,4.5 26.2238994,4.47222222 26.2238994,4.36111111 L26.2238994,3 C26.2238994,2.61111111 26.445283,2.33333333 26.8050314,2.27777778 C26.9157233,2.25 27.0264151,2.25 27.1647799,2.25 Z" id="Path" fill="#0795DB"></path>
                <path d="M13.5496855,1.66666667 L13.5496855,4.47222222 L13.9371069,4.47222222 C14.0477987,4.47222222 14.1031447,4.44444444 14.1031447,4.33333333 L14.1031447,1.80555556 L14.1031447,1.72222222 C14.0754717,1.69444444 14.0477987,1.66666667 14.0477987,1.66666667 L13.5496855,1.66666667 Z" id="Path" fill="#FFFFFF"></path>
                <path d="M18.7798742,1.66666667 L18.3924528,1.66666667 C18.281761,1.66666667 18.2264151,1.69444444 18.2264151,1.80555556 L18.2264151,4.22222222 L18.2264151,4.38888889 C18.2264151,4.44444444 18.2540881,4.47222222 18.309434,4.47222222 L18.6138365,4.47222222 C18.7245283,4.47222222 18.7522013,4.44444444 18.7522013,4.33333333 L18.7522013,1.80555556 C18.7798742,1.77777778 18.7798742,1.72222222 18.7798742,1.66666667 L18.7798742,1.66666667 Z" id="Path" fill="#FFFFFF"></path>
                <path d="M1.06918239,1.08333333 C1.01383648,1.38888889 0.93081761,1.69444444 0.90314465,2 C0.8754717,2.25 0.93081761,2.5 1.15220126,2.66666667 C1.26289308,2.75 1.37358491,2.75 1.51194969,2.63888889 C2.12075472,2.16666667 2.72955975,1.66666667 3.39371069,1.25 C4.27924528,0.69444444 5.24779874,0.41666667 6.29937107,0.52777778 C7.10188679,0.61111111 7.8490566,0.88888889 8.5408805,1.33333333 C8.23647799,1.30555556 7.93207547,1.25 7.65534591,1.27777778 C7.46163522,1.30555556 7.24025157,1.38888889 7.04654088,1.5 C6.9081761,1.55555556 6.9081761,1.69444444 7.01886792,1.80555556 C7.37861635,2.27777778 7.76603774,2.75 8.09811321,3.25 C8.78993711,4.22222222 9.1496855,5.27777778 9.0666667,6.47222222 C9.0113208,7.30555556 8.81761006,8.08333333 8.37484277,8.77777778 C8.34716981,8.5 8.34716981,8.19444444 8.31949686,7.91666667 C8.2918239,7.75 8.20880503,7.58333333 8.12578616,7.41666667 C8.01509434,7.19444444 7.98742138,7.19444444 7.79371069,7.36111111 C7.48930818,7.63888889 7.18490566,7.91666667 6.88050314,8.16666667 C5.9672956,8.91666667 4.94339623,9.38888889 3.75345912,9.44444444 C2.67421384,9.47222222 1.67798742,9.25 0.73710692,8.61111111 C0.98616352,8.66666667 1.17987421,8.69444444 1.40125786,8.72222222 C1.73333333,8.77777778 2.06540881,8.72222222 2.31446541,8.47222222 C2.39748428,8.36111111 2.42515723,8.27777778 2.31446541,8.16666667 C2.01006289,7.83333333 1.73333333,7.52777778 1.45660377,7.16666667 C0.54339623,6.02777778 0.07295597,4.75 0.23899371,3.27777778 C0.32201258,2.55555556 0.51572327,1.86111111 0.8754717,1.25 C0.93081761,1.16666667 0.95849057,1.11111111 1.01383648,1.02777778 C1.06918239,1.05555556 1.06918239,1.08333333 1.06918239,1.08333333 Z M7.1572327,7.77777778 L7.21257862,7.77777778 C7.24025157,7.75 7.24025157,7.75 7.26792453,7.72222222 C7.87672956,6.58333333 7.98742138,5.41666667 7.3509434,4.27777778 C7.07421384,3.77777778 6.68679245,3.33333333 6.35471698,2.86111111 C6.24402516,2.69444444 6.27169811,2.58333333 6.43773585,2.55555556 C6.63144654,2.5 6.85283019,2.5 7.04654088,2.47222222 C7.1572327,2.47222222 7.26792453,2.5 7.43396226,2.52777778 C7.37861635,2.44444444 7.3509434,2.41666667 7.32327044,2.38888889 C6.41006289,1.86111111 5.44150943,1.63888889 4.38993711,2.02777778 C3.6427673,2.30555556 3.03396226,2.75 2.45283019,3.25 C2.39748428,3.30555556 2.2591195,3.38888889 2.23144654,3.36111111 C2.14842767,3.30555556 2.03773585,3.19444444 2.03773585,3.08333333 C2.03773585,2.88888889 2.06540881,2.69444444 2.09308176,2.52777778 C2.09308176,2.41666667 2.12075472,2.33333333 2.14842767,2.22222222 C2.12075472,2.22222222 2.12075472,2.22222222 2.09308176,2.19444444 C2.06540881,2.25 2.03773585,2.27777778 2.01006289,2.33333333 C1.29056604,3.58333333 1.26289308,4.86111111 2.01006289,6.08333333 C2.2591195,6.5 2.61886792,6.86111111 2.92327044,7.25 C3.03396226,7.36111111 3.00628931,7.47222222 2.89559748,7.52777778 C2.72955975,7.58333333 2.56352201,7.63888889 2.39748428,7.63888889 C2.23144654,7.63888889 2.06540881,7.58333333 1.89937107,7.55555556 C1.87169811,7.58333333 1.87169811,7.61111111 1.84402516,7.61111111 C1.87169811,7.63888889 1.92704403,7.63888889 1.95471698,7.66666667 C3.28301887,8.47222222 4.86037736,8.38888889 6.13333333,7.38888889 C6.41006289,7.16666667 6.68679245,6.91666667 6.96352201,6.66666667 C7.24025157,7 7.24025157,7.38888889 7.1572327,7.77777778 L7.1572327,7.77777778 Z" id="Shape" fill="#0795DB"></path>
                <path d="M17.008805,2.05555556 C17.008805,1.97222222 17.036478,1.86111111 17.008805,1.77777778 C17.008805,1.66666667 17.036478,1.63888889 17.1471698,1.66666667 L17.4792453,1.66666667 L17.4792453,2.05555556 L17.4792453,4.13888889 C17.4792453,4.30555556 17.4515723,4.47222222 17.4238994,4.63888889 C17.3408805,5.13888889 17.036478,5.47222222 16.5660377,5.61111111 C16.0679245,5.75 15.5698113,5.72222222 15.0716981,5.55555556 C14.8779874,5.5 14.8779874,5.47222222 14.9610063,5.30555556 C14.9886792,5.25 15.0163522,5.16666667 15.0440252,5.08333333 C15.3484277,5.25 15.6805031,5.30555556 16.0125786,5.30555556 C16.5937107,5.27777778 16.8981132,5 16.9257862,4.41666667 L16.9257862,4.02777778 C16.8981132,4.05555556 16.8704403,4.05555556 16.8704403,4.05555556 C16.5383648,4.47222222 16.0679245,4.52777778 15.5974843,4.41666667 C15.0993711,4.30555556 14.7949686,3.97222222 14.6842767,3.47222222 C14.490566,2.75 14.7949686,2 15.4591195,1.72222222 C15.9295597,1.52777778 16.4,1.52777778 16.8150943,1.86111111 C16.8427673,1.88888889 16.8704403,1.91666667 16.8981132,1.94444444 C16.9257862,1.97222222 16.9534591,2 17.008805,2.05555556 L17.008805,2.05555556 Z M16.9257862,2.55555556 C16.8427673,2.22222222 16.5937107,2.05555556 16.2893082,2 C15.9295597,1.94444444 15.5974843,2.05555556 15.4037736,2.38888889 C15.154717,2.80555556 15.127044,3.25 15.3761006,3.69444444 C15.5698113,4.02777778 15.9849057,4.16666667 16.372327,4.08333333 C16.7320755,3.97222222 16.9534591,3.69444444 16.9811321,3.27777778 C16.9534591,3.19444444 16.9534591,2.72222222 16.9257862,2.55555556 L16.9257862,2.55555556 Z" id="Shape" fill="#FFFFFF"></path>
                <path d="M12.5257862,4.47222222 L12.1106918,4.47222222 C12.0830189,4.47222222 12.0553459,4.41666667 12.027673,4.38888889 C12,4.27777778 12,4.13888889 12,4 C11.972327,4.02777778 11.9446541,4.02777778 11.9446541,4.05555556 C11.3358491,4.83333333 10.118239,4.66666667 9.7308176,3.75 C9.481761,3.13888889 9.6201258,2.38888889 10.0628931,1.97222222 C10.4779874,1.58333333 11.1698113,1.5 11.6402516,1.77777778 C11.7509434,1.83333333 11.8339623,1.91666667 11.9446541,2 L11.9446541,1.86111111 L11.9446541,0.5 C11.9446541,0.38888889 11.972327,0.36111111 12.0830189,0.36111111 L12.3597484,0.36111111 C12.4704403,0.36111111 12.4981132,0.38888889 12.4981132,0.5 L12.4981132,2.88888889 C12.4981132,3.38888889 12.4981132,3.91666667 12.5257862,4.41666667 L12.5257862,4.47222222 Z M12,3.05555556 C12,3.05555556 12,2.77777778 11.972327,2.63888889 C11.9169811,2.30555556 11.6679245,2.05555556 11.3081761,2 C10.9484277,1.94444444 10.5610063,2.08333333 10.3949686,2.41666667 C10.1735849,2.80555556 10.1735849,3.22222222 10.3396226,3.63888889 C10.4779874,3.97222222 10.8100629,4.16666667 11.1974843,4.13888889 C11.5572327,4.11111111 11.8616352,3.88888889 11.9446541,3.55555556 C11.972327,3.41666667 11.972327,3.22222222 12,3.05555556 L12,3.05555556 Z" id="Shape" fill="#FFFFFF"></path>
                <path d="M24.8679245,2.83333333 C24.8125786,2.36111111 24.6188679,1.94444444 24.1761006,1.75 C23.7610063,1.55555556 23.318239,1.58333333 22.9031447,1.77777778 C22.3220126,2.05555556 22.072956,2.52777778 22.072956,3.13888889 C22.072956,3.69444444 22.2666667,4.13888889 22.7924528,4.36111111 C23.4012579,4.66666667 24.0377358,4.58333333 24.6742138,4.38888889 C24.7018868,4.38888889 24.7295597,4.33333333 24.7295597,4.30555556 C24.7018868,4.16666667 24.6742138,4.05555556 24.6465409,3.91666667 L24.6188679,3.91666667 C24.591195,3.91666667 24.5358491,3.94444444 24.5081761,3.94444444 C24.1207547,4.02777778 23.7333333,4.08333333 23.3459119,3.94444444 C23.0968553,3.86111111 22.9308176,3.69444444 22.8477987,3.44444444 C22.7924528,3.25 22.8201258,3.25 22.9861635,3.25 L24.7849057,3.25 C24.8955975,3.25 24.9232704,3.22222222 24.9232704,3.11111111 C24.8679245,3.02777778 24.8955975,2.91666667 24.8679245,2.83333333 L24.8679245,2.83333333 Z M24.0930818,2.77777778 L22.8201258,2.77777778 C22.8201258,2.77777778 22.8201258,2.77777778 22.7924528,2.75 C22.8201258,2.25 23.290566,1.88888889 23.8163522,2.11111111 C24.0654088,2.22222222 24.1484277,2.47222222 24.1761006,2.69444444 C24.1761006,2.72222222 24.1207547,2.77777778 24.0930818,2.77777778 L24.0930818,2.77777778 Z" id="Shape" fill="#0795DB"></path>
                <path d="M28.6314465,0.94444444 L28.6314465,1.52777778 C28.6314465,1.63888889 28.6591195,1.69444444 28.7698113,1.66666667 L29.3786164,1.66666667 L29.3786164,2.11111111 C29.3786164,2.13888889 29.3232704,2.16666667 29.2955975,2.16666667 L28.7698113,2.16666667 C28.7144654,2.16666667 28.6591195,2.16666667 28.6591195,2.25 C28.6591195,2.69444444 28.6591195,3.13888889 28.6867925,3.58333333 C28.7144654,3.86111111 28.8528302,3.97222222 29.1295597,3.97222222 C29.2125786,3.97222222 29.2955975,3.97222222 29.3786164,3.94444444 L29.3786164,4.38888889 C29.3786164,4.41666667 29.3509434,4.44444444 29.3232704,4.44444444 C28.991195,4.52777778 28.6314465,4.55555556 28.327044,4.38888889 C28.0779874,4.25 27.9672956,4.02777778 27.9396226,3.77777778 C27.9119497,3.61111111 27.9119497,3.41666667 27.9119497,3.25 L27.9119497,2.27777778 C27.9119497,2.19444444 27.8842767,2.13888889 27.8012579,2.16666667 C27.718239,2.16666667 27.6075472,2.13888889 27.5245283,2.13888889 L27.5245283,1.69444444 C27.5245283,1.66666667 27.5522013,1.66666667 27.5798742,1.63888889 L27.6628931,1.63888889 C27.9672956,1.63888889 27.9396226,1.63888889 27.9672956,1.33333333 C27.9672956,1.08333333 27.9119497,1.11111111 28.1886792,1.05555556 C28.2716981,1.02777778 28.4377358,1 28.6314465,0.94444444 L28.6314465,0.94444444 Z" id="Path" fill="#0795DB"></path>
                <path d="M21.7132075,3.91666667 C21.7408805,4.02777778 21.7685535,4.16666667 21.7962264,4.30555556 C21.7962264,4.33333333 21.7685535,4.38888889 21.7408805,4.38888889 C21.1320755,4.55555556 20.5232704,4.61111111 19.9421384,4.22222222 C19.1119497,3.69444444 19.1672956,2.33333333 20.0251572,1.83333333 C20.5509434,1.52777778 21.1320755,1.5 21.7132075,1.66666667 C21.7962264,1.69444444 21.7962264,1.72222222 21.7962264,1.80555556 C21.7685535,1.94444444 21.7132075,2.05555556 21.6855346,2.19444444 C21.5471698,2.16666667 21.3811321,2.13888889 21.2427673,2.11111111 C20.9937107,2.08333333 20.772327,2.11111111 20.5786164,2.22222222 C20.2188679,2.44444444 20.0528302,2.86111111 20.163522,3.30555556 C20.2465409,3.66666667 20.6062893,3.94444444 21.0213836,3.94444444 C21.2427673,4 21.4641509,3.94444444 21.7132075,3.91666667 L21.7132075,3.91666667 Z" id="Path" fill="#0795DB"></path>
                <path d="M27.1647799,2.25 C27.0264151,2.25 26.9157233,2.22222222 26.8050314,2.25 C26.445283,2.30555556 26.2238994,2.58333333 26.2238994,2.97222222 L26.2238994,4.33333333 C26.2238994,4.44444444 26.1962264,4.5 26.0855346,4.47222222 L25.6150943,4.47222222 C25.5044025,4.47222222 25.4767296,4.44444444 25.4767296,4.33333333 L25.4767296,2.33333333 L25.4767296,1.69444444 L26.0855346,1.69444444 C26.0855346,1.86111111 26.1132075,2.02777778 26.1132075,2.19444444 L26.1408805,2.19444444 C26.1685535,2.16666667 26.1685535,2.13888889 26.1962264,2.08333333 C26.3899371,1.75 26.6666667,1.61111111 27.0264151,1.58333333 C27.1371069,1.58333333 27.1647799,1.61111111 27.1647799,1.72222222 C27.1371069,1.91666667 27.1647799,2.05555556 27.1647799,2.25 Z" id="Path" fill="#0795DB"></path>
                <path d="M13.5496855,1.66666667 L14.0201258,1.66666667 C14.0477987,1.66666667 14.0754717,1.69444444 14.0754717,1.72222222 L14.0754717,1.80555556 L14.0754717,4.33333333 C14.0754717,4.44444444 14.0477987,4.5 13.909434,4.47222222 L13.5220126,4.47222222 C13.5496855,3.55555556 13.5496855,2.61111111 13.5496855,1.66666667 Z" id="Path" fill="#FFFFFF"></path>
                <path d="M18.7798742,1.66666667 L18.7798742,1.80555556 L18.7798742,4.33333333 C18.7798742,4.44444444 18.7522013,4.5 18.6415094,4.47222222 L18.3371069,4.47222222 C18.2540881,4.47222222 18.2540881,4.44444444 18.2540881,4.38888889 L18.2540881,4.22222222 L18.2540881,1.80555556 C18.2540881,1.69444444 18.281761,1.63888889 18.4201258,1.66666667 C18.5308176,1.69444444 18.6415094,1.66666667 18.7798742,1.66666667 Z" id="Path" fill="#FFFFFF"></path>
                <path d="M13.4666667,0.86111111 C13.4666667,0.66666667 13.6050314,0.55555556 13.8264151,0.55555556 C14.0201258,0.55555556 14.1584906,0.69444444 14.1584906,0.86111111 C14.1584906,1.02777778 14.0201258,1.16666667 13.8264151,1.16666667 C13.6050314,1.19444444 13.4666667,1.05555556 13.4666667,0.86111111 Z" id="Path" fill="#FFFFFF"></path>
                <path d="M18.5031447,1.19444444 C18.309434,1.19444444 18.1710692,1.05555556 18.1710692,0.888888885 C18.1710692,0.69444444 18.3371069,0.58333333 18.5308176,0.58333333 C18.7245283,0.58333333 18.8628931,0.72222222 18.8628931,0.91666667 C18.8628931,1.05555556 18.6968553,1.19444444 18.5031447,1.19444444 Z" id="Path" fill="#FFFFFF"></path>
            </g>
            <g id="Group" transform="translate(16.000000, 5.000000)" fill="#0795DB" font-family="Helvetica" font-size="3.837243" font-weight="normal">
                <text id="Trusted">
                    <tspan x="0.191301" y="4.591694">Trusted</tspan>
                </text>
            </g>
            <path d="M2.29056604,19.6388889 L29.8805031,19.6388889 C31.0981132,19.6388889 32.0666667,18.6388889 32.0666667,17.4444444 L32.0666667,12.1944444 C27.0578616,11.6666667 21.6893082,11.3611111 16.0716981,11.3611111 C10.4540881,11.3611111 5.08553459,11.6666667 0.07672956,12.1944444 L0.07672956,17.4444444 C0.10440252,18.6666667 1.07295597,19.6388889 2.29056604,19.6388889 Z" id="Path" fill="#3B3D3F" fill-rule="nonzero"></path>
            <path d="M6.85660377,14.9444444 C6.74591195,14.5555556 6.41383648,14.2777778 5.99874214,14.2777778 L5.77735849,14.2777778 C5.44528302,14.2777778 5.1408805,14.4722222 5.00251572,14.75 L6.69056604,14.75 L6.85660377,14.9444444 Z" id="Path"></path>
            <g id="Group" transform="translate(4.666667, 12.777778)" fill="#FFFFFF">
                <g transform="translate(5.000000, 0.000000)" font-family="Helvetica" font-size="4.476792" font-weight="normal" id="SECURE">
                    <text>
                        <tspan x="0.133693" y="4.132444">SECURE</tspan>
                    </text>
                </g>
                <path d="M3.0163522,2.27777778 C3.0163522,1.58333333 2.46289308,1.02777778 1.77106918,1.02777778 L1.54968553,1.02777778 C1.02389937,1.02777778 0.55345912,1.36111111 0.38742138,1.83333333 L0.74716981,1.83333333 C0.88553459,1.55555556 1.18993711,1.36111111 1.52201258,1.36111111 L1.74339623,1.36111111 C2.15849057,1.36111111 2.51823899,1.63888889 2.60125786,2.02777778 L0.63647799,2.02777778 L0.27672956,2.02777778 C0.27672956,2.11111111 0.2490566,2.16666667 0.2490566,2.25 L0.2490566,2.44444444 L0.2490566,2.52777778 L0.2490566,2.61111111 L0.2490566,3.63888889 C0.2490566,4 0.52578616,4.27777778 0.88553459,4.27777778 L2.29685535,4.27777778 C2.65660377,4.27777778 2.93333333,4 2.93333333,3.63888889 L2.93333333,2.61111111 L2.93333333,2.52777778 L2.93333333,2.44444444 L2.93333333,2.27777778 L3.0163522,2.27777778 Z M1.79874214,3.19444444 L1.79874214,3.38888889 C1.79874214,3.44444444 1.74339623,3.5 1.68805032,3.5 C1.6327044,3.5 1.57735849,3.44444444 1.57735849,3.38888889 L1.57735849,3.19444444 C1.52201258,3.16666667 1.46666667,3.08333333 1.46666667,3 C1.46666667,2.86111111 1.57735849,2.77777778 1.68805032,2.77777778 C1.82641509,2.77777778 1.90943396,2.88888889 1.90943396,3 C1.90943396,3.08333333 1.85408805,3.16666667 1.79874214,3.19444444 Z" id="Shape" fill-rule="nonzero"></path>
            </g>
            <g id="visa-2" transform="translate(40.000000, 0.000000)">
                <g id="visa">
                    <path d="M0.80808,19.9939333 L19.1919333,19.9939333 C19.6382,19.9939333 20,19.6321333 20,19.1858667 L20,0.80808 C20,0.36179 19.6382,0 19.1919333,0 L0.80808,0 C0.36179,0 0,0.36179 0,0.80808 L0,19.1858667 C0,19.6321333 0.36179,19.9939333 0.80808,19.9939333 Z" id="Path" fill="#FFFFFE"></path>
                    <path d="M1.24938667,19.5588 L18.7506667,19.5588 C19.197,19.5588 19.5588,19.197 19.5588,18.7507333 L19.5588,10.8080667 C19.5588,10.3618 19.197,10 18.7506667,10 L1.24938667,10 C0.803093333,10 0.441304667,10.3618 0.441304667,10.8080667 L0.441304667,18.7507333 C0.441304667,19.197 0.803093333,19.5588 1.24938667,19.5588 Z" id="Path" fill="#262C3D"></path>
                    <path d="M9.567,2.79616 L8.6064,7.2872 L7.44446667,7.2872 L8.4052,2.79616 L9.567,2.79616 Z M14.4550667,5.69606 L15.0666667,4.00949333 L15.4185333,5.69606 L14.4550667,5.69606 Z M15.7520667,7.2872 L16.8264,7.2872 L15.8876667,2.79616 L14.8966667,2.79616 C14.6732667,2.79616 14.4850667,2.92565333 14.4017333,3.12535333 L12.6582667,7.2872 L13.8785333,7.2872 L14.1208,6.61646667 L15.6111333,6.61646667 L15.7520667,7.2872 Z M12.7188,5.82100667 C12.7238667,4.63576 11.0804,4.57 11.0913333,4.04050667 C11.0949333,3.87959333 11.2482667,3.70818 11.5839333,3.66434 C11.7504,3.64282667 12.2095333,3.62555333 12.7299333,3.86535333 L12.9334667,2.91252667 C12.6538667,2.81151333 12.2942667,2.71404 11.8466667,2.71404 C10.6980667,2.71404 9.89,3.32414 9.88353333,4.19858667 C9.8762,4.84515333 10.4607333,5.20565333 10.9002,5.42100667 C11.3533333,5.64111333 11.5052667,5.78222 11.5030667,5.97888667 C11.4998,6.2802 11.1415333,6.41363333 10.8082,6.41868667 C10.2236667,6.42778 9.88486667,6.26070667 9.61486667,6.13484667 L9.40393333,7.1194 C9.67586667,7.24386667 10.1768667,7.35213333 10.6956,7.35766667 C11.9166667,7.35766667 12.7152667,6.75473333 12.7188,5.82100667 Z M7.9068,2.79616 L6.02426,7.2872 L4.79618,7.2872 L3.86971333,3.70302667 C3.81355333,3.48262667 3.76466,3.40161333 3.59375333,3.30848667 C3.31436,3.15666667 2.85314667,3.01474667 2.44769333,2.92646667 L2.47506667,2.79616 L4.45214,2.79616 C4.70395333,2.79616 4.93052,2.96374 4.9881,3.25374 L5.47749333,5.85272667 L6.6862,2.79616 L7.9068,2.79616 Z" id="Shape" fill="#262C3D"></path>
                    <path d="M4.65918667,15.5386 C4.79039333,15.6159333 4.99564667,15.6832 5.20766667,15.6832 C5.47009333,15.6832 5.61807333,15.5588 5.61807333,15.3737333 C5.61807333,15.2021333 5.50373333,15.1012 5.21766667,14.9968667 C4.8409,14.8656667 4.60201333,14.6638 4.60201333,14.3406667 C4.60201333,13.9672667 4.91150667,13.688 5.40615333,13.688 C5.65181333,13.688 5.83009333,13.7419333 5.94787333,13.7990667 L5.85029333,14.1355333 C5.76615333,14.0918 5.60807333,14.0278667 5.39605333,14.0278667 C5.13362667,14.0278667 5.02262,14.1658667 5.02262,14.3004 C5.02262,14.4753333 5.15383333,14.5560667 5.45666,14.6704667 C5.85029333,14.8219333 6.03868,15.0204667 6.03868,15.3434 C6.03868,15.7102 5.76282,16.0231333 5.1807,16.0231333 C4.93848,16.0231333 4.68948667,15.9558667 4.56504,15.8818 L4.65918667,15.5386 Z" id="Path" fill="#FFFFFE"></path>
                    <polygon id="Path" fill="#FFFFFE" points="7.6474 14.9834667 6.79273333 14.9834667 6.79273333 15.6496 7.7484 15.6496 7.7484 15.9894667 6.37888667 15.9894667 6.37888667 13.7216 7.69786667 13.7216 7.69786667 14.0615333 6.79273333 14.0615333 6.79273333 14.647 7.6474 14.647"></polygon>
                    <path d="M9.70353333,15.9222 C9.60593333,15.9692 9.3906,16.0231333 9.11473333,16.0231333 C8.39473333,16.0231333 7.95726667,15.5722 7.95726667,14.8825333 C7.95726667,14.1355333 8.47886667,13.688 9.17193333,13.688 C9.44446667,13.688 9.63626667,13.7419333 9.7204,13.7855333 L9.63293333,14.1153333 C9.52526667,14.0682667 9.37386667,14.0278667 9.1888,14.0278667 C8.7278,14.0278667 8.39473333,14.3172667 8.39473333,14.8622 C8.39473333,15.3602667 8.68406667,15.6765333 9.18533333,15.6765333 C9.35033333,15.6765333 9.52526667,15.6429333 9.63626667,15.5957333 L9.70353333,15.9222 Z" id="Path" fill="#FFFFFE"></path>
                    <path d="M10.4341333,13.7216 L10.4341333,15.0439333 C10.4341333,15.4882 10.6192,15.6933333 10.8983333,15.6933333 C11.1978667,15.6933333 11.3762667,15.4882 11.3762667,15.0439333 L11.3762667,13.7216 L11.79,13.7216 L11.79,15.0170667 C11.79,15.7168667 11.4300667,16.0264667 10.8849333,16.0264667 C10.36,16.0264667 10.0202,15.7337333 10.0202,15.0205333 L10.0202,13.7216 L10.4341333,13.7216 Z" id="Path" fill="#FFFFFE"></path>
                    <path d="M12.6416,14.7546667 L12.8872667,14.7546667 C13.1666,14.7546667 13.3382667,14.6065333 13.3382667,14.3812 C13.3382667,14.1355333 13.1666,14.0178 12.8974,14.0178 C12.7660667,14.0178 12.682,14.0278667 12.6416,14.038 L12.6416,14.7546667 Z M12.2313333,13.7553333 C12.3893333,13.7250667 12.6182,13.7048667 12.8570667,13.7048667 C13.1833333,13.7048667 13.4021333,13.7586667 13.5568667,13.8865333 C13.6813333,13.9909333 13.7519333,14.149 13.7519333,14.3442667 C13.7519333,14.6368667 13.5534667,14.8353333 13.3382667,14.9094 L13.3382667,14.9194667 C13.5029333,14.9800667 13.6006,15.1382 13.6544667,15.3568667 C13.7284667,15.6396 13.789,15.9019333 13.8328667,15.9894667 L13.4088667,15.9894667 C13.3751333,15.9222 13.3178667,15.7372 13.2574,15.4545333 C13.1901333,15.1584 13.0858,15.0642667 12.8503333,15.0574667 L12.6416,15.0574667 L12.6416,15.9894667 L12.2313333,15.9894667 L12.2313333,13.7553333 Z" id="Shape" fill="#FFFFFE"></path>
                    <polygon id="Path" fill="#FFFFFE" points="15.3808 14.9834667 14.5261333 14.9834667 14.5261333 15.6496 15.4817333 15.6496 15.4817333 15.9894667 14.1124 15.9894667 14.1124 13.7216 15.4312 13.7216 15.4312 14.0615333 14.5261333 14.0615333 14.5261333 14.647 15.3808 14.647"></polygon>
                </g>
            </g>
            <g id="Group" transform="translate(67.000000, 0.000000)" fill-rule="nonzero">
                <path d="M20.8819107,19.8533781 L20.167983,19.8533781 L20.167983,11.5884954 L20.8819107,11.5884954 L20.8819107,19.8533781 Z M26.3086951,11.5884954 C26.9331808,11.5790167 27.554759,11.6764182 28.1471758,11.8765856 C28.6657572,12.0499881 29.1426417,12.3315448 29.5470341,12.7030739 C29.9321768,13.0666067 30.2333078,13.5116871 30.4289449,14.006564 C30.8409574,15.1114411 30.8409574,16.3304324 30.4289449,17.4353096 C30.2334442,17.9302601 29.932294,18.3753689 29.5470341,18.7387997 C29.1426417,19.1103287 28.6657572,19.3918854 28.1471758,19.5652879 C27.554759,19.7654554 26.9331808,19.8628568 26.3086951,19.8533781 L23.3269967,19.8533781 L23.3269967,11.5884954 L26.3086951,11.5884954 Z M24.0409245,12.2733 L24.0409245,19.1685736 L26.3086951,19.1685736 C26.8444024,19.1782292 27.3778016,19.0951724 27.8858689,18.9229885 C28.3126389,18.7762048 28.7038518,18.5395957 29.0337528,18.2287383 C29.3469051,17.925372 29.5878384,17.5539364 29.7383481,17.1424966 C30.0544884,16.2250369 30.0544884,15.2262822 29.7383481,14.3088225 C29.5875906,13.896135 29.3467402,13.5232129 29.0337528,13.217858 C28.7047184,12.9058346 28.3132429,12.6690667 27.8858689,12.5236079 C27.3787363,12.35471 26.8471619,12.2733 26.3133613,12.2827456 L24.0409245,12.2733 Z M39.4393667,11.4940396 C39.7818349,11.4930677 40.1232372,11.5326942 40.4565971,11.6121094 C40.7800577,11.6870515 41.0934021,11.8012236 41.389836,11.9521503 C41.6694883,12.0958352 41.929803,12.2751866 42.1644244,12.4858256 C42.3941639,12.6923154 42.5937,12.9308464 42.757031,13.194244 L42.1644244,13.5956812 C42.024316,13.3789846 41.8564238,13.1820582 41.6651415,13.0100553 C41.4726757,12.8359336 41.2594946,12.6868007 41.030539,12.566113 C40.7938253,12.4427826 40.5431016,12.3492068 40.2839479,12.2874684 C40.0134929,12.2214303 39.7362455,12.1881376 39.4580315,12.1882898 C38.9934367,12.1843415 38.5324325,12.2709263 38.1001688,12.4433204 C37.6918212,12.6050855 37.3203065,12.8493383 37.0082793,13.1611845 C36.6944209,13.4796903 36.4468936,13.8586965 36.280353,14.275763 C35.9259433,15.2025659 35.9259433,16.2298621 36.280353,17.156665 C36.4467808,17.5737915 36.6943222,17.9528191 37.0082793,18.2712434 C37.3203065,18.5830897 37.6918212,18.8273425 38.1001688,18.9891075 C38.5324325,19.1615017 38.9934367,19.2480865 39.4580315,19.2441382 C39.734474,19.2449873 40.0100759,19.213289 40.2792817,19.1496824 C40.7984746,19.0343509 41.2801789,18.7873272 41.6791401,18.4318183 C41.8715637,18.2591758 42.0395707,18.0605253 42.1784229,17.8414695 L42.7616973,18.2712434 C42.5920646,18.5284266 42.3896747,18.7618542 42.1597581,18.9654936 C41.9256581,19.1719668 41.6670197,19.3480702 41.389836,19.4897233 C41.1026251,19.6382023 40.7986493,19.7508006 40.4845943,19.8250414 C39.5968187,20.0297042 38.6688309,19.960618 37.8201972,19.6266842 C37.3259044,19.4288202 36.8754318,19.1334249 36.4949979,18.7576908 C36.1162943,18.3767987 35.8178623,17.9221146 35.6177533,17.4211412 C35.1942743,16.3233003 35.1942743,15.1044049 35.6177533,14.006564 C35.8178623,13.5055906 36.1162943,13.0509065 36.4949979,12.6700144 C36.8754318,12.2942803 37.3259044,11.998885 37.8201972,11.801021 C38.3418527,11.5940877 38.8977557,11.4898941 39.4580315,11.4940396 L39.4393667,11.4940396 Z M45.1601212,15.2722717 C45.2646389,15.0970968 45.3935002,14.9380429 45.5427492,14.7999927 C45.6826145,14.6700041 45.839658,14.5603299 46.0093687,14.4741202 C46.1801958,14.3898122 46.360335,14.3263951 46.5459811,14.2852086 C46.7299216,14.2445293 46.9176441,14.223946 47.1059245,14.2238123 C47.423587,14.2204995 47.7393902,14.273239 48.0391636,14.3796643 C48.3106002,14.475785 48.5598603,14.6268334 48.7717561,14.8236067 C48.9764899,15.0206229 49.135808,15.2608863 49.2383756,15.5273023 C49.3550828,15.8279431 49.4121624,16.1489 49.4063583,16.4718604 L49.4063583,19.8769921 L48.7390922,19.8769921 L48.7390922,16.6796631 C48.7426814,16.4229184 48.7032372,16.1674159 48.6224373,15.9240167 C48.5513122,15.7096491 48.4332777,15.5143049 48.2771395,15.3525591 C48.1204655,15.1929313 47.9308429,15.0703589 47.7218621,14.9936271 C47.4823423,14.907496 47.2294121,14.8658963 46.975271,14.8708346 C46.7296688,14.86895 46.4859052,14.9138082 46.256677,15.0030727 C46.0390364,15.0878511 45.840621,15.2163771 45.6734027,15.3808959 C45.5053673,15.5476081 45.3720841,15.7467458 45.2814424,15.9665219 C45.1837505,16.2027605 45.1345363,16.4566366 45.1367903,16.7127227 L45.1367903,19.8769921 L44.4741906,19.8769921 L44.4741906,11.3759699 L45.1367903,11.3759699 L45.1601212,15.2722717 Z M53.7645839,14.2238123 C54.1142863,14.2203373 54.4608207,14.2911286 54.7818147,14.4316151 C55.0897222,14.5675955 55.3662435,14.7670464 55.5937327,15.017241 C55.8289645,15.278739 56.0126824,15.5833062 56.1350109,15.9145711 C56.2709213,16.2799121 56.3404767,16.6671065 56.3403246,17.0574863 L56.3403246,17.2038929 L56.3403246,17.336131 L51.7394553,17.336131 C51.7574067,17.6336894 51.8302082,17.9252214 51.9541004,18.1956788 C52.0662898,18.4388161 52.2248707,18.657102 52.42072,18.8379782 C52.612266,19.0125227 52.8358037,19.1473095 53.0786538,19.2346926 C53.3316177,19.326524 53.5984994,19.3728757 53.8672403,19.3716535 C54.2221777,19.3777154 54.5741347,19.3051807 54.8984695,19.159128 C55.2035641,19.0153946 55.4814949,18.8188031 55.7197199,18.5782248 L56.0743507,19.0505038 C55.9130053,19.2170641 55.7346973,19.3658736 55.5424042,19.4944461 C55.367963,19.6089163 55.1817851,19.7039263 54.9871274,19.7778135 C54.8015351,19.8472446 54.6091207,19.8963275 54.4131853,19.92422 C54.2183971,19.9519907 54.0219551,19.9661924 53.8252447,19.9667251 C53.4467439,19.9712294 53.0710375,19.9006322 52.7193568,19.7589223 C52.391952,19.6262344 52.0949585,19.4269086 51.8467779,19.1732964 C51.5982582,18.9150255 51.4045331,18.6080557 51.2775026,18.2712434 C51.1373566,17.9005254 51.0676966,17.5063393 51.0721899,17.1094371 C51.0677483,16.7156096 51.1374262,16.3245269 51.2775026,15.9570763 C51.400002,15.6142501 51.5887702,15.2995672 51.8327794,15.0314094 C52.0774429,14.7755688 52.3712082,14.5730641 52.6960253,14.4363379 C53.0393877,14.2865869 53.4093662,14.2094437 53.7832486,14.2096419 L53.7645839,14.2238123 Z M52.9993282,14.9652904 C52.7722027,15.0585417 52.5647374,15.1947892 52.3880568,15.3667275 C52.2097932,15.5419105 52.0643492,15.7483213 51.9587666,15.9759675 C51.8446578,16.2217411 51.7721026,16.4851514 51.7441215,16.7552278 L55.6683914,16.7552278 C55.6491862,16.483261 55.5844957,16.2165689 55.4770778,15.9665219 C55.3790346,15.7392471 55.2397523,15.5325961 55.0664523,15.3572819 C54.7207253,15.0093918 54.2520889,14.8155836 53.7645839,14.8188839 C53.5024889,14.8165083 53.2424836,14.8662516 52.9993282,14.9652904 L52.9993282,14.9652904 Z M60.4092454,14.2238123 C60.7980707,14.220305 61.18364,14.2957846 61.5431304,14.4457835 C61.8845708,14.588563 62.1893693,14.808225 62.434374,15.0880829 L62.0050838,15.5603619 C61.7981947,15.3487425 61.5546107,15.1774461 61.2864898,15.0550234 C61.0052963,14.932065 60.7015258,14.8708959 60.3952469,14.8755574 C60.1083024,14.8741334 59.824088,14.931987 59.5599981,15.0455778 C59.3070493,15.1559031 59.0785574,15.3165024 58.8880658,15.5178568 C58.6869059,15.7197222 58.5281813,15.9606966 58.4214462,16.2262753 C58.2073595,16.8032479 58.2073595,17.4392402 58.4214462,18.0162128 C58.6217047,18.5435148 59.0263208,18.9649827 59.5413327,19.1827419 C59.8053054,19.296717 60.0895993,19.3545868 60.3765816,19.3527623 C60.6867192,19.3562399 60.9939319,19.2917966 61.2771575,19.1638508 C61.5470793,19.0417506 61.7935219,18.8722652 62.0050838,18.663235 L62.4203748,19.135514 C62.1741865,19.4140353 61.8697112,19.6334639 61.5291319,19.7778135 C61.1712742,19.9278094 60.7872283,20.0033015 60.3999131,19.9997846 C60.0114269,20.0045347 59.6259192,19.9306727 59.2660274,19.7825362 C58.5927082,19.5055673 58.0613087,18.9608927 57.7961763,18.2759663 C57.5202583,17.5428662 57.5202583,16.7326814 57.7961763,15.9995814 C58.0597695,15.3125581 58.5914723,14.765864 59.2660274,14.4882886 C59.6272783,14.3164289 60.0195849,14.2215835 60.4185778,14.2096439 L60.4092454,14.2238123 Z M64.6694808,16.6560492 L65.5607243,16.6560492 L67.8938213,14.2946541 L68.7337363,14.2946541 L66.1206672,16.9158027 L68.780398,19.8486554 L67.9358168,19.8486554 L65.6027198,17.246398 L64.7114769,17.246398 L64.7114769,19.8486554 L64.0115476,19.8486554 L64.0115476,11.3476332 L64.6741469,11.3476332 L64.6694808,16.6560492 Z M27.073951,7.34270709 L27.073951,4.50903305 C27.1069597,4.02692836 26.9334107,3.55375868 26.5975797,3.2102384 C26.2617487,2.86671812 25.7961119,2.68606711 25.3194618,2.71437281 C24.6913146,2.67269316 24.0905399,2.98034328 23.7516205,3.51724713 C23.4426231,2.99635141 22.8768389,2.68828204 22.277103,2.71437281 C21.7549172,2.68765456 21.2578015,2.94282105 20.9705685,3.385009 L20.9705685,2.82771977 L20,2.82771977 L20,7.34270709 L20.9799009,7.34270709 L20.9799009,4.83962836 C20.9376991,4.52702225 21.0355581,4.21166596 21.2467732,3.97961753 C21.4579883,3.7475691 21.7605129,3.62304972 22.0717904,3.64003967 C22.7157252,3.64003967 23.0423588,4.06509078 23.0423588,4.83018278 L23.0423588,7.34270709 L24.0222597,7.34270709 L24.0222597,4.83962836 C23.9817896,4.52737775 24.0802471,4.21304324 24.2910706,3.98142504 C24.5018941,3.74980684 24.8033635,3.62476748 25.1141493,3.64003967 C25.7767489,3.64003967 26.0940502,4.06509078 26.0940502,4.83018278 L26.0940502,7.34270709 L27.073951,7.34270709 Z M41.5671514,2.8135514 L39.9806453,2.8135514 L39.9806453,1.44394227 L39.0007444,1.44394227 L39.0007444,2.8135514 L38.0955027,2.8135514 L38.0955027,3.69671315 L39.0007444,3.69671315 L39.0007444,5.75584964 C39.0007444,6.80430905 39.4020372,7.42778016 40.549921,7.42778016 C40.9787716,7.42917535 41.399312,7.30803135 41.7631316,7.07823089 L41.4831599,6.23757423 C41.2291911,6.40648986 40.9369479,6.50725273 40.6339125,6.5303872 C40.167293,6.5303872 39.9899777,6.22812865 39.9899777,5.7747408 L39.9899777,3.69671315 L41.5671514,3.69671315 L41.5671514,2.8135514 Z M49.8449809,2.70020444 C49.3629242,2.68585538 48.9117338,2.93955694 48.6690997,3.36139506 L48.6690997,2.8135514 L47.7078636,2.8135514 L47.7078636,7.32853873 L48.678432,7.32853873 L48.678432,4.79712325 C48.678432,4.05092241 48.9957335,3.63531688 49.6116711,3.63531688 C49.8192623,3.63244287 50.0253824,3.67095737 50.2182764,3.74866385 L50.5169125,2.80410582 C50.2952552,2.7238486 50.0617276,2.68232589 49.8263162,2.68131328 L49.8449809,2.70020444 Z M37.3302467,3.17248345 C36.7808606,2.8418773 36.1492095,2.67795105 35.5104308,2.70020444 C34.3812117,2.70020444 33.643953,3.24804809 33.643953,4.14537821 C33.643953,4.88213347 34.1852316,5.33552132 35.1837972,5.47720502 L35.6504167,5.54332409 C36.1823628,5.61888873 36.4343374,5.76057243 36.4343374,6.0156031 C36.4343374,6.36508956 36.0797066,6.56344673 35.417107,6.56344673 C34.8841354,6.57906133 34.3614753,6.41270931 33.9332571,6.09116774 L33.4666376,6.85625973 C34.0320002,7.25580333 34.7091621,7.46108476 35.3984422,7.44188574 C36.6863119,7.44188574 37.432903,6.82792299 37.432903,5.9683752 C37.432903,5.1088274 36.8449625,4.75934093 35.874394,4.61765722 L35.4077746,4.55153817 C34.9878171,4.49486468 34.651851,4.40985446 34.651851,4.10759589 C34.651851,3.80533732 34.9691523,3.5786434 35.5010985,3.5786434 C35.992764,3.58442413 36.4747447,3.71776339 36.9009568,3.96591219 L37.3302467,3.17248345 Z M63.3256168,2.70020444 C62.8435602,2.68585538 62.3923698,2.93955694 62.1497357,3.36139506 L62.1497357,2.8135514 L61.1884996,2.8135514 L61.1884996,7.32853873 L62.159068,7.32853873 L62.159068,4.79712325 C62.159068,4.05092241 62.4763695,3.63531688 63.0923071,3.63531688 C63.2998989,3.63244287 63.5060191,3.67095737 63.6989123,3.74866385 L63.9975491,2.80410582 C63.7758919,2.7238486 63.5423642,2.68232589 63.3069522,2.68131328 L63.3256168,2.70020444 Z M50.8202155,5.0615995 C50.796874,5.70315979 51.0417217,6.32497541 51.4946593,6.77441784 C51.9475969,7.22386026 52.5666886,7.45931729 53.1999748,7.42299458 C53.7827253,7.45300311 54.3554335,7.26090836 54.8051455,6.88459647 L54.338526,6.09116774 C54.0030129,6.35012357 53.5938869,6.49257008 53.1719771,6.49732768 C52.4280461,6.43640526 51.8549849,5.80756863 51.8549849,5.05215391 C51.8549849,4.2967392 52.4280461,3.66790258 53.1719771,3.60698014 C53.5938869,3.61173775 54.0030129,3.75418426 54.338526,4.01314009 L54.8051455,3.21971135 C54.3554335,2.84339945 53.7827253,2.65130474 53.1999748,2.68131328 C52.5666886,2.64499054 51.9475969,2.88044757 51.4946593,3.32989 C51.0417217,3.77933242 50.796874,4.40114804 50.8202155,5.04270833 L50.8202155,5.0615995 Z M59.9099627,5.0615995 L59.9099627,2.80410582 L58.9393936,2.80410582 L58.9393936,3.35194948 C58.6050158,2.91648463 58.0840693,2.6704276 57.5395357,2.69075886 C56.2510015,2.69075886 55.206438,3.74799144 55.206438,5.05215391 C55.206438,6.35631639 56.2510015,7.41354893 57.5395357,7.41354893 C58.0840693,7.43388022 58.6050158,7.18782317 58.9393936,6.75235837 L58.9393936,7.30020199 L59.9099627,7.30020199 L59.9099627,5.0615995 Z M57.6951022,3.7779794 C58.4281372,3.80582691 59.0047312,4.42161202 58.9928761,5.16396355 C58.9810209,5.90631508 58.385066,6.50291802 57.6515244,6.50677326 C57.2780136,6.51155664 56.9195028,6.35823109 56.6625536,6.08381647 C56.4056037,5.80940184 56.2735686,5.43883923 56.2983275,5.0615995 C56.3414881,4.32043722 56.9620667,3.75013189 57.6951022,3.7779794 L57.6951022,3.7779794 Z M44.5861794,2.70020444 C43.2976454,2.7184628 42.2677061,3.79049661 42.2857455,5.09465902 C42.303785,6.39882144 43.362972,7.4412527 44.6515061,7.42299451 C45.3173396,7.44669301 45.9684814,7.22140913 46.4806543,6.79014068 L46.0140349,6.06283099 C45.6455744,6.36191522 45.1890992,6.52810652 44.7168328,6.53510999 C44.0497379,6.59317677 43.4581643,6.10329143 43.3823011,5.42997712 L46.6999655,5.42997712 C46.6999655,5.30718458 46.6999655,5.18439204 46.6999655,5.05215391 C46.6999655,3.63531688 45.8320533,2.69075886 44.5815131,2.69075886 L44.5861794,2.70020444 Z M44.5861794,3.5786434 C44.8794977,3.5723141 45.1632803,3.68421181 45.3750644,3.88970706 C45.5868485,4.09520231 45.7092755,4.37745191 45.7153985,4.67433071 L43.3823011,4.67433071 C43.4174508,4.0437548 43.9438675,3.55710148 44.5675146,3.5786434 L44.5861794,3.5786434 Z M68.9297168,5.07104508 L68.9297168,1 L67.9591483,1 L67.9591483,3.36139506 C67.6247698,2.92593021 67.1038234,2.67987318 66.5592897,2.70020444 C65.2707555,2.70020444 64.2261927,3.75743702 64.2261927,5.0615995 C64.2261927,6.36576197 65.2707555,7.42299458 66.5592897,7.42299458 C67.1038234,7.4433258 67.6247698,7.19726874 67.9591483,6.76180394 L67.9591483,7.30964757 L68.9297168,7.30964757 L68.9297168,5.07104508 Z M65.3180822,5.07104508 C65.3612421,4.3298828 65.9818207,3.75957747 66.7148563,3.78742498 C67.4478912,3.81527249 68.0244853,4.4310576 68.0126301,5.17340913 C68.0007749,5.91576065 67.4048201,6.5123636 66.6712785,6.51621883 C66.2977677,6.52100222 65.9392569,6.36767667 65.6823076,6.09326205 C65.4253577,5.81884742 65.2933227,5.44828481 65.3180822,5.07104508 L65.3180822,5.07104508 Z M32.5473972,5.07104508 L32.5473972,2.8135514 L31.5768288,2.8135514 L31.5768288,3.36139506 C31.2424508,2.92593021 30.7215042,2.67987318 30.1769704,2.70020444 C28.8884363,2.70020444 27.8438731,3.75743702 27.8438731,5.0615995 C27.8438731,6.36576197 28.8884363,7.42299451 30.1769704,7.42299451 C30.7215042,7.4433258 31.2424508,7.19726874 31.5768288,6.76180394 L31.5768288,7.30964757 L32.5473972,7.30964757 L32.5473972,5.07104508 Z M28.9357627,5.07104508 C28.9789226,4.3298828 29.5995017,3.75957747 30.3325369,3.78742498 C31.0655721,3.81527249 31.6421659,4.4310576 31.6303108,5.17340913 C31.6184558,5.91576065 31.0225005,6.5123636 30.2889591,6.51621883 C29.9154484,6.52100222 29.5569379,6.36767667 29.2999882,6.09326205 C29.0430385,5.81884742 28.9110036,5.44828481 28.9357627,5.07104508 L28.9357627,5.07104508 Z" id="Shape" fill="#FFFFFF"></path>
                <path d="M8.279959,1.13666666 L8.25910928,1.15365046 C9.49047518,2.17630115 10.209435,3.73971727 10.209435,5.39473685 C10.209435,7.04975638 9.49047518,8.61317249 8.25910928,9.63582324 C8.262228,9.63841429 8.26534893,9.64100101 8.26847216,9.64358354 L6.27692308,9.64333336 L6.27692308,1.13666666 L8.279959,1.13666666 Z" id="Path" fill="#FF5F02"></path>
                <path d="M6.30935698,5.39548611 C6.30768694,3.73985114 7.02670187,2.17540975 8.25910928,1.15319142 C6.16610905,-0.58507769 3.16047679,-0.33188376 1.35449005,1.73483532 C-0.45149669,3.80155438 -0.45149669,6.98791926 1.35449005,9.05463838 C3.16047679,11.1213574 6.16610905,11.3745514 8.25910928,9.63628229 C7.02709398,8.61438848 6.30812294,7.0505952 6.30935698,5.39548611 Z" id="Path" fill="#EB001B"></path>
                <path d="M16.5182186,5.39548603 C16.5182186,7.46072209 15.4022706,9.34464101 13.6444392,10.2471351 C11.8866079,11.1496292 9.79545819,10.9122538 8.25910928,9.63582324 C9.49047518,8.61317249 10.209435,7.04975638 10.209435,5.39473685 C10.209435,3.73971727 9.49047518,2.17630115 8.25910928,1.15365046 C9.79545819,-0.12278017 11.8866079,-0.36015553 13.6444392,0.54233859 C15.4022706,1.44483272 16.5182186,3.3287516 16.5182186,5.39398769 L16.5182186,5.39548603 Z" id="Path" fill="#F79E1B"></path>
            </g>
        </g>
    </g>
</svg>