<svg fill="none" height="54" viewBox="0 0 203 54" width="203" xmlns="http://www.w3.org/2000/svg" xmlns:xlink="http://www.w3.org/1999/xlink"><linearGradient id="a"><stop offset="0" stop-color="#007940"/><stop offset=".2285" stop-color="#00873f"/><stop offset=".7433" stop-color="#40a737"/><stop offset="1" stop-color="#5cb531"/></linearGradient><linearGradient id="b" gradientUnits="userSpaceOnUse" x1="194.959" x2="201.088" xlink:href="#a" y1="46.446" y2="46.446"/><linearGradient id="c" gradientUnits="userSpaceOnUse" x1="194.959" x2="201.088" xlink:href="#a" y1="45.5008" y2="45.5008"/><linearGradient id="d" gradientUnits="userSpaceOnUse" x1="194.959" x2="201.088" xlink:href="#a" y1="44.4729" y2="44.4729"/><linearGradient id="e" gradientUnits="userSpaceOnUse" x1="181.238" x2="187.462" y1="45.5008" y2="45.5008"><stop offset="0" stop-color="#1f286f"/><stop offset=".4751" stop-color="#004e94"/><stop offset=".8261" stop-color="#0066b1"/><stop offset="1" stop-color="#006fbc"/></linearGradient><linearGradient id="f" gradientUnits="userSpaceOnUse" x1="188.066" x2="194.111" y1="45.5008" y2="45.5008"><stop offset="0" stop-color="#6c2c2f"/><stop offset=".1735" stop-color="#882730"/><stop offset=".5731" stop-color="#be1833"/><stop offset=".8585" stop-color="#dc0436"/><stop offset="1" stop-color="#e60039"/></linearGradient><clipPath id="g"><path d="m128 38h36v15h-36z"/></clipPath><mask id="h" height="16" maskUnits="userSpaceOnUse" width="7" x="136" y="38"><path d="m136.089 38h6.483v15.9961h-6.483z" fill="#fff"/></mask><mask id="i" height="8" maskUnits="userSpaceOnUse" width="6" x="158" y="41"><path d="m158.707 41.117h4.634v7.8011h-4.634z" fill="#fff"/></mask><path clip-rule="evenodd" d="m7.6164 43.3846v-2.4176c-1.0705-.3626-2.37889-.7253-3.44939-.7253-1.18944-.1208-2.14099.3627-3.09255.9671-.594722.6044-1.0704993 1.4505-1.0704993 2.4175 0 0-.2378887 2.5385 2.9736093 3.1429 0 0 .35683 0 .95156.1209.23788 0 .47577.1209.71366.2417.11895.1209.23789.3627.23789.4836 0 .2417-.11894.3626-.23789.4835-.23789.4835-.95155.6044-1.42733.6044-.71367 0-1.30839-.1209-1.90311-.2418 0 0-.475779-.1209-.832612-.2417v2.4175c1.070502.2418 2.378892.3627 3.449392.3627 1.07049 0 2.14099-.2418 2.9736-.8462.59473-.4835.95156-1.0879 1.18945-1.8132.11894-.8461 0-1.6923-.35684-2.4176-.59472-.7252-1.42733-1.0879-2.37888-1.4505-.23789-.1209-.59472-.1209-.83261-.1209h-.47578c-.47578 0-.83261-.2417-.95156-.6044 0-.3626.11895-.7252.47578-.967.59472-.1209 1.18945-.1209 1.90311 0 .47578 0 1.42733.3626 2.141.6044z" fill="#c12f98" fill-rule="evenodd"/><path clip-rule="evenodd" d="m8.56793 50.8791v-9.9121l2.73577-.4835v5.4396c.5947-.7253 1.0705-1.6923 1.5462-2.6594h3.0926c-.3568 1.4506-1.0705 2.6594-1.9031 3.6264.7136 1.2088 1.4273 2.5385 1.7841 3.989h-3.2115c-.2378-.967-.5947-2.0549-1.1894-3.022v3.022z" fill="#c12f98" fill-rule="evenodd"/><path clip-rule="evenodd" d="m19.154 50.8791v-3.8681c0-.4835.119-.8462.3568-1.2088.3569-.2418.7137-.3626 1.0705-.3626h.2379v-2.2967h-.4758c-.7136 0-1.5462.1208-2.1409.3626-.4758.2417-.9516.6044-1.1895 1.0879-.3568.4835-.4758.967-.4758 1.5714v4.7143z" fill="#c12f98" fill-rule="evenodd"/><path d="m24.2686 43.2637h-2.6168v7.6154h2.6168z" fill="#c12f98"/><path d="m22.9602 42.4176c.6569 0 1.1895-.5412 1.1895-1.2088s-.5326-1.2088-1.1895-1.2088-1.1894.5412-1.1894 1.2088.5325 1.2088 1.1894 1.2088z" fill="#c12f98"/><path clip-rule="evenodd" d="m28.0748 50.8791v-10.3956l-2.6168.4835v9.9121z" fill="#c12f98" fill-rule="evenodd"/><path clip-rule="evenodd" d="m32 50.8791v-10.3956l-2.6168.4835v9.9121z" fill="#c12f98" fill-rule="evenodd"/><path d="m106.562 40.005h-4.568l-1.567 8.3771h-5.3512l.261-1.9634h3.2632l.3916-2.0942h-3.2632l.3916-1.8326h3.3937l.3916-2.356h-6.7874l-1.4358 7.7227h-2.48l1.4358-7.7227h-3.3937l-1.5663 7.8536h-2.3495l1.4358-7.8536h-3.5242l-1.5663 8.3771h-5.3516l.2611-1.8325h3.2631l.3916-2.0943h-3.2632l.3916-1.9634h3.3937l.3916-2.356h-20.8842l-1.3053 6.5446-2.3495-6.5446h-3.6547l-1.9579 10.7332h3.5242l1.1747-6.8064 2.3495 6.8064h12.5305l1.5664-8.3772h1.9579l-1.5664 8.3772h33.0232l1.044-5.2357h.131l1.566 5.1048h3.524l-1.697-4.4504c1.567-.1309 2.741-1.4398 2.872-2.8796v-.5236c-.131-3.2723-4.438-3.0105-4.438-3.0105zm-40.9852 8.2462h-5.3515l.261-1.8325h3.3937l.3916-2.0942h-3.3937l.261-1.8326h5.3516zm41.7682-4.5812c-.13.7853-1.044 1.4398-1.827 1.3089h-1.044l.522-2.8796h.652s1.567 0 1.567 1.3089v.2618z" fill="#8cc63e"/><path clip-rule="evenodd" d="m202.312 50.573c0 1.8889-1.554 3.427-3.464 3.427h-18.848v-13.573c0-1.8889 1.555-3.427 3.464-3.427h18.848z" fill="#fff" fill-rule="evenodd"/><path clip-rule="evenodd" d="m196.175 47.0921h1.432c.041 0 .137-.0135.178-.0135.272-.054.504-.2969.504-.6342 0-.3238-.232-.5666-.504-.6341-.041-.0135-.123-.0135-.178-.0135h-1.432z" fill="url(#b)" fill-rule="evenodd"/><path clip-rule="evenodd" d="m197.444 38.1468c-1.364 0-2.483 1.0928-2.483 2.4555v2.55h3.505c.082 0 .178 0 .246.0135.791.0405 1.377.4453 1.377 1.1469 0 .5531-.395 1.0254-1.132 1.1198v.027c.805.054 1.419.4992 1.419 1.1873 0 .7421-.682 1.2278-1.582 1.2278h-3.846v4.992h3.641c1.364 0 2.482-1.0928 2.482-2.4555v-12.2643z" fill="url(#c)" fill-rule="evenodd"/><path clip-rule="evenodd" d="m198.112 44.4746c0-.3238-.232-.5397-.505-.5802-.027 0-.095-.0135-.136-.0135h-1.296v1.1873h1.296c.041 0 .123 0 .136-.0135.273-.0404.505-.2563.505-.5801z" fill="url(#d)" fill-rule="evenodd"/><path clip-rule="evenodd" d="m183.723 38.1468c-1.364 0-2.482 1.0928-2.482 2.4555v6.058c.696.3373 1.419.5532 2.141.5532.86 0 1.323-.5127 1.323-1.2143v-2.8603h2.128v2.8468c0 1.1063-.696 2.0103-3.055 2.0103-1.432 0-2.551-.3103-2.551-.3103v5.1674h3.642c1.364 0 2.482-1.0928 2.482-2.4555v-12.2508z" fill="url(#e)" fill-rule="evenodd"/><path clip-rule="evenodd" d="m190.583 38.1468c-1.363 0-2.482 1.0928-2.482 2.4555v3.2112c.628-.5262 1.719-.8635 3.478-.7826.941.0405 1.95.2968 1.95.2968v1.0389c-.504-.2563-1.104-.4857-1.882-.5397-1.336-.0944-2.141.5532-2.141 1.6866 0 1.1468.805 1.7944 2.141 1.6865.778-.054 1.378-.2969 1.882-.5397v1.0389s-.995.2563-1.95.2968c-1.759.0809-2.85-.2564-3.478-.7825v5.6666h3.642c1.364 0 2.482-1.0928 2.482-2.4555v-12.2778z" fill="url(#f)" fill-rule="evenodd"/><g clip-path="url(#g)"><path clip-rule="evenodd" d="m138.102 41.0103h2.457c.781 0 1.421.6375 1.421 1.4167v4.0728c0 .7791-.64 1.4167-1.421 1.4167h-2.457c-.782 0-1.421-.6376-1.421-1.4167v-4.0728c0-.7792.639-1.4167 1.421-1.4167z" fill="#fffffe" fill-rule="evenodd"/><g mask="url(#h)"><path clip-rule="evenodd" d="m138.102 41.0101h2.457c.781 0 1.421.6375 1.421 1.4167v4.0728c0 .7791-.64 1.4167-1.421 1.4167h-2.457c-.782 0-1.421-.6376-1.421-1.4167v-4.0728c0-.7792.639-1.4167 1.421-1.4167zm3.345 11.9858h-4.233c-.619 0-1.125-.5047-1.125-1.1215v-11.366c0-.6168.506-1.1215 1.125-1.1215h4.233c.05 0 .099.0034.148.0098v-.9099c0-.2678.22-.487.488-.487.269 0 .489.2192.489.487v1.5347c0 .068-.015.133-.04.1919.026.0941.04.193.04.295v11.366c0 .6168-.507 1.1215-1.125 1.1215z" fill="#cdde83" fill-rule="evenodd"/></g><path clip-rule="evenodd" d="m145.212 42.0525c.757-.1081 1.338.1015 1.377 1.289-.025 1.0602-.59 1.3285-1.377 1.2723zm-1.645-.7623 3.064-.0119c1.117.1415 1.633.9752 1.586 2.1882-.085 1.2225-.78 1.82-1.941 1.9248l-1.112-.0221.031 3.3537h-1.628z" fill="#84bf41" fill-rule="evenodd"/><path clip-rule="evenodd" d="m151.063 41.198 1.941-.0089-.015.8302-1.52-.0067c-.876.1623-.68 1.095-.723 1.7689l2.045-.0382.007 1.0191-1.981-.021-.009 2.4676c.077.6398.415.9616.985.9989l1.089-.012.331.0072-.01.7704-.34.0129-2.068-.0219c-.713-.0241-1.288-.3765-1.553-1.4721l-.051-4.7875c.029-.9815.679-1.4628 1.872-1.5069z" fill="#84bf41" fill-rule="evenodd"/><path clip-rule="evenodd" d="m153.716 43.299c-.122-1.6037.774-1.9659 1.864-2.0925 1.276-.0753 2.077.4551 2.233 1.8083l-1.506-.0041c-.095-.6826-.628-.9449-1.115-.6201-.695.8473 1.473 2.3385 2.123 2.8915 1.123.886.933 3.3415-.797 3.7968l-1.056.0374c-1.071.0252-1.709-.6498-1.894-1.9012l1.517-.0266c.083.5343.312.8665.797.8429.756-.1431.963-.8062.426-1.6524-1.125-.9524-2.457-1.8457-2.592-3.08z" fill="#84bf41" fill-rule="evenodd"/><g mask="url(#i)"><path clip-rule="evenodd" d="m160.361 42.6406c.055-.4378.197-.6141.68-.6613.49.0126.664.2942.697.7282v1.1886h-1.377zm-1.654 6.2775h1.654v-4.1013h1.377v4.1013h1.603v-5.859c-.032-1.1908-.95-1.937-2.25-1.9419-1.482-.0131-2.328.6881-2.384 1.8749z" fill="#84bf41" fill-rule="evenodd"/></g><g clip-rule="evenodd" fill-rule="evenodd"><path d="m137.813 43.7661c.243.5668.574.8274.975.8434-.625.4656-1.301.7485-2.006.9293-.443-.0283-.867-.1407-1.278-.2528 1.039-.2044 1.813-.7056 2.309-1.5199z" fill="#6d2321"/><path d="m137.813 43.7661c.243.5668.574.8274.975.8434-.625.4656-1.301.7485-2.006.9293-.443-.0283-.867-.1407-1.278-.2528 1.039-.2044 1.813-.7056 2.309-1.5199z" stroke="#c1855a" stroke-width=".2"/><path d="m140.537 42.3051 2.93 1.4757c-1.492 1.9578-4.009 2.0093-6.69 1.756 1.792-.4403 3.033-1.5321 3.76-3.2317z" fill="#d8262c"/><path d="m140.537 42.3051 2.93 1.4757c-1.492 1.9578-4.009 2.0093-6.69 1.756 1.792-.4403 3.033-1.5321 3.76-3.2317z" stroke="#c1855a" stroke-width=".2"/><path d="m128 41h1.643l.017.5086c.992-.4276 1.741-.7298 2.525-.0259 1.402-.66 2.462-.5848 2.987.6403l.074 6.877h-1.657v-6.5597c-.122-.5616-.568-.6576-1.106-.6207v7.1804h-1.695v-6.5597c-.123-.5616-.569-.6576-1.107-.6207v7.1804h-1.681z" fill="#84bf41"/></g></g><path d="m180.671 23.8082v-1.5339c0-.2192-.111-.5479-.335-.767-.223-.2192-.446-.3287-.67-.3287-.334 0-.669.1095-.893.4382-.223-.3287-.558-.4382-.893-.4382s-.558.1095-.781.3287v-.3287h-.559v2.5201h.559v-1.4244c0-.2192 0-.3287.111-.4383.112-.1096.335-.2192.447-.2192.335 0 .558.2192.558.6575v1.4244h.558v-1.4244c0-.2192 0-.3287.112-.4383s.335-.2192.447-.2192c.334 0 .558.2192.558.6575v1.4244zm3.238-1.3148v-1.2053h-.558v.3287c-.224-.2191-.558-.3287-.782-.3287-.781 0-1.34.5479-1.34 1.3149s.67 1.3148 1.34 1.3148c.335 0 .67-.1096.782-.3287v.3287h.558zm-2.121 0c0-.4383.335-.767.781-.6574.447 0 .782.3287.782.767s-.335.767-.782.767c-.223 0-.446-.1096-.558-.2192-.223-.2191-.335-.4383-.223-.6574zm14.29-1.3148c.223 0 .335 0 .558.1095.224.1096.335.1096.447.3287.112.1096.223.2192.335.4383.111.3287.111.6574 0 1.0957-.112.1096-.223.3287-.335.4383s-.335.2191-.447.3287c-.335.1096-.781.1096-1.116 0-.112-.1096-.335-.1096-.447-.3287-.111-.1096-.223-.2191-.335-.4383-.111-.3287-.111-.6574 0-1.0957.112-.1095.224-.3287.335-.4383.112-.1095.224-.2191.447-.3287.112-.1095.335-.1095.558-.1095zm0 .5478c-.112 0-.223 0-.335.1096-.111 0-.223.1096-.223.2191-.112.1096-.112.2192-.223.2192-.112.2191-.112.4382 0 .6574 0 .1096.111.2191.223.2191.112.1096.112.1096.223.2192.223.1095.447.1095.67 0 .112 0 .223-.1096.223-.2192.112-.1095.112-.1095.224-.2191.111-.2192.111-.4383 0-.6574 0-.1096-.112-.2192-.224-.2192-.111-.1095-.223-.1095-.223-.2191-.112-.1096-.223-.1096-.335-.1096zm-9.155.767c0-.767-.558-1.3148-1.228-1.3148-.781 0-1.339.6574-1.339 1.3148s.669 1.3148 1.339 1.3148c.335 0 .782-.1095 1.117-.3287l-.224-.4382c-.223.2191-.446.2191-.781.2191-.447 0-.782-.2191-.782-.6574h1.898s0 0 0-.1096zm-1.898-.2191c0-.3287.335-.6575.67-.6575.224 0 .335.1096.447.2192.111.1096.223.2191.223.4383zm4.354-.3287c-.223-.1096-.558-.2192-.781-.2192-.335 0-.447.1096-.447.3287 0 .2192.224.2192.447.2192h.223c.558.1095.893.3287.893.767 0 .4382-.446.7669-1.228.7669-.446 0-.781-.1095-1.116-.3287l.223-.4382c.223.2191.558.2191.893.2191s.559-.1096.559-.3287c0-.1096-.112-.2192-.447-.2192h-.223c-.559-.1095-.893-.3287-.893-.7669 0-.5479.446-.767 1.116-.767.335 0 .781.1095 1.116.2191zm2.68-.2192h-.893v1.0957c0 .2192.111.4383.335.4383.223 0 .335 0 .558-.1096l.112.4383c-.224.1096-.447.2191-.67.2191-.67 0-.893-.3287-.893-.8765v-1.0957h-.559v-.5479h.559v-.767h.558v.767h.893zm2.01-.5478c.111 0 .223 0 .446.1095l-.223.5479c-.112 0-.223-.1096-.335-.1096-.335 0-.558.2192-.558.6574v1.4244h-.559v-2.5201h.559v.3287c.111-.3287.446-.4382.67-.4382zm3.907 2.1914c.112 0 .112 0 0 0 .112 0 .112 0 .223.1095 0 0 0 0 .112.1096v.2191s0 .1096-.112.1096c0 0 0 0-.111 0h-.112c-.112 0-.223-.1096-.223-.1096 0-.1095 0-.1095 0-.2191 0 0 0-.1096.111-.1096 0 0 0-.1095.112-.1095zm0 .4382c.112 0 .112 0 0 0 .112 0 .112 0 .112-.1095 0 0 .111-.1096 0-.2192 0-.1095-.112-.1095-.112-.1095s0 0-.112 0c0 0 0 0-.111 0 0 0 0 0-.112 0-.112.1095-.112.2191 0 .2191.335.2191.335.2191.335.2191zm.112-.3287c0 .1096.111.1096 0 0 .111.1096.111.1096.111.1096s0 0-.111 0l.111.1096h-.111l-.112-.1096v.1096-.2192z" fill="#fff"/><path d="m191.277 2.11343h-8.596v14.79197h8.596z" fill="#7673c0"/><path clip-rule="evenodd" d="m183.239 9.56416c0-2.84881 1.34-5.58806 3.796-7.45075-4.019-3.067955-9.825-2.629676-13.397.98613-3.573 3.61581-3.461 9.20386 0 12.81966s9.266 4.0541 13.397.9861c-2.456-1.6435-3.796-4.3827-3.796-7.34114z" fill="#eb001b" fill-rule="evenodd"/><path d="m201.995 15.3714v-.3287h.112v-.1096h-.335v.1096h.112zm.67 0v-.3287h-.112l-.111.3287-.112-.2192h-.112v.2192h.112v-.3287l.112.2191h.111l.112-.2191z" fill="#00a1df"/><path clip-rule="evenodd" d="m203 9.56417c0 3.61583-2.121 6.90293-5.582 8.43683-3.349 1.534-7.48 1.2053-10.383-1.0957 2.344-1.7531 3.796-4.4923 3.796-7.4507 0-2.95839-1.34-5.58807-3.796-7.45076 3.014-2.191393 7.034-2.629673 10.383-1.095694 3.349 1.533974 5.582 5.040214 5.582 8.656024z" fill="#00a1df" fill-rule="evenodd"/><path d="m123.435 23.7818v-1.6364c0-.6545-.326-.9818-.978-.9818-.327 0-.653.1091-.87.4364-.217-.3273-.435-.4364-.87-.4364-.217 0-.543.1091-.76.3273v-.3273h-.435v2.5091h.435v-1.4182c0-.4363.217-.6545.652-.6545.434 0 .543.2182.543.6545v1.4182h.544v-1.4182c0-.4363.217-.6545.652-.6545s.543.2182.543.6545v1.4182h.544zm8.043-2.5091h-.869v-.7636h-.544v.7636h-.543v.4364h.543v1.2c0 .5454.218.8727.87.8727.217 0 .543-.1091.652-.2182l-.109-.4363c-.108.109-.326.109-.435.109-.217 0-.434-.109-.434-.4363v-1.2h.869zm4.565 0c-.326 0-.543.1091-.652.3273v-.3273h-.543v2.5091h.543v-1.4182c0-.4363.218-.6545.544-.6545h.326l.109-.4364c-.109 0-.218 0-.327 0zm-6.956.2182c-.217-.2182-.652-.2182-.978-.2182-.652 0-.979.3273-.979.7636 0 .4364.327.6546.87.7637h.217c.326 0 .435.1091.435.3273 0 .2181-.217.3272-.543.3272s-.652-.1091-.87-.2182l-.217.4364c.326.2182.761.3273 1.087.3273.761 0 1.087-.3273 1.087-.7637 0-.4363-.326-.6545-.87-.7636h-.217c-.218 0-.435-.1091-.435-.2182 0-.2182.217-.3272.543-.3272s.653.109.761.2181zm7.5 1.0909c0 .7636.543 1.3091 1.304 1.3091.326 0 .652-.1091.87-.3273l-.218-.4363c-.217.109-.434.2181-.652.2181-.434 0-.761-.3272-.761-.8727 0-.5454.327-.8727.761-.8727.218 0 .435.1091.652.2182l.218-.4364c-.218-.2182-.544-.3273-.87-.3273-.761.2182-1.304.7637-1.304 1.5273zm-3.478-1.3091c-.761 0-1.196.5455-1.196 1.3091s.544 1.3091 1.304 1.3091c.326 0 .761-.1091.979-.3273l-.218-.3273c-.217.1091-.435.2182-.761.2182s-.652-.2182-.76-.6545h1.847v-.2182c0-.8727-.434-1.3091-1.195-1.3091zm0 .4364c.326 0 .652.2182.652.6545h-1.304c0-.4363.217-.6545.652-.6545zm-6.739.8727v-1.3091h-.435v.3273c-.218-.2182-.435-.3273-.761-.3273-.652 0-1.196.5455-1.196 1.3091s.544 1.3091 1.196 1.3091c.326 0 .652-.1091.761-.3273v.3273h.543v-1.3091zm-1.957 0c0-.4364.326-.8727.761-.8727s.761.3272.761.8727-.326.8727-.761.8727-.761-.4363-.761-.8727zm19.13-1.3091c-.326 0-.543.1091-.652.3273v-.3273h-.543v2.5091h.435v-1.4182c0-.4363.217-.6545.543-.6545h.326l.109-.4364s-.109 0-.218 0zm-1.956 1.3091v-1.3091h-.544v.3273c-.217-.2182-.434-.3273-.76-.3273-.653 0-1.196.5455-1.196 1.3091s.543 1.3091 1.196 1.3091c.326 0 .652-.1091.76-.3273v.3273h.544zm-1.957 0c0-.4364.327-.8727.761-.8727.435 0 .761.3272.761.8727s-.326.8727-.761.8727c-.543 0-.761-.4363-.761-.8727zm6.957 0v-2.2909h-.544v1.3091c-.217-.2182-.434-.3273-.76-.3273-.653 0-1.196.5455-1.196 1.3091s.543 1.3091 1.196 1.3091c.326 0 .652-.1091.76-.3273v.3273h.544zm-1.957 0c0-.4364.327-.8727.761-.8727.435 0 .761.3272.761.8727s-.326.8727-.761.8727c-.543 0-.761-.4363-.761-.8727z" fill="#fff"/><path d="m137.457 2.07272h-8.914v14.94548h8.914z" fill="#ff5f00"/><path clip-rule="evenodd" d="m129.413 9.6c0-3.05455 1.413-5.78182 3.587-7.52727-1.63-1.309094-3.587-2.07273-5.761-2.07273-5.109 0-9.239 4.25455-9.239 9.6 0 5.3455 4.13 9.4909 9.239 9.4909 2.174 0 4.131-.7636 5.761-2.0727-2.174-1.7455-3.587-4.4727-3.587-7.4182z" fill="#eb001b" fill-rule="evenodd"/><path clip-rule="evenodd" d="m148 9.6c0 5.2364-4.13 9.4909-9.239 9.4909-2.174 0-4.131-.7636-5.761-2.0727 2.174-1.7455 3.587-4.4727 3.587-7.4182 0-2.94545-1.413-5.78182-3.587-7.52727 1.522-1.309094 3.587-2.07273 5.761-2.07273 5.109 0 9.239 4.25455 9.239 9.6z" fill="#f79e1b" fill-rule="evenodd"/><path d="m95 0h-36v23h36z" fill="#fff"/><path d="m94.4611 19.3113h-34.8144v3.1462h34.8144z" fill="#fab400"/><g fill="#1c2f76"><path d="m94.4611.65094h-34.8144v3.14623h34.8144z"/><path d="m73.3353 6.61792-3.4491 8.24528h-2.2635l-1.7245-6.50943c-.1078-.43396-.2156-.54245-.5389-.75943-.5389-.32548-1.2934-.54246-2.0479-.65095l.2155-.32547h3.5569c.4312 0 .8623.32547.9701.86793l.8623 4.77355 2.1556-5.64148zm8.7306 5.53298c0-2.16977-3.018-2.27826-2.9102-3.25468 0-.32547.3233-.65094.8623-.65094.3233 0 1.1856-.10849 2.0479.32547l.3233-1.73585c-.5389-.21698-1.1856-.32547-1.9401-.32547-2.0479 0-3.5569 1.08491-3.5569 2.71226 0 1.19341 1.0779 1.84431 1.8323 2.27831.8623.434 1.0779.6509 1.0779.9764 0 .5425-.6467.7594-1.2934.7594-1.0779 0-1.7246-.3254-2.1557-.5424l-.4312 1.8443c.539.217 1.4012.434 2.3713.434 2.2635 0 3.7725-1.1934 3.7725-2.8208zm5.497 2.6038h1.9401l-1.7246-8.13678h-1.8323c-.4311 0-.7545.21698-.8623.65094l-3.1257 7.59434h2.2634l.4312-1.1934h2.6946zm-2.3713-2.8207 1.0779-3.03778.6467 3.03778zm-8.8383-5.31608-1.7246 8.24528h-2.1557l1.7246-8.24528z"/><path clip-rule="evenodd" d="m79.0479 17.033h-.8623v.7594h.9701v.217h-1.2934v-2.2783h1.1856v.217h-.8623v.6509h.8623z" fill-rule="evenodd"/><path clip-rule="evenodd" d="m79.5868 15.7311h.3234v2.3868h-.3234z" fill-rule="evenodd"/><path d="m80.5569 17.3585c0 .434.2155.5424.5389.5424.2156 0 .3233 0 .4311-.1084v.2169c-.1078 0-.3233.1085-.5389.1085-.5389 0-.7545-.3254-.7545-.7594s.3234-.8679.7545-.8679c.5389 0 .6467.4339.6467.7594v.1085zm.8622-.217c0-.217-.1077-.4339-.4311-.4339-.3233 0-.4311.2169-.4311.4339z"/><path clip-rule="evenodd" d="m83.2515 18.0094c-.1078 0-.2156.1085-.4312.1085-.4311 0-.7544-.3254-.7544-.8679 0-.5424.3233-.8679.8622-.8679.2156 0 .3234 0 .4312.1085l-.1078.217c-.1078 0-.2156-.1085-.3234-.1085-.3233 0-.5389.3254-.5389.6509s.2156.6509.5389.6509c.2156 0 .3234 0 .3234-.1084z" fill-rule="evenodd"/><path clip-rule="evenodd" d="m84.1138 16.1651v.434h.4311v.2169h-.4311v.868c0 .2169.1077.3254.2155.3254h.2156v.217h-.2156c-.1078 0-.2155 0-.3233-.1085s-.1078-.217-.1078-.4339v-.868h-.2156v-.2169h.2156v-.3255z" fill-rule="evenodd"/><path clip-rule="evenodd" d="m84.8683 17.033v-.5424h.2155v.3254c.1078-.2169.2156-.3254.4312-.3254h.1077v.3254h-.1077c-.2156 0-.3234.1085-.4312.3255v.1085.8679h-.3233v-1.0849z" fill-rule="evenodd"/><path d="m87.4551 17.25c0 .5425-.4312.8679-.7545.8679-.4311 0-.7545-.3254-.7545-.8679 0-.5424.3234-.8679.7545-.8679.4311.1085.7545.4339.7545.8679zm-1.1856.1085c0 .3255.2155.6509.4311.6509.3233 0 .4311-.2169.4311-.6509 0-.217-.1078-.6509-.4311-.6509-.3234 0-.4311.3254-.4311.6509z"/><path clip-rule="evenodd" d="m87.8862 16.9245v-.4339h.2156v.217c.1078-.1085.2156-.3255.5389-.3255.2156 0 .5389.1085.5389.6509v.9764h-.3233v-.8679c0-.217-.1078-.4339-.3234-.4339-.2155 0-.3233.1084-.4311.3254v.1085.9764h-.3234v-1.1934z" fill-rule="evenodd"/></g><path d="m36 0h-36v23h36z" fill="#fff"/><path d="m35.4611 19.2029h-34.814371v3.1462h34.814371z" fill="#fab400"/><path d="m35.4611.54245h-34.814371v3.14623h34.814371z" fill="#1c2f76"/><path d="m14.3473 7.16037-3.5569 8.67923h-2.37124l-1.72455-6.94338c-.10778-.43396-.21557-.54245-.53892-.75943-.53892-.32548-1.4012-.54246-2.15569-.75944v-.21698h3.77245c.43114 0 .86228.32547.97007.86793l.97005 4.9906 2.26343-5.85853zm9.1617 5.85853c0-2.2783-3.1258-2.3868-3.1258-3.47174 0-.32547.3234-.65094.9701-.75943.3233 0 1.1856-.10849 2.1557.43396l.4311-1.84434c-.5389-.21698-1.1856-.43396-2.0479-.43396-2.1557 0-3.7724 1.1934-3.7724 2.82075 0 1.19336 1.0778 1.95286 1.9401 2.38676.8623.434 1.1856.651 1.1856 1.0849 0 .5425-.6467.868-1.2934.868-1.0778 0-1.7246-.3255-2.2635-.5425l-.4311 1.8444c.5389.2169 1.509.4339 2.479.4339 2.2635.1085 3.7725-1.0849 3.7725-2.8207zm5.8203 2.8207h2.0479l-1.8323-8.67923h-1.9401c-.4311 0-.7545.21698-.9701.65094l-3.3413 8.02829h2.3713l.4311-1.3019h2.8024zm-2.479-3.1462 1.1856-3.25473.6467 3.25473zm-9.3772-5.53303-1.8324 8.67923h-2.2635l1.8324-8.67923z" fill="#1c2f76"/></svg>