<?xml version="1.0" encoding="UTF-8" standalone="no"?>
<svg width="30px" height="22px" viewBox="0 0 30 22" version="1.1" xmlns="http://www.w3.org/2000/svg" xmlns:xlink="http://www.w3.org/1999/xlink">
    <g id="Components" stroke="none" stroke-width="1" fill="none" fill-rule="evenodd" opacity="0.300000012">
        <g id="About-web" transform="translate(-1097.000000, -209.000000)" fill="#259EFA">
            <g id="00---Header" transform="translate(-1.000000, -7.000000)">
                <g id="Pricing-plan" transform="translate(0.000000, 3.000000)">
                    <path d="M1116.58478,235 C1123.58416,235 1128,227.459364 1128,221.978799 C1128,216.848057 1125.5968,213 1121.03071,213 C1116.8251,213 1115.0227,215.681979 1115.0227,218.597173 C1115.0227,221.162544 1116.58478,223.727915 1120.67023,223.727915 C1122.23231,225.671378 1119.2283,233.44523 1116.58478,235 Z M1099.56208,235 C1106.56147,235 1110.9773,227.459364 1110.9773,221.978799 C1110.9773,216.848057 1108.5741,213 1104.00801,213 C1099.8024,213 1098,215.681979 1098,218.597173 C1098,221.162544 1099.56208,223.727915 1103.64753,223.727915 C1105.20961,225.671378 1102.20561,233.44523 1099.56208,235 Z" id="„-copy" transform="translate(1113.000000, 224.000000) rotate(-180.000000) translate(-1113.000000, -224.000000) "></path>
                </g>
            </g>
        </g>
    </g>
</svg>