<?xml version="1.0" encoding="UTF-8" standalone="no"?>
<svg width="30px" height="22px" viewBox="0 0 30 22" version="1.1" xmlns="http://www.w3.org/2000/svg" xmlns:xlink="http://www.w3.org/1999/xlink">
    <g id="Components" stroke="none" stroke-width="1" fill="none" fill-rule="evenodd" opacity="0.300000012">
        <g id="About-web" transform="translate(-301.000000, -304.000000)" fill="#259EFA">
            <g id="00---Header" transform="translate(-1.000000, -7.000000)">
                <g id="Pricing-plan" transform="translate(0.000000, 3.000000)">
                    <path d="M320.58478,330 C327.584162,330 332,322.459364 332,316.978799 C332,311.848057 329.596796,308 325.030708,308 C320.8251,308 319.022697,310.681979 319.022697,313.597173 C319.022697,316.162544 320.58478,318.727915 324.670227,318.727915 C326.23231,320.671378 323.228304,328.44523 320.58478,330 Z M303.562083,330 C310.561465,330 314.977303,322.459364 314.977303,316.978799 C314.977303,311.848057 312.574099,308 308.008011,308 C303.802403,308 302,310.681979 302,313.597173 C302,316.162544 303.562083,318.727915 307.64753,318.727915 C309.209613,320.671378 306.205607,328.44523 303.562083,330 Z" id="„"></path>
                </g>
            </g>
        </g>
    </g>
</svg>