<?xml version="1.0" encoding="UTF-8"?>
<svg width="54px" height="44px" viewBox="0 0 54 44" version="1.1" xmlns="http://www.w3.org/2000/svg" xmlns:xlink="http://www.w3.org/1999/xlink">
    <g id="Components" stroke="none" stroke-width="1" fill="none" fill-rule="evenodd">
        <g id="About-web" transform="translate(-738.000000, -586.000000)" fill-rule="nonzero" fill="#259EFA">
            <g id="Group-4-Copy-2" transform="translate(738.000000, 574.000000)">
                <g id="values" transform="translate(0.000000, 12.000000)">
                    <path d="M27.1162791,39.6951139 L50.2722156,12.6798546 L42.6888575,3.5 L11.5437007,3.5 L3.96034254,12.6798546 L27.1162791,39.6951139 Z M25.9773942,42.9761871 L0.861115096,13.6738615 C0.386342211,13.1199598 0.378932218,12.3047932 0.843557373,11.7423522 L9.68076667,1.04467783 C9.96572178,0.699732173 10.3897868,0.5 10.8372093,0.5 L43.3953488,0.5 C43.8427714,0.5 44.2668364,0.699732173 44.5517915,1.04467783 L53.3890008,11.7423522 C53.8536259,12.3047932 53.8462159,13.1199598 53.371443,13.6738615 L28.255164,42.9761871 C27.6565206,43.6746043 26.5760375,43.6746043 25.9773942,42.9761871 Z" id="Shape"></path>
                    <path d="M25.6644896,41.6227634 L28.5680685,42.3772366 L36.2424871,12.8423529 C36.3117935,12.5756283 36.3062814,12.2949657 36.2265559,12.031168 L33.0637652,1.56605173 L30.1920487,2.43394827 L33.2329366,12.4957098 L25.6644896,41.6227634 Z" id="Shape"></path>
                    <path d="M24.0405094,2.43394827 L21.1687929,1.56605173 L18.0060022,12.031168 C17.9262767,12.2949657 17.9207646,12.5756283 17.990071,12.8423529 L25.6644896,42.3772366 L28.5680685,41.6227634 L20.9996215,12.4957098 L24.0405094,2.43394827 Z" id="Shape"></path>
                    <polygon id="Shape" points="2.23255814 14 52.2325581 14 52.2325581 11 2.23255814 11"></polygon>
                </g>
            </g>
        </g>
    </g>
</svg>