<?xml version="1.0" encoding="UTF-8"?>
<svg width="1080px" height="280px" viewBox="0 0 1080 280" version="1.1" xmlns="http://www.w3.org/2000/svg" xmlns:xlink="http://www.w3.org/1999/xlink">
    <!-- Generator: Sketch 41.2 (35397) - http://www.bohemiancoding.com/sketch -->
    <title>blue</title>
    <desc>Created with Sketch.</desc>
    <defs></defs>
    <g id="Page-1" stroke="none" stroke-width="1" fill="none" fill-rule="evenodd">
        <g id="blue" fill="#FFFFFF">
            <g id="Page-1" transform="translate(-44.000000, -8.000000)">
                <path d="M245.211604,100.877863 L245.211604,191.122137 C245.211604,196.740458 242.047782,202.007634 237.477816,204.816794 L158.733788,250.114504 C153.812287,252.923664 147.836177,252.923664 142.914676,250.114504 L64.8737201,204.816794 C59.9522184,202.007634 57.1399317,196.740458 57.1399317,191.122137 L57.1399317,100.877863 C57.1399317,95.259542 60.3037543,89.9923664 64.8737201,87.1832061 L142.914676,41.8854962 C145.375427,40.480916 148.187713,39.778626 150.648464,39.778626 C153.109215,39.778626 156.273038,40.480916 158.382253,41.8854962 L237.12628,87.1832061 C242.047782,89.9923664 245.211604,94.9083969 245.211604,100.877863 L245.211604,100.877863 Z M241.696246,79.4580153 L163.303754,34.1603053 C155.921502,29.9465649 146.078498,29.9465649 138.696246,34.1603053 L60.3037543,79.4580153 C52.5699659,83.6717557 48,92.0992366 48,100.877863 L48,191.122137 C48,199.900763 52.5699659,207.977099 60.3037543,212.541985 L138.696246,257.839695 C142.56314,259.946565 146.78157,261 151,261 C155.21843,261 159.43686,259.946565 163.303754,257.839695 L241.696246,212.541985 C249.430034,208.328244 254,199.900763 254,191.122137 L254,100.877863 C254,92.0992366 249.078498,83.6717557 241.696246,79.4580153 L241.696246,79.4580153 Z" id="Fill-1" transform="translate(151.000000, 146.000000) rotate(241.000000) translate(-151.000000, -146.000000) "></path>
                <polygon id="Fill-3" points="101 193 122 193 122 128 101 128"></polygon>
                <polygon id="Fill-5" points="139 180 160 180 160 115 139 115"></polygon>
                <polygon id="Fill-6" points="179 164 200 164 200 99 179 99"></polygon>
                <polygon id="Fill-7" points="436.598131 124 419.425234 124 400.5 150.056338 381.574766 124 364.401869 124 391.38785 160.619718 363 199 379.82243 199 400.5 170.830986 420.827103 199 438 199 409.261682 160.619718"></polygon>
                <path d="M502.95,160.755932 C502.95,176.118644 494.55,186.59322 481.95,186.59322 C474.6,186.59322 466.55,182.40339 462.7,176.467797 L462.7,145.39322 C466.55,139.457627 474.6,135.267797 481.95,135.267797 C494.9,135.267797 502.95,145.39322 502.95,160.755932 M484.75,122 C476.35,122 468.3,125.491525 462.7,131.427119 L462.7,123.745763 L448,123.745763 L448,225 L462.7,225 L462.7,190.433898 C468.65,196.369492 476.35,199.861017 484.75,199.861017 C504.7,199.861017 518,184.149153 518,160.755932 C518,137.362712 505.05,122 484.75,122" id="Fill-8"></path>
                <path d="M540.303056,155.300448 C541.346446,146.443946 547.606787,134.753363 561.518655,134.753363 C576.126118,134.753363 582.038662,146.443946 583.082052,155.300448 L540.303056,155.300448 Z M561.518655,122 C540.650852,122 525,139.004484 525,161.32287 C525,184.704036 540.650852,201 562.562046,201 C574.387134,201 584.473239,197.103139 591.77697,189.309417 L592.82036,188.246637 L585.516629,177.973094 L584.125442,179.390135 C578.908491,184.704036 571.256963,187.892377 563.605436,187.892377 C548.997974,187.892377 541.346446,177.618834 539.955259,166.636771 L596.993921,166.636771 L596.993921,162.03139 C597.341717,138.650224 582.734255,122 561.518655,122 L561.518655,122 Z" id="Fill-9"></path>
                <path d="M619.509091,132.243119 L619.509091,123.766055 L605,123.766055 L605,199 L619.509091,199 L619.509091,147.077982 C622.618182,141.779817 630.909091,136.834862 636.781818,136.834862 C638.163636,136.834862 639.545455,136.834862 640.927273,137.188073 L643,137.541284 L643,122 L641.272727,122 C632.981818,122.353211 625.381818,125.885321 619.509091,132.243119" id="Fill-10"></path>
                <path d="M689.976378,184.175824 C688.913386,185.230769 686.433071,186.637363 683.598425,186.637363 C678.637795,186.637363 677.929134,182.065934 677.929134,179.252747 L677.929134,136.703297 L692.456693,136.703297 L692.456693,123.340659 L677.929134,123.340659 L677.929134,104 L663.047244,104 L663.047244,123.340659 L651,123.340659 L651,136.703297 L663.047244,136.703297 L663.047244,181.714286 C663.047244,193.67033 669.425197,200 680.76378,200 C687.141732,200 691.748031,198.241758 695.291339,195.076923 L696,194.373626 L691.393701,182.417582 L689.976378,184.175824 Z" id="Fill-11"></path>
                <path d="M794.213768,147.5 C794.213768,173.75 777.695652,191.95 754.5,191.95 C730.601449,191.95 714.786232,174.1 714.786232,147.5 C714.786232,120.9 730.952899,103.05 754.5,103.05 C778.047101,103.05 794.213768,120.9 794.213768,147.5 M754.5,95 C726.032609,95 706,116.7 706,147.5 C706,178.3 726.032609,200 754.5,200 C782.615942,200 803,177.95 803,147.5 C803,117.05 782.615942,95 754.5,95" id="Fill-12"></path>
                <path d="M821.764706,142.250847 C825.647059,135.966102 835.176471,129.332203 845.764706,129.332203 C861.294118,129.332203 871.176471,141.552542 871.176471,160.755932 C871.176471,179.959322 861.294118,192.179661 845.764706,192.179661 C835.176471,192.179661 826,185.545763 821.764706,178.911864 L821.764706,142.250847 Z M846.117647,122 C837.294118,122 828.117647,125.840678 822.117647,132.474576 L822.117647,123.745763 L814,123.745763 L814,225 L822.117647,225 L822.117647,189.037288 C828.470588,195.671186 836.941176,199.861017 846.117647,199.861017 C866.235294,199.861017 880,184.149153 880,160.755932 C879.647059,137.711864 866.235294,122 846.117647,122 L846.117647,122 Z" id="Fill-13"></path>
                <path d="M917.027027,189.098901 C915.621622,190.505495 913.162162,192.263736 910,192.263736 C905.081081,192.263736 904.027027,187.692308 904.027027,183.824176 L904.027027,130.725275 L918.432432,130.725275 L918.432432,123.340659 L904.027027,123.340659 L904.027027,104 L895.945946,104 L895.945946,123.340659 L884,123.340659 L884,130.725275 L895.945946,130.725275 L895.945946,183.824176 C895.945946,194.021978 900.864865,200 909.648649,200 C915.972973,200 919.135135,197.538462 921.945946,195.076923 L923,194.021978 L918.081081,187.692308 L917.027027,189.098901 Z" id="Fill-14"></path>
                <polygon id="Fill-15" points="936 199 945 199 945 124 936 124"></polygon>
                <path d="M940,102 C936.823529,102 934,104.823529 934,108 C934,111.176471 936.823529,114 940,114 C943.176471,114 946,111.176471 946,108 C946,104.823529 943.529412,102 940,102" id="Fill-16"></path>
                <path d="M1018.6,161.32287 C1018.6,176.910314 1010.2,193.206278 992,193.206278 C974.5,193.206278 965.4,177.264574 965.4,161.32287 C965.4,145.381166 974.5,129.439462 992,129.439462 C1010.2,129.439462 1018.6,146.089686 1018.6,161.32287 M992,122 C971.7,122 957,138.650224 957,161.32287 C957,184.349776 971.7,201 992,201 C1012.3,201 1027,184.349776 1027,161.32287 C1027,138.650224 1012.3,122 992,122" id="Fill-17"></path>
                <path d="M1068,122 C1059.30435,122 1050.26087,126.944954 1044,132.243119 L1044,123.766055 L1036,123.766055 L1036,199 L1044,199 L1044,141.779817 C1048.52174,135.775229 1057.91304,129.417431 1067.30435,129.417431 C1078.78261,129.417431 1084,134.715596 1084,147.077982 L1084,199 L1092,199 L1092,147.077982 C1092,130.123853 1084,122 1068,122" id="Fill-18"></path>
                <polygon id="Fill-19" points="360 110.42069 349.086735 96 291 96 291 198 358.943878 198 358.943878 183.57931 306.489796 183.57931 306.489796 152.97931 357.887755 152.97931 357.887755 138.558621 306.489796 138.558621 306.489796 110.42069"></polygon>
                <path d="M1106.45645,117.594145 L1107.89262,117.594145 C1108.60184,117.594145 1109.17143,117.410071 1109.6014,117.041916 C1110.03136,116.673762 1110.24634,116.205813 1110.24634,115.638057 C1110.24634,114.972718 1110.05574,114.495899 1109.67453,114.207585 C1109.29333,113.919271 1108.6905,113.775116 1107.86602,113.775116 L1106.45645,113.775116 L1106.45645,117.594145 Z M1112.22773,115.58483 C1112.22773,116.294526 1112.03934,116.922153 1111.66257,117.467731 C1111.28579,118.013309 1110.7561,118.41916 1110.07347,118.685296 L1113.23836,123.94145 L1111.00432,123.94145 L1108.25166,119.230872 L1106.45645,119.230872 L1106.45645,123.94145 L1104.48836,123.94145 L1104.48836,112.085163 L1107.95911,112.085163 C1109.43075,112.085163 1110.51008,112.373472 1111.19714,112.9501 C1111.8842,113.526727 1112.22773,114.404962 1112.22773,115.58483 Z M1097.17188,118.007319 C1097.17188,116.055657 1097.65946,114.226001 1098.63464,112.518297 C1099.60982,110.810592 1100.95068,109.463966 1102.65725,108.478377 C1104.36382,107.492787 1106.20201,107 1108.17188,107 C1110.12224,107 1111.95068,107.487908 1113.65725,108.463739 C1115.36382,109.43957 1116.70955,110.781318 1117.69448,112.489022 C1118.67942,114.196726 1119.17188,116.03614 1119.17188,118.007319 C1119.17188,119.929706 1118.69892,121.734966 1117.75299,123.423154 C1116.80707,125.111341 1115.48084,126.462847 1113.77427,127.477711 C1112.0677,128.492575 1110.20025,129 1108.17188,129 C1106.15325,129 1104.29068,128.495015 1102.58411,127.48503 C1100.87754,126.475045 1099.54887,125.125979 1098.59807,123.437791 C1097.64727,121.749603 1097.17188,119.939464 1097.17188,118.007319 Z M1099.56815,118.006653 C1099.56815,119.541369 1099.95379,120.976263 1100.72507,122.311377 C1101.49635,123.646491 1102.54908,124.697712 1103.88331,125.46507 C1105.21754,126.232428 1106.64704,126.616101 1108.17188,126.616101 C1109.71444,126.616101 1111.14616,126.23021 1112.46709,125.458417 C1113.78802,124.686623 1114.83632,123.642056 1115.61203,122.324684 C1116.38775,121.007312 1116.7756,119.567983 1116.7756,118.006653 C1116.7756,116.463066 1116.38996,115.03039 1115.61868,113.708583 C1114.8474,112.386775 1113.80353,111.337773 1112.48703,110.561544 C1111.17054,109.785314 1109.73217,109.397206 1108.17188,109.397206 C1106.62931,109.397206 1105.19759,109.783097 1103.87666,110.55489 C1102.55573,111.326684 1101.50743,112.371251 1100.73172,113.688623 C1099.956,115.005995 1099.56815,116.445324 1099.56815,118.006653 Z" id="®"></path>
            </g>
        </g>
    </g>
</svg>