<?xml version="1.0" encoding="UTF-8" standalone="no"?>
<svg width="457px" height="93px" viewBox="0 0 457 93" version="1.1"
    xmlns="http://www.w3.org/2000/svg"
    xmlns:xlink="http://www.w3.org/1999/xlink">
    <!-- Generator: Sketch 41.2 (35397) - http://www.bohemiancoding.com/sketch -->
    <title>pay-logos</title>
    <desc>Created with Sketch.</desc>
    <defs></defs>
    <g id="Page-1" stroke="none" stroke-width="1" fill="none" fill-rule="evenodd">
        <g id="pay-logos">
            <g id="Group" transform="translate(3.000000, 0.000000)">
                <g transform="translate(0.000000, 7.000000)" id="Shape" fill="#FFFFFF">
                    <polygon points="27.8 24 34 24 37.9 1.2 31.7 1.2"></polygon>
                    <path d="M50.4,10.4 C48.2,9.3 46.9,8.6 46.9,7.6 C46.9,6.7 48,5.6 50.5,5.6 C52.1,5.6 53.7,5.9 55.2,6.5 L55.8,6.8 L56.6,1.9 C54.8,1.3 52.9,0.9 51,0.9 C44.9,0.9 40.5,4 40.5,8.4 C40.5,11.7 43.6,13.5 45.9,14.6 C48.3,15.7 49.1,16.4 49.1,17.4 C49.1,18.9 47.2,19.6 45.4,19.6 C43.4,19.7 41.4,19.3 39.5,18.4 L38.7,18 L37.8,23.1 C40,23.9 42.4,24.3 44.7,24.3 C51.2,24.3 55.5,21.2 55.5,16.5 C55.7,14 54,12 50.4,10.4 Z"></path>
                    <path d="M72.5,1.3 L67.7,1.3 C66.2,1.3 65.1,1.7 64.4,3.2 L55.2,24.1 L61.7,24.1 C61.7,24.1 62.8,21.3 63,20.7 L71,20.7 C71.2,21.5 71.8,24.1 71.8,24.1 L77.6,24.1 L72.5,1.3 Z M64.8,16 C65.3,14.7 67.3,9.6 67.3,9.6 C67.3,9.6 67.8,8.3 68.1,7.4 L68.5,9.4 L70,16 L64.8,16 Z"></path>
                    <path d="M22.6,1.3 L16.5,16.9 L15.9,13.7 L13.7,3.2 C13.3,1.8 12.3,1.3 10.9,1.3 L0.9,1.3 L0.8,1.7 C3.1,2.2 5.3,3.1 7.3,4.2 L12.8,24 L19.4,24 L29.2,1.2 L22.6,1.2 L22.6,1.3 Z"></path>
                </g>
                <g transform="translate(383.000000, 9.000000)" fill="#B73B8E">
                    <path d="M16.3,7.3 L16.3,2.4 C14,1.6 11.5,1.2 9.1,1.2 C6.9,1.1 4.7,1.7 3,3 C1.6,4.2 0.8,6 0.7,7.8 C0.7,7.8 0.2,12.9 6.9,14.1 L8.8,14.3 C9.3,14.3 9.8,14.5 10.2,14.8 C10.5,15.1 10.6,15.5 10.7,15.9 C10.7,16.3 10.5,16.7 10.3,17 C9.4,17.7 8.3,18.1 7.2,17.9 C5.8,17.9 4.4,17.7 3,17.3 C3,17.3 2,17 1.1,16.7 L1.1,21.6 C3.4,22.2 5.8,22.5 8.3,22.4 C10.5,22.5 12.6,21.9 14.5,20.7 C15.8,19.9 16.7,18.5 17,17 C17.4,15.3 17,13.6 16.1,12.1 C14.8,10.7 13.2,9.7 11.3,9.2 C10.7,9.1 10.1,9 9.5,8.9 L8.5,8.9 C7.7,8.9 6.9,8.4 6.7,7.6 C6.6,6.8 7.1,6 7.9,5.8 C9.1,5.5 10.4,5.4 11.7,5.6 C13.2,6.1 14.8,6.6 16.3,7.3 Z" id="Shape"></path>
                    <path d="M18.4,22.3 L18.4,2.4 L24.1,1.3 L24.1,12.3 C25.4,10.7 26.5,8.9 27.2,6.9 L33.7,6.9 C32.8,9.6 31.5,12.2 29.7,14.4 C31.2,16.9 32.4,19.5 33.3,22.3 L26.6,22.3 C26.1,20.1 25.3,18.1 24.2,16.2 L24.2,22.3 L18.4,22.3 L18.4,22.3 Z" id="Shape"></path>
                    <path d="M40,22.3 L40,14.4 C39.9,13.5 40.2,12.6 40.8,11.9 C41.5,11.5 42.3,11.2 43.1,11.2 L43.6,11.2 L43.6,6.8 C43.2,6.7 42.9,6.7 42.5,6.7 C41,6.7 39.5,7 38.1,7.5 C37,7.9 36,8.7 35.4,9.7 C34.8,10.7 34.5,11.8 34.5,12.9 L34.5,22.3 L40,22.3 L40,22.3 Z" id="Shape"></path>
                    <rect id="Rectangle-path" x="45.2" y="6.9" width="5.5" height="15.4"></rect>
                    <circle id="Oval" cx="47.9" cy="2.8" r="2.7"></circle>
                    <polygon id="Shape" points="58.5 22.3 58.5 1.3 53 2.3 53 22.3"></polygon>
                    <polygon id="Shape" points="66.5 22.3 66.5 1.3 61 2.3 61 22.3"></polygon>
                </g>
                <g transform="translate(175.495875, 5.000000)" id="Shape">
                    <path d="M9.8,0.6 L21.5,0.6 C23.1,0.6 24.2,1.9 23.8,3.6 L18.3,27.1 C17.9,28.7 16.3,30.1 14.6,30.1 L2.9,30.1 C1.3,30.1 0.2,28.8 0.6,27.1 L6.1,3.6 C6.5,2 8.2,0.6 9.8,0.6 Z" fill="#DD052B"></path>
                    <path d="M20.6,0.6 L34.1,0.6 C35.7,0.6 35,1.9 34.6,3.6 L29.1,27.1 C28.7,28.7 28.8,30.1 27.2,30.1 L13.7,30.1 C12.1,30.1 11,28.8 11.4,27.1 L16.9,3.6 C17.3,2 18.9,0.6 20.6,0.6 Z" fill="#004379"></path>
                    <path d="M33.5,0.6 L45.2,0.6 C46.8,0.6 47.9,1.9 47.5,3.6 L42,27.1 C41.6,28.7 40,30.1 38.3,30.1 L26.6,30.1 C25,30.1 23.9,28.8 24.3,27.1 L29.8,3.6 C30.2,2 31.9,0.6 33.5,0.6 Z" fill="#007482"></path>
                    <path d="M31.6,22.7 L32.7,22.7 L33,21.6 L31.9,21.6 L31.6,22.7 Z M32.4,19.8 L32,21.1 C32,21.1 32.4,20.9 32.6,20.8 C32.8,20.7 33.2,20.7 33.2,20.7 L33.5,19.8 L32.4,19.8 L32.4,19.8 Z M33,18 L32.6,19.2 C32.6,19.2 33,19 33.2,19 C33.4,18.9 33.8,18.9 33.8,18.9 L34.1,18 L33,18 L33,18 Z M35.4,18 L34,22.7 L34.4,22.7 L34.1,23.7 L33.7,23.7 L33.6,24 L32.2,24 L32.3,23.7 L29.5,23.7 L29.8,22.8 L30.1,22.8 L31.6,18 L31.9,17 L33.3,17 L33.2,17.5 C33.2,17.5 33.6,17.2 33.9,17.1 C34.2,17 36.3,17 36.3,17 L36,18 L35.4,18 L35.4,18 Z" fill="#FFFFFF"></path>
                    <path d="M36.1,17 L37.6,17 L37.6,17.6 C37.6,17.7 37.7,17.7 37.8,17.7 L38.1,17.7 L37.8,18.6 L37,18.6 C36.3,18.6 36,18.4 36.1,18 L36.1,17 Z" fill="#FFFFFF"></path>
                    <path d="M36.3,21.3 L34.9,21.3 L35.1,20.5 L36.7,20.5 L36.9,19.8 L35.3,19.8 L35.6,18.9 L40,18.9 L39.7,19.8 L38.2,19.8 L38,20.5 L39.5,20.5 L39.3,21.3 L37.7,21.3 L37.4,21.6 L38.1,21.6 L38.3,22.6 C38.3,22.7 38.3,22.8 38.4,22.8 C38.4,22.8 38.6,22.9 38.7,22.9 L38.9,22.9 L38.6,23.9 L38,23.9 L37.6,23.9 C37.5,23.9 37.3,23.8 37.2,23.7 C37.1,23.7 37,23.5 36.9,23.4 L36.7,22.4 L36,23.4 C35.8,23.7 35.5,24 34.9,24 L33.9,24 L34.2,23.1 L34.6,23.1 C34.7,23.1 34.8,23.1 34.9,23 C35,23 35,22.9 35.1,22.8 L36.3,21.3 Z" fill="#FFFFFF"></path>
                    <path d="M20.8,19.1 L24.5,19.1 L24.2,20 L22.7,20 L22.5,20.8 L24,20.8 L23.7,21.7 L22.2,21.7 L21.8,22.9 C21.8,23 22.2,23.1 22.3,23.1 L23.1,23 L22.8,24 L21.1,24 C21,24 20.9,24 20.7,23.9 C20.6,23.9 20.5,23.8 20.4,23.7 C20.3,23.6 20.2,23.5 20.3,23.3 L20.8,21.7 L20,21.7 L20.3,20.8 L21.2,20.8 L21.4,20 L20.5,20 L20.8,19.1 Z" fill="#FFFFFF"></path>
                    <path d="M23.3,17.5 L24.8,17.5 L24.5,18.4 L22.4,18.4 L22.2,18.6 C22.1,18.7 22.1,18.7 21.9,18.7 C21.8,18.8 21.5,18.9 21.2,18.9 L20.5,18.9 L20.8,18 L21,18 C21.2,18 21.3,18 21.3,17.9 C21.4,17.9 21.4,17.8 21.5,17.6 L22,17 L23.5,17 L23.3,17.5 Z" fill="#FFFFFF"></path>
                    <path d="M26.2,19 C26.2,19 26.6,18.6 27.3,18.5 L28.5,18.5 L28.7,18 L26.5,18 L26.2,19 Z M28.3,19.4 L26.2,19.4 L26.1,19.8 L28,19.8 L28.3,19.8 L28.3,19.4 L28.3,19.4 Z M25.5,17 L26.8,17 L26.6,17.7 C26.6,17.7 27,17.4 27.3,17.3 C27.6,17.2 28.2,17.1 28.2,17.1 L30.3,17.1 L29.6,19.5 C29.5,19.9 29.3,20.2 29.2,20.3 C29.1,20.4 29,20.5 28.8,20.6 C28.6,20.7 28.5,20.7 28.3,20.8 L27.6,20.8 L25.6,20.8 L25,22.7 C24.9,22.9 24.9,23 25,23 C25,23 25.1,23.1 25.2,23.1 L26.1,23 L25.8,24 L24.8,24 L24.1,24 C23.9,24 23.8,24 23.7,23.9 C23.6,23.8 23.5,23.7 23.5,23.6 C23.5,23.5 23.6,23.3 23.6,23.1 L25.5,17 L25.5,17 Z" fill="#FFFFFF"></path>
                    <path d="M29.3,20.9 L29.2,21.5 C29.1,21.7 29.1,21.8 29,21.9 C28.9,22 28.7,22.1 28.3,22.1 L27.6,22.1 L27.6,22.8 C27.6,23 27.6,23 27.7,23 C27.7,23 27.8,23 27.8,23.1 L28,23.1 L28.7,23.1 L28.4,24.1 L27.6,24.1 C27,24.1 26.6,24.1 26.5,24 C26.4,23.9 26.3,23.8 26.4,23.6 L26.5,21.1 L27.8,21.1 L27.8,21.6 L28.1,21.6 L28.3,21.6 L28.4,21.5 L28.5,21.1 L29.3,20.9 L29.3,20.9 Z" fill="#FFFFFF"></path>
                    <path d="M11.2,8.1 C11.2,8.3 10.3,12.1 10.3,12.1 C10.1,12.9 10,13.4 9.6,13.8 C9.4,14 9.1,14.1 8.7,14.1 C8.2,14.1 7.9,13.8 7.8,13.3 L7.8,13.1 L8,12.1 C8,12.1 8.9,8.7 9,8.2 C9,8.2 9,8.2 9,8.1 L7,8.1 L6.9,8.3 L6,12.2 L5.9,12.5 L5.8,13.6 C5.8,13.9 5.9,14.2 6,14.4 C6.4,15.1 7.5,15.2 8.2,15.2 C9,15.2 9.8,15 10.3,14.7 C11.2,14.2 11.4,13.3 11.7,12.6 L11.8,12.2 C11.8,12.2 12.7,8.6 12.8,8.2 C12.8,8.2 12.8,8.2 12.8,8.1 C11.7,8.2 11.3,8.2 11.2,8.1 Z" fill="#FFFFFF"></path>
                    <path d="M16.1,15.2 L14.6,15.2 L14.6,15.1 C14.7,14.8 14.7,14.6 14.8,14.3 L14.9,13.9 C15,13.3 15.2,12.7 15.2,12.5 C15.2,12.4 15.3,12.1 14.9,12.1 C14.8,12.1 14.6,12.2 14.5,12.2 C14.4,12.5 14.2,13.3 14.2,13.7 C14,14.5 14,14.6 13.9,15 L13.9,15.1 L12.4,15.1 L12.4,15 C12.5,14.5 12.6,14 12.7,13.6 C13,12.3 13.1,11.8 13.1,11.2 L13.2,11.2 C13.9,11.1 14,11.1 14.8,10.9 L14.9,11 L14.8,11.4 C14.9,11.3 15,11.3 15.2,11.2 C15.5,11 15.9,11 16.1,11 C16.4,11 16.8,11.1 16.9,11.5 C17,11.8 16.9,12.2 16.8,13.1 L16.7,13.5 C16.3,14.4 16.2,14.5 16.1,15.2 L16.1,15.2 Z" fill="#FFFFFF"></path>
                    <path d="M18.5,15.2 L17.7,15.2 L16.9,15.2 L16.9,15.2 L16.9,15.2 C17,14.9 17,14.7 17.1,14.6 C17.1,14.5 17.2,14.4 17.3,14 C17.4,13.5 17.5,13.2 17.5,13 C17.5,12.7 17.6,12.5 17.6,12.2 L17.6,12.2 L17.6,12.2 C18,12.2 18.2,12.1 18.4,12.1 C18.6,12.1 18.9,12 19.2,12 L19.2,12 L19.2,12 C19.1,12.3 19.1,12.6 19,12.8 C18.9,13.1 18.9,13.4 18.8,13.6 C18.7,14.2 18.6,14.4 18.6,14.6 C18.6,14.8 18.6,14.8 18.5,15.2 L18.5,15.2 L18.5,15.2 Z" fill="#FFFFFF"></path>
                    <path d="M22.2,13.1 C22.2,13.3 22,13.8 21.9,14.1 C21.8,14.3 21.6,14.4 21.5,14.4 C21.5,14.4 21.2,14.4 21.2,14 C21.2,13.8 21.2,13.6 21.3,13.3 C21.5,12.6 21.6,12 22.1,12 C22.3,12 22.4,12.4 22.2,13.1 Z M23.8,13.2 C24,12.3 23.8,11.9 23.6,11.6 C23.3,11.2 22.7,11.1 22.2,11.1 C21.9,11.1 21.1,11.1 20.4,11.7 C19.9,12.1 19.7,12.7 19.6,13.2 C19.5,13.8 19.3,14.8 20.2,15.1 C20.5,15.2 20.9,15.3 21.2,15.3 C21.9,15.3 22.6,15.1 23.1,14.6 C23.5,14.1 23.7,13.4 23.8,13.2 L23.8,13.2 Z" fill="#FFFFFF"></path>
                    <path d="M38.2,15.3 L36.6,15.3 L36.6,15.2 C36.8,14.5 37,13.8 37.1,13.2 C37.3,12.3 37.4,11.9 37.4,11.4 L37.5,11.4 C38.2,11.3 38.4,11.3 39.1,11.1 L39.1,11.2 C39,11.8 38.8,12.3 38.7,12.9 C38.5,14 38.4,14.6 38.2,15.3 L38.2,15.3 Z" fill="#FFFFFF"></path>
                    <path d="M37.1,13.2 C37.1,13.3 36.9,13.9 36.7,14.2 C36.6,14.4 36.3,14.5 36.1,14.5 C36.1,14.5 35.8,14.5 35.8,14.1 C35.8,13.9 35.8,13.7 35.9,13.4 C36.1,12.7 36.2,12.2 36.7,12.2 C37.1,12.1 37.3,12.5 37.1,13.2 Z M38.5,13.2 C38.7,12.3 37.9,13.1 37.7,12.8 C37.5,12.3 37.6,11.4 36.8,11.1 C36.5,11 35.7,11.1 35.1,11.7 C34.7,12.1 34.4,12.7 34.3,13.2 C34.2,13.7 34,14.7 34.9,15.1 C35.2,15.2 35.5,15.3 35.7,15.2 C36.6,15.2 37.3,13.8 37.8,13.2 C38.4,12.9 38.5,13.5 38.5,13.2 L38.5,13.2 Z" fill="#FFFFFF"></path>
                    <path d="M27.8,15.2 L26.3,15.2 L26.3,15.1 C26.4,14.8 26.4,14.6 26.5,14.3 L26.6,13.9 C26.7,13.3 26.9,12.7 26.9,12.5 C26.9,12.4 27,12.1 26.6,12.1 C26.5,12.1 26.3,12.2 26.2,12.2 C26.1,12.5 25.9,13.3 25.9,13.7 C25.7,14.5 25.7,14.6 25.6,15 L25.5,15.1 L24,15.1 L24,15 C24.1,14.5 24.2,14 24.3,13.6 C24.6,12.3 24.7,11.8 24.7,11.2 L24.8,11.2 C25.5,11.1 25.7,11.1 26.4,10.9 L26.5,11 L26.4,11.4 C26.5,11.3 26.6,11.3 26.8,11.2 C27.1,11 27.5,11 27.7,11 C28,11 28.4,11.1 28.5,11.5 C28.6,11.8 28.5,12.2 28.4,13.1 L28.3,13.5 C28,14.4 28,14.5 27.8,15.2 L27.8,15.2 Z" fill="#FFFFFF"></path>
                    <path d="M32.9,8.1 L32.4,8.1 L30.4,8.1 C30.4,8.2 30.3,8.4 30.3,8.4 L29.8,10.5 C29.8,10.5 28.7,15 28.7,15.2 L30.5,15.2 C30.5,15 30.8,13.7 30.8,13.7 C30.8,13.7 31,12.8 31,12.7 L31.1,12.6 L31.2,12.6 C32.2,12.6 33.2,12.6 34.1,12 C34.7,11.6 35.1,10.9 35.3,10.2 C35.3,10 35.4,9.8 35.4,9.6 C35.4,9.3 35.3,9 35.2,8.8 C34.8,8.1 33.9,8.1 32.9,8.1 Z M33.5,10.3 C33.4,10.8 33.1,11.2 32.7,11.4 C32.4,11.6 32,11.6 31.6,11.6 L31.3,11.6 L31.3,11.5 L31.8,9.4 L31.8,9.3 L31.8,9.2 L32,9.2 L33,9.3 C33.5,9.4 33.7,9.8 33.5,10.3 L33.5,10.3 Z" fill="#FFFFFF"></path>
                    <path d="M44,11.1 L44,11.1 C43.2,11.2 43.1,11.2 42.4,11.3 L42.4,11.3 L42.4,11.3 L42.4,11.3 C41.9,12.5 41.9,12.2 41.5,13.1 L41.5,13 L41.4,11 L41.3,10.9 C40.5,11 40.5,11.1 39.8,11.2 L39.7,11.2 C39.7,11.2 39.7,11.2 39.7,11.3 L39.7,11.3 C39.8,11.8 39.8,11.6 39.9,12.4 C39.9,12.7 40,13.1 40,13.4 C40.1,14 40.1,14.3 40.2,15.1 C39.7,15.9 39.6,16.2 39.2,16.9 L39.2,17 L40.6,17 L40.7,16.9 C41.1,16.1 44,11.1 44,11.1 Z" fill="#FFFFFF"></path>
                    <path d="M19.1,11.6 C19.5,11.3 19.5,11 19.2,10.8 C18.9,10.6 18.3,10.7 17.9,10.9 C17.5,11.2 17.5,11.5 17.8,11.7 C18.1,11.9 18.7,11.8 19.1,11.6 Z" fill="#FFFFFF"></path>
                    <path d="M40.7,17 L40.1,18 C39.9,18.3 39.6,18.6 39,18.6 L38.1,18.6 L38.4,17.7 L38.6,17.7 L38.8,17.7 L38.9,17.6 L39.2,17.1 L40.7,17 L40.7,17 Z" fill="#FFFFFF"></path>
                </g>
                <g id="mc_acc" transform="translate(100.247938, 0.000000)">
                    <g id="Group">
                        <g>
                            <path d="M9.58241758,39.6923077 L9.58241758,37.0549451 C9.58241758,36.043956 8.96703297,35.3846154 7.95604396,35.3846154 C7.42857143,35.3846154 6.85714286,35.5604396 6.46153846,36.1318681 C6.15384615,35.6483516 5.71428571,35.3846154 5.05494505,35.3846154 C4.61538462,35.3846154 4.13186813,35.5164835 3.78021978,36 L3.78021978,35.4725275 L2.94505495,35.4725275 L2.94505495,39.6923077 L3.78021978,39.6923077 L3.78021978,37.2747253 C3.78021978,36.5274725 4.21978022,36.1758242 4.83516484,36.1758242 C5.45054945,36.1758242 5.8021978,36.5714286 5.8021978,37.2747253 L5.8021978,39.6923077 L6.63736264,39.6923077 L6.63736264,37.2747253 C6.63736264,36.5274725 7.07692308,36.1758242 7.69230769,36.1758242 C8.30769231,36.1758242 8.65934066,36.5714286 8.65934066,37.2747253 L8.65934066,39.6923077 L9.58241758,39.6923077 Z M23.2967033,35.5164835 L21.7582418,35.5164835 L21.7582418,34.2417582 L20.9230769,34.2417582 L20.9230769,35.5164835 L20.043956,35.5164835 L20.043956,36.2637363 L20.9230769,36.2637363 L20.9230769,38.2417582 C20.9230769,39.2087912 21.2747253,39.7802198 22.3296703,39.7802198 C22.7252747,39.7802198 23.1648352,39.6483516 23.4725275,39.4725275 L23.2087912,38.7252747 C22.9450549,38.9010989 22.6373626,38.9450549 22.4175824,38.9450549 C21.978022,38.9450549 21.7582418,38.6813187 21.7582418,38.2417582 L21.7582418,36.2197802 L23.2967033,36.2197802 L23.2967033,35.5164835 Z M31.1208791,35.3846154 C30.5934066,35.3846154 30.1978022,35.6483516 29.978022,36 L29.978022,35.4725275 L29.1428571,35.4725275 L29.1428571,39.6923077 L29.978022,39.6923077 L29.978022,37.3186813 C29.978022,36.6153846 30.3296703,36.1758242 30.9010989,36.1758242 C31.0769231,36.1758242 31.2967033,36.2197802 31.4725275,36.2637363 L31.7362637,35.4725275 C31.5604396,35.4285714 31.2967033,35.3846154 31.1208791,35.3846154 L31.1208791,35.3846154 Z M19.2967033,35.8241758 C18.8571429,35.5164835 18.2417582,35.3846154 17.5824176,35.3846154 C16.5274725,35.3846154 15.8681319,35.8681319 15.8681319,36.7032967 C15.8681319,37.4065934 16.3516484,37.8021978 17.2747253,37.9340659 L17.7142857,37.978022 C18.1978022,38.0659341 18.5054945,38.2417582 18.5054945,38.4615385 C18.5054945,38.7692308 18.1538462,38.989011 17.4945055,38.989011 C16.8351648,38.989011 16.3956044,38.7692308 16.0879121,38.5494505 L15.6483516,39.2087912 C16.2637363,39.6483516 17.010989,39.7362637 17.4505495,39.7362637 C18.6813187,39.7362637 19.3406593,39.1648352 19.3406593,38.3736264 C19.3406593,37.6263736 18.8131868,37.2747253 17.8901099,37.1428571 L17.4505495,37.0989011 C17.0549451,37.0549451 16.7032967,36.9230769 16.7032967,36.6593407 C16.7032967,36.3516484 17.0549451,36.1318681 17.5384615,36.1318681 C18.0659341,36.1318681 18.5934066,36.3516484 18.8571429,36.4835165 L19.2967033,35.8241758 Z M32.043956,37.5824176 C32.043956,38.8571429 32.8791209,39.7802198 34.2417582,39.7802198 C34.8571429,39.7802198 35.2967033,39.6483516 35.7362637,39.2967033 L35.2967033,38.6373626 C34.9450549,38.9010989 34.5934066,39.032967 34.1978022,39.032967 C33.4505495,39.032967 32.8791209,38.4615385 32.8791209,37.6263736 C32.8791209,36.7912088 33.4505495,36.2197802 34.1978022,36.2197802 C34.5934066,36.2197802 34.9450549,36.3516484 35.2967033,36.6153846 L35.7362637,35.956044 C35.2967033,35.6043956 34.8571429,35.4725275 34.2417582,35.4725275 C32.9230769,35.3846154 32.043956,36.3076923 32.043956,37.5824176 L32.043956,37.5824176 Z M26.1538462,35.3846154 C24.9230769,35.3846154 24.0879121,36.2637363 24.0879121,37.5824176 C24.0879121,38.9010989 24.967033,39.7802198 26.2417582,39.7802198 C26.8571429,39.7802198 27.4725275,39.6043956 27.956044,39.2087912 L27.5164835,38.5934066 C27.1648352,38.8571429 26.7252747,39.032967 26.2857143,39.032967 C25.7142857,39.032967 25.0989011,38.6813187 25.010989,37.9340659 L28.1318681,37.9340659 L28.1318681,37.5824176 C28.1318681,36.2637363 27.3406593,35.3846154 26.1538462,35.3846154 L26.1538462,35.3846154 Z M26.1098901,36.1758242 C26.7252747,36.1758242 27.1648352,36.5714286 27.2087912,37.2307692 L24.9230769,37.2307692 C25.0549451,36.6153846 25.4505495,36.1758242 26.1098901,36.1758242 L26.1098901,36.1758242 Z M14.7252747,37.5824176 L14.7252747,35.4725275 L13.8901099,35.4725275 L13.8901099,36 C13.5824176,35.6043956 13.1428571,35.3846154 12.5274725,35.3846154 C11.3406593,35.3846154 10.4615385,36.3076923 10.4615385,37.5824176 C10.4615385,38.8571429 11.3406593,39.7802198 12.5274725,39.7802198 C13.1428571,39.7802198 13.5824176,39.5604396 13.8901099,39.1648352 L13.8901099,39.6923077 L14.7252747,39.6923077 L14.7252747,37.5824176 Z M11.3406593,37.5824176 C11.3406593,36.7912088 11.8241758,36.1758242 12.6593407,36.1758242 C13.4505495,36.1758242 13.9340659,36.7912088 13.9340659,37.5824176 C13.9340659,38.4175824 13.4065934,38.989011 12.6593407,38.989011 C11.8241758,39.032967 11.3406593,38.3736264 11.3406593,37.5824176 L11.3406593,37.5824176 Z M43.8241758,35.3846154 C43.2967033,35.3846154 42.9010989,35.6483516 42.6813187,36 L42.6813187,35.4725275 L41.8461538,35.4725275 L41.8461538,39.6923077 L42.6813187,39.6923077 L42.6813187,37.3186813 C42.6813187,36.6153846 43.032967,36.1758242 43.6043956,36.1758242 C43.7802198,36.1758242 44,36.2197802 44.1758242,36.2637363 L44.4395604,35.4725275 C44.2637363,35.4285714 44,35.3846154 43.8241758,35.3846154 L43.8241758,35.3846154 Z M40.5714286,37.5824176 L40.5714286,35.4725275 L39.7362637,35.4725275 L39.7362637,36 C39.4285714,35.6043956 38.989011,35.3846154 38.3736264,35.3846154 C37.1868132,35.3846154 36.3076923,36.3076923 36.3076923,37.5824176 C36.3076923,38.8571429 37.1868132,39.7802198 38.3736264,39.7802198 C38.989011,39.7802198 39.4285714,39.5604396 39.7362637,39.1648352 L39.7362637,39.6923077 L40.5714286,39.6923077 L40.5714286,37.5824176 Z M37.1868132,37.5824176 C37.1868132,36.7912088 37.6703297,36.1758242 38.5054945,36.1758242 C39.2967033,36.1758242 39.7802198,36.7912088 39.7802198,37.5824176 C39.7802198,38.4175824 39.2527473,38.989011 38.5054945,38.989011 C37.6703297,39.032967 37.1868132,38.3736264 37.1868132,37.5824176 L37.1868132,37.5824176 Z M49.0549451,37.5824176 L49.0549451,33.8021978 L48.2197802,33.8021978 L48.2197802,36 C47.9120879,35.6043956 47.4725275,35.3846154 46.8571429,35.3846154 C45.6703297,35.3846154 44.7912088,36.3076923 44.7912088,37.5824176 C44.7912088,38.8571429 45.6703297,39.7802198 46.8571429,39.7802198 C47.4725275,39.7802198 47.9120879,39.5604396 48.2197802,39.1648352 L48.2197802,39.6923077 L49.0549451,39.6923077 L49.0549451,37.5824176 Z M45.6703297,37.5824176 C45.6703297,36.7912088 46.1538462,36.1758242 46.989011,36.1758242 C47.7802198,36.1758242 48.2637363,36.7912088 48.2637363,37.5824176 C48.2637363,38.4175824 47.7362637,38.989011 46.989011,38.989011 C46.1538462,39.032967 45.6703297,38.3736264 45.6703297,37.5824176 Z" id="XMLID_567_" fill="#FFFFFF"></path>
                            <g id="XMLID_328_">
                                <rect id="Rectangle-path" fill="#FF5F00" x="18.3296703" y="3.47252747" width="15.2527473" height="24.8791209"></rect>
                                <path d="M19.8681319,15.9120879 C19.8681319,10.8571429 22.2417582,6.37362637 25.8901099,3.47252747 C23.2087912,1.36263736 19.8241758,0.0879120879 16.1318681,0.0879120879 C7.38461538,0.0879120879 0.307692308,7.16483516 0.307692308,15.9120879 C0.307692308,24.6593407 7.38461538,31.7362637 16.1318681,31.7362637 C19.8241758,31.7362637 23.2087912,30.4615385 25.8901099,28.3516484 C22.2417582,25.4505495 19.8681319,20.967033 19.8681319,15.9120879 Z" id="XMLID_330_" fill="#EB001B"></path>
                                <path d="M51.5164835,15.9120879 C51.5164835,24.6593407 44.4395604,31.7362637 35.6923077,31.7362637 C32,31.7362637 28.6153846,30.4615385 25.9340659,28.3516484 C29.6263736,25.4505495 31.956044,20.967033 31.956044,15.9120879 C31.956044,10.8571429 29.5824176,6.37362637 25.9340659,3.47252747 C28.6153846,1.36263736 32,0.0879120879 35.6923077,0.0879120879 C44.4395604,0.0879120879 51.5164835,7.16483516 51.5164835,15.9120879 Z" id="Shape" fill="#F79E1B"></path>
                            </g>
                        </g>
                    </g>
                </g>
            </g>
            <g id="Group" transform="translate(0.000000, 63.000000)">
                <g transform="translate(132.000000, 2.000000)" id="Shape">
                    <path d="M17.8,18.9 L17.8,18.9 L17.8,18.9 L17.8,18.9 L17.8,18.9 L17.7,18.9 C17.6,18.9 17.4,18.9 17.2,19 C16.9,19.2 16.9,19.7 17.1,20 C17.2,20.1 17.4,20.3 17.5,20.3 L17.5,20.3 L17.5,20.3 L17.5,20.3 L17.5,20.3 L17.6,20.3 C17.7,20.3 17.9,20.3 18.1,20.2 C18.4,20 18.4,19.5 18.2,19.2 C18.2,19.1 18,19 17.8,18.9 M24.7,25.9 C24,24.5 22.7,23.4 21.4,22.6 C20.9,22.3 20.4,22.1 20,21.9 C19,21.6 17.9,21.4 16.7,21.2 C15.7,21 14.9,20.6 14.2,20.1 C13.7,19.8 13.4,19.4 13.1,19 C13,18.9 12.8,18.6 12.8,18.5 C12.8,18.5 12.6,19.3 13,20.3 C9.5,20.2 6.5,18.2 5,15.9 C2.4,11.5 3.3,6.3 6.8,3.9 C10.3,1.5 15.5,3.2 18.3,7.4 C20.1,10 20.5,13.1 19.7,15.6 L19.7,15.7 C18.2,14.6 16.8,15.2 16.8,15.2 C18.3,15.1 19.5,16.2 19.5,16.2 C19.7,16.3 19.8,16.5 20,16.7 L20.1,16.8 C20.5,17.3 20.8,17.9 20.8,18.6 C23.8,14.8 24.3,9.6 21.6,5.5 C18.3,0.3 11.1,-1 5.7,2.6 C0.2,6.1 -1.5,13.2 1.9,18.5 C4.6,22.7 11.1,24.1 14.8,22.9 C16.2,22.4 21,22.1 24.3,26 C24.3,26 24.6,26.3 24.8,26.7 C24.8,26.7 24.9,26.8 25,26.8 C24.9,26.6 25,26.6 24.7,25.9 M19.8,18.1 C20.1,18.2 20.2,18.6 20.3,18.8 C20.4,19.3 20.2,19.5 20.1,19.3 C20,19.2 19.8,18.9 19.6,18.5 C19.5,18.3 19.5,18 19.8,18.1" fill="#F59F00"></path>
                    <path d="M30.8,9.3 C29.6,9.3 28.9,8.3 28.9,6.8 C28.9,5.3 29.6,4.3 30.8,4.3 C32,4.3 32.7,5.3 32.7,6.8 C32.7,8.3 32,9.3 30.8,9.3 M34.1,6.7 C34.1,4.5 32.8,3.2 30.8,3.2 C28.8,3.2 27.5,4.6 27.5,6.8 C27.5,8.6 28.3,9.7 29.9,10.3 L33.7,11.7 L34,10.5 L32.2,9.9 C33.3,9.5 34.1,8.3 34.1,6.7" fill="#FFFFFF"></path>
                    <polygon fill="#FFFFFF" points="35.8 10.2 35.8 3.3 37.2 3.3 37.2 9 37.2 10.2"></polygon>
                    <polygon fill="#FFFFFF" points="46.2 10.2 45 10.2 43.4 5.2 41.9 10.2 40.7 10.2 38.7 3.5 40.1 3.3 41.4 8.2 42.8 3.3 44.2 3.3 45.7 8.2 46.9 3.3 48.3 3.3"></polygon>
                    <polygon fill="#FFFFFF" points="49.8 10.2 49.8 3.3 51.1 3.3 51.1 9 51.1 10.2"></polygon>
                    <polygon fill="#FFFFFF" points="35 21.3 33.8 21.3 32.2 16.2 30.7 21.3 29.5 21.3 27.5 14.5 28.9 14.2 30.2 19.3 31.6 14.4 33 14.4 34.4 19.3 35.7 14.4 37 14.4"></polygon>
                    <path d="M39.6,18.4 L40.5,15.7 L41.4,18.4 L39.6,18.4 Z M41.3,14.3 L39.9,14.3 L37.3,21.3 L38.6,21.3 L39.3,19.5 L41.9,19.5 L42.6,21.3 L43.9,21 L41.3,14.3 Z" fill="#FFFFFF"></path>
                    <polygon fill="#FFFFFF" points="45.3 21.3 45.3 14.4 46.6 14.4 46.6 20.1 49 20.1 49.1 21.3"></polygon>
                    <polygon fill="#FFFFFF" points="50.6 21.3 50.6 14.4 51.9 14.4 51.9 20.1 54.3 20.1 54.4 21.3"></polygon>
                    <polygon fill="#FFFFFF" points="55.9 21.3 55.9 14.4 60 14.4 60 15.5 57.2 15.5 57.2 17.1 59.3 17.1 59.5 18.2 57.2 18.2 57.2 20.2 60 20.2 60 21.3"></polygon>
                    <polygon fill="#FFFFFF" points="64.6 15.5 64.6 21.3 63.2 21.3 63.2 15.5 61.2 15.5 61.2 14.4 66.6 14.4 66.8 15.5"></polygon>
                </g>
                <g transform="translate(91.000000, 1.000000)" id="Shape" fill="#2C8CCC">
                    <path d="M13.9,0.9 C15.9,0.9 17.8,1.3 19.6,2.2 C19.9,2.3 20.1,2.5 20.4,2.6 L19.2,3.7 L17.4,1.8 L14.3,4.5 L12.5,2.5 L6.8,7.6 L10.4,11.6 L9,12.9 L12.6,16.9 L11.2,18.2 L16.3,23.9 L19.3,21.1 L21.9,24.1 C21.4,24.5 20.8,24.9 20.2,25.2 C13.9,28.8 5.9,26.6 2.4,20.3 C-1.2,14 1,6 7.3,2.5 C9.4,1.5 11.6,0.9 13.9,0.9 L13.9,0.9 L13.9,0.9 Z"></path>
                    <polygon points="11.5 13.2 14.6 10.4 17.4 13.5 14.3 16.3"></polygon>
                    <polygon points="13.7 18.6 16.8 15.8 19.6 18.9 16.5 21.7"></polygon>
                    <polygon points="9.3 7.9 12.4 5.1 15.2 8.2 12.1 11"></polygon>
                    <polygon points="15 6.4 17.3 4.3 19.4 6.6 17.1 8.7"></polygon>
                    <polygon points="19.1 16 21.5 13.9 23.6 16.2 21.2 18.3"></polygon>
                    <polygon points="21.2 20.7 23.5 18.6 25.6 20.9 23.3 23"></polygon>
                    <polygon points="22.1 9.9 23.7 8.5 25.1 10.1 23.5 11.5"></polygon>
                    <polygon points="20.1 5.3 21.7 3.9 23.1 5.4 21.5 6.8"></polygon>
                    <polygon points="24.1 14.5 25.7 13.1 27.1 14.7 25.5 16.1"></polygon>
                    <polygon points="17.1 11.1 19.5 9 21.6 11.3 19.2 13.4"></polygon>
                </g>
                <g transform="translate(0.000000, 6.000000)" id="Shape" fill="#2C8CCC">
                    <polygon points="7.1 5 7 5 4.7 13.7 2.8 13.7 0 1.4 2 1.4 4 10.6 4 10.6 6.3 1.4 7.8 1.4 10.2 10.6 10.3 10.6 12.1 1.4 14.1 1.4 11.3 13.8 9.5 13.8"></polygon>
                    <path d="M21.9,11.8 L21.9,13.1 C21,13.6 19.9,13.9 18.8,13.9 C15.9,13.9 14.7,12.1 14.7,9.3 C14.7,6.7 16,4.7 18.7,4.7 C20.9,4.7 22.2,6.1 22.2,9 L22.2,9.6 L16.5,9.6 C16.5,11.7 17.4,12.6 19.1,12.6 C20.1,12.7 21,12.4 21.9,11.8 Z M16.6,8.6 L20.6,8.6 C20.5,6.8 19.6,6 18.7,6 C17.6,6 16.7,6.8 16.6,8.6 Z"></path>
                    <path d="M25.6,5.5 C26.3,5.1 27.1,4.9 28,4.9 C30.2,4.9 31.3,6.4 31.3,9.2 C31.3,12.5 29.7,14 27.2,14 C26,14 24.9,13.7 23.8,13.1 L23.8,0.9 L25.6,0.5 L25.6,5.5 L25.6,5.5 Z M25.6,12.5 C26.1,12.7 26.7,12.8 27.2,12.8 C28.5,12.8 29.5,12 29.5,9.2 C29.5,7 28.7,6.3 27.5,6.3 C26.8,6.3 26.2,6.5 25.6,6.9 L25.6,12.5 L25.6,12.5 Z"></path>
                    <polygon points="39.2 11.1 39.2 11.1 43 1.4 45.2 1.4 45.2 13.8 43.3 13.8 43.3 4.8 43.1 4.8 39.5 13.8 38.4 13.8 34.9 5 34.7 5 34.7 13.8 33.1 13.8 33.1 1.4 35.2 1.4"></polygon>
                    <path d="M47.1,9.4 C47.1,6.3 48.8,4.8 51.1,4.8 C53.4,4.8 55.1,6.3 55.1,9.4 C55.1,12.4 53.5,14 51.1,14 C48.7,14 47.1,12.4 47.1,9.4 Z M53.2,9.4 C53.2,7 52.2,6.1 51,6.1 C49.8,6.1 48.8,7.1 48.8,9.4 C48.8,11.7 49.7,12.7 51,12.7 C52.3,12.7 53.2,11.8 53.2,9.4 L53.2,9.4 Z"></path>
                    <path d="M56.7,6.1 C58,5.3 59.6,4.8 61.1,4.8 C63.2,4.8 64,5.6 64,7.4 L64,13.7 L62.2,13.7 L62.2,7.8 C62.2,6.4 61.5,6.2 60.6,6.2 C59.9,6.2 59.1,6.4 58.5,6.8 L58.5,13.7 L56.7,13.7 L56.7,6.1 Z"></path>
                    <path d="M72.9,11.8 L72.9,13.1 C72,13.6 70.9,13.9 69.8,13.9 C66.9,13.9 65.7,12.1 65.7,9.3 C65.7,6.7 67,4.7 69.7,4.7 C71.9,4.7 73.2,6.1 73.2,9 L73.2,9.6 L67.5,9.6 C67.5,11.7 68.4,12.6 70.1,12.6 C71.1,12.7 71.9,12.4 72.9,11.8 Z M67.5,8.6 L71.5,8.6 C71.4,6.8 70.5,6 69.6,6 C68.5,6 67.7,6.8 67.5,8.6 L67.5,8.6 Z"></path>
                    <path d="M79.9,5.1 L81.8,5.1 L78.6,13.8 C77.7,16.2 76.7,17.5 74.7,17.5 L74.7,16.1 C75.9,16.1 76.6,15.2 77,13.9 L73.7,5.2 L75.6,5.2 L77.8,11.6 L77.9,11.6 L79.9,5.1 Z"></path>
                </g>
                <g transform="translate(258.000000, 0.000000)" id="Shape">
                    <polygon fill="#FFFFFF" points="57.8 11.7 57.8 20 56.4 20 56.4 10 58.3 10 60.8 16.3 63.3 10 65.1 10 65.1 20 63.8 20 63.8 11.7 61.2 18.2 60.4 18.2"></polygon>
                    <path d="M68,14.1 C68.3,13.8 69.1,13.2 70.5,13.2 C71.5,13.2 72.3,13.6 72.9,14.1 C73.5,14.7 73.9,15.7 73.9,16.7 C73.9,18 73.4,18.8 73,19.2 C72.2,20 71.3,20.2 70.5,20.2 C69.6,20.2 68.7,20 68,19.2 C67.6,18.7 67.1,17.9 67.1,16.7 C67,15.4 67.5,14.6 68,14.1 M68.9,14.8 C68.5,15.3 68.3,16 68.3,16.6 C68.3,17.2 68.5,17.9 68.9,18.4 C69.3,18.8 69.8,19 70.4,19 C71,19 71.5,18.8 71.9,18.4 C72.3,17.9 72.5,17.2 72.5,16.6 C72.5,16 72.3,15.3 71.9,14.8 C71.5,14.4 71,14.2 70.4,14.2 C69.8,14.2 69.3,14.4 68.9,14.8" fill="#FFFFFF"></path>
                    <path d="M76.6,13.3 L76.6,14.1 C76.7,14 77,13.7 77.4,13.4 C77.8,13.2 78.3,13.1 78.7,13.1 C79.1,13.1 79.8,13.1 80.3,13.7 C80.8,14.2 80.9,15 80.9,15.7 L80.9,20 L79.7,20 L79.7,15.7 C79.7,15.2 79.6,14.8 79.5,14.6 C79.4,14.4 79.1,14.2 78.6,14.2 C78.1,14.2 77.8,14.4 77.4,14.6 C77,14.9 76.8,15.2 76.6,15.4 L76.6,20 L75.4,20 L75.4,13.3 L76.6,13.3 Z" fill="#FFFFFF"></path>
                    <path d="M88.6,19.1 C88.1,19.7 87.3,20.2 86,20.2 C85.2,20.2 84.4,20.1 83.6,19.3 C83,18.7 82.6,17.8 82.6,16.7 C82.6,15 83.6,13.2 85.7,13.2 C88.1,13.2 88.7,15.4 88.7,16.9 L83.9,16.9 C83.9,18.3 84.9,19.1 85.9,19.1 C86.3,19.1 87,19 87.8,18.4 L88.6,19.1 Z M87.4,15.9 C87.3,14.8 86.5,14.2 85.8,14.2 C85,14.2 84.2,14.8 84.1,15.9 L87.4,15.9 Z" fill="#FFFFFF"></path>
                    <path d="M94.3,13.3 L95.6,13.3 L93.2,20.3 C92.7,21.7 92.3,22.2 92.2,22.4 C91.7,22.9 91,23 90.6,23 C90.3,23 90.1,23 89.9,22.9 L89.8,21.8 C89.9,21.8 90.1,21.9 90.4,21.9 C90.9,21.9 91.2,21.7 91.4,21.5 C91.6,21.3 91.8,21 92,20.3 L92.2,19.8 L89.5,13.4 L90.9,13.4 L92.9,18.1 L94.3,13.3 Z" fill="#FFFFFF"></path>
                    <path d="M100.2,0.6 L46.8,0.6 L46.8,29.4 L100.2,29.4 L108.5,15 L100.2,0.6 Z M98.4,26.8 L49.7,26.8 L49.7,3.2 L98.4,3.2 L105.2,14.9 L98.4,26.8 Z" fill="#FFCD00"></path>
                    <path d="M17.7,12.5 C16.8,12.5 15.8,13.2 15.8,13.2 L15.8,12.8 C15.8,12.7 15.8,12.7 15.7,12.7 L14.5,12.7 C14.4,12.7 14.3,12.8 14.3,12.8 L14.3,22 C14.3,22.1 14.3,22.2 14.4,22.2 L15.6,22.2 C15.7,22.2 15.7,22.1 15.7,22 L15.7,14.2 C15.7,14.2 16.3,13.9 16.9,13.9 C17.5,13.9 18,14.2 18,14.9 L18,22.1 C18,22.2 18.1,22.3 18.2,22.3 L19.4,22.3 C19.5,22.3 19.5,22.2 19.5,22.1 L19.5,14.5 C19.6,13.1 18.9,12.5 17.7,12.5" fill="#FFFFFF"></path>
                    <path d="M26.7,7.9 L25.5,7.9 C25.4,7.9 25.3,8 25.3,8 L25.3,12.6 C24.9,12.4 24.4,12.3 24.1,12.3 C22.2,12.3 20.9,14.1 20.9,17.6 C20.9,20.6 22.2,22.2 23.8,22.2 C24.5,22.2 25.1,21.8 25.5,21.4 L25.8,21.8 C25.8,21.9 25.9,21.9 26,21.9 L26.7,21.9 C26.8,21.9 26.8,21.8 26.8,21.7 L26.8,8.1 C26.9,8 26.8,7.9 26.7,7.9 M22.6,17.4 C22.6,15.5 23.2,13.6 24.3,13.6 C24.7,13.6 25.1,13.7 25.4,14 L25.4,20.8 C25.1,21 24.8,21.1 24.4,21.1 C23.1,21.1 22.6,19.6 22.6,17.4" fill="#FFFFFF"></path>
                    <path d="M31.2,12.4 C29.3,12.4 28.3,14.9 28.3,17.7 C28.3,20.6 29.7,22.2 31.4,22.2 C32.2,22.2 32.9,21.9 33.4,21.6 C33.5,21.6 33.5,21.5 33.5,21.4 L33.4,20.8 C33.4,20.7 33.3,20.7 33.3,20.7 C33.3,20.7 32.6,20.9 32,20.9 C30.6,20.9 29.9,19.6 29.9,17.9 L29.9,17.5 C29.9,17.5 30.6,17.6 31,17.6 L33.7,17.6 L33.7,16.8 C33.7,14 32.7,12.4 31.2,12.4 L31.2,12.4 Z M31.1,16.5 C30.7,16.5 29.9,16.6 29.9,16.6 L29.9,16 C30.1,14.4 30.4,13.6 31.1,13.6 C31.7,13.6 32.1,14.4 32.2,15.9 L32.2,16.5 L31.1,16.5 L31.1,16.5 Z" fill="#FFFFFF"></path>
                    <path d="M12.1,13.6 C11.7,12.7 10.9,12.4 10,12.4 C9.4,12.4 8.6,12.6 8,12.9 C7.9,13 7.8,13 7.8,13.1 C7.8,13.2 7.8,13.2 7.9,13.3 L8.3,14.2 C8.3,14.3 8.4,14.3 8.5,14.3 C8.6,14.3 8.6,14.3 8.7,14.2 C9.3,13.8 9.7,13.6 10,13.6 C10.4,13.6 10.7,13.9 10.9,14.3 C11.1,14.7 11.1,15.3 11.1,15.9 L11.1,16.1 C10.7,15.9 10.1,15.7 9.8,15.7 C8.1,15.7 7.2,17.3 7.2,19 C7.2,20.8 8.3,22.2 9.5,22.2 C10.2,22.2 10.9,21.8 11.3,21.3 C11.3,21.3 11.5,21.8 11.6,21.9 C11.6,22 11.7,22 11.7,22 L12.4,22 C12.5,22 12.5,21.9 12.5,21.8 L12.5,16.5 C12.5,15.3 12.5,14.3 12.1,13.6 L12.1,13.6 Z M11.1,20.6 C10.8,20.9 10.4,21.1 10,21.1 C9.6,21.1 9.4,20.9 9.1,20.6 C8.8,20.2 8.7,19.6 8.7,19 C8.7,18 9.1,16.9 9.9,16.9 C10.3,16.9 10.7,17 11.1,17.3 L11.1,20.6 Z" fill="#FFFFFF"></path>
                    <path d="M39.9,12.6 L38.9,12.6 C38.8,12.6 38.7,12.7 38.7,12.7 C38.6,12.9 38.2,14 38,14.5 C37.9,14.8 37.5,15.8 37.5,15.8 L37.5,15.8 C37.5,15.8 37.2,15.1 37.1,14.7 C37,14.4 36.4,12.9 36.3,12.7 C36.3,12.6 36.2,12.5 36.1,12.5 L35,12.5 C34.9,12.5 34.8,12.6 34.8,12.7 C34.8,12.8 36.7,16.9 36.7,16.9 C36.7,16.9 34.8,21.5 34.7,21.6 C34.6,21.7 34.7,21.9 34.9,21.9 L35.9,21.9 C36.1,21.9 36.1,21.8 36.2,21.7 C36.3,21.3 36.6,20.7 36.9,19.9 C37.1,19.3 37.4,18.3 37.4,18.3 L37.4,18.3 C37.4,18.3 37.7,19.3 37.9,19.7 C38.2,20.5 38.6,21.7 38.7,21.8 C38.7,21.9 38.8,22 38.9,22 L40,22 C40.1,22 40.2,21.9 40.1,21.8 C40,21.5 38.9,18.9 38.2,17.2 C38.2,17.2 40.1,12.9 40.2,12.8 C40.1,12.7 40,12.6 39.9,12.6" fill="#FFFFFF"></path>
                    <path d="M8.4,6.6 L7,6.6 C6.9,6.6 6.8,6.7 6.8,6.7 C6.8,6.8 4.8,12.7 4.7,13.2 C4.6,13.6 4.3,14.8 4.2,15.1 L3.5,13.2 C3.3,12.7 1.8,8.3 1.7,8.1 C1.7,8 1.6,7.9 1.5,7.9 L0.2,7.9 C0.1,7.9 0,8 0,8.1 C0,8.2 2.3,14.3 3.3,16.7 L3.3,21.9 C3.3,22 3.3,22.1 3.4,22.1 L4.6,22.1 C4.7,22.1 4.7,22 4.7,21.9 L4.7,17 L4.7,16.8 C5.5,14.6 8.3,6.9 8.4,6.8 C8.5,6.7 8.5,6.6 8.4,6.6" fill="#E21013"></path>
                </g>
                <circle id="Oval" fill="#F01010" cx="227" cy="15" r="14.7"></circle>
                <g transform="translate(216.000000, 10.000000)" id="Shape" fill="#FFFFFF">
                    <path d="M21.2,9.4 L21.2,9.7 L17.6,9.7 L17.6,9.2 L17.7,9.1 L18.4,9.1 C18.7,9.1 18.8,8.9 18.8,8.7 L18.8,7.1 L18.8,2.9 L18.8,2.2 L18.8,2.2 C18.8,2.3 18.7,2.3 18.7,2.4 C17.5,4.8 16.2,7.2 15.1,9.6 L15,9.7 L14.9,9.6 C13.6,7.1 12.4,4.7 11.1,2.2 C11.1,2.2 11.1,2.1 11,2.1 L11,2.2 L11,7.9 C11,8.2 11,8.5 11.1,8.8 C11.2,9.2 11.3,9.3 11.7,9.3 L12.5,9.3 L12.5,9.9 L8.9,9.9 L8.9,9.3 L9.4,9.3 L9.9,9.3 C10.2,9.2 10.4,9.1 10.4,8.8 C10.5,8.5 10.5,8.1 10.5,7.8 C10.5,6.2 10.6,4.7 10.6,3.2 L10.6,1.2 C10.6,0.9 10.5,0.8 10.2,0.8 L9.7,0.8 L9.7,0.3 L9.8,0.3 L11.6,0.3 C11.7,0.3 11.8,0.3 11.8,0.4 C13,2.9 14.2,5.3 15.3,7.8 L15.4,7.9 L15.5,7.8 C15.5,7.8 17.9,2.9 19,0.4 C19.1,0.3 19.1,0.2 19.2,0.2 L21.2,0.2 L21.4,0.2 L21.4,0.7 L21,0.7 C20.5,0.7 20.4,0.8 20.4,1.3 L20.4,7.2 L20.4,9 C20.4,9.3 20.5,9.4 20.8,9.4 L21.2,9.4 C21.1,9.4 21.1,9.4 21.2,9.4 Z"></path>
                    <path d="M0.8,4.9 C0.8,4.9 1.2,5 1.4,5 C2.3,5.1 3.3,5.2 4.2,5.2 C4.8,5.2 5.5,5.1 5.9,5 C6.3,4.9 7,4.6 7.4,4.1 C7.6,3.8 7.7,3.5 7.8,3.2 C7.9,2.8 7.9,2.4 7.8,2 C7.6,1.2 6.8,0.5 6,0.4 L4.7,0.4 L4.7,4.7 L3.4,4.7 L3.4,4.5 L3.4,1.1 L3.4,0.7 C3.4,0.5 3.3,0.4 3.1,0.4 L2.4,0.4 L2.2,0.4 L2.2,-2.84217094e-14 L2.3,-2.84217094e-14 L6.5,-2.84217094e-14 C7.7,-2.84217094e-14 8.8,1.1 9,2.2 C9.1,3 8.9,3.7 8.4,4.4 C8,4.9 7.1,5.3 6.8,5.3 C6.1,5.5 4.6,5.5 4.3,5.5 C4,5.5 2.7,5.5 1.9,5.3 L1,5 L0.8,4.9 L0.8,4.9 Z"></path>
                    <path d="M2.2,9.1 L2.8,9.1 C3.1,9.1 3.2,8.9 3.3,8.6 L3.3,8.3 L3.3,6 C3.3,5.9 3.3,5.9 3.4,5.9 L4.5,5.9 L4.5,6.1 L4.5,8.5 L4.5,8.8 C4.5,9 4.6,9.1 4.8,9.1 L5.5,9.1 L5.7,9.1 L5.7,9.7 L5.6,9.7 L2.3,9.7 C2.2,9.7 2.1,9.7 2.2,9.6 C2.2,9.4 2.2,9.2 2.2,9.1 Z"></path>
                </g>
            </g>
            <path d="M248.743813,30.2 C249.943813,23.6 251.143813,17 252.443813,10.4 L252.843813,10.4 L258.843813,10.4 C259.243813,10.4 259.343813,10.5 259.443813,10.9 C260.743813,14.6 262.143813,18.3 263.443813,21.9 C263.543813,22 263.543813,22.2 263.743813,22.3 C263.843813,21.6 264.043813,20.8 264.143813,20.1 C264.743813,17 265.243813,13.8 265.843813,10.7 C265.843813,10.4 266.043813,10.4 266.243813,10.4 L267.043813,10.4 L304.443813,10.4 L305.043813,10.4 C304.743813,11.9 304.543813,13.4 304.243813,14.9 L303.743813,14.9 L298.443813,14.9 C298.143813,14.9 297.943813,15 297.943813,15.3 C297.743813,16.3 297.543813,17.3 297.443813,18.3 L303.443813,18.3 C303.243813,19.6 302.943813,20.9 302.743813,22.2 L301.843813,22.2 L297.243813,22.2 C296.843813,22.2 296.743813,22.3 296.643813,22.7 C296.443813,23.7 296.343813,24.7 296.143813,25.7 L296.643813,25.7 L305.643813,25.7 C305.943813,25.7 306.143813,25.6 306.143813,25.3 C307.043813,20.5 307.943813,15.7 308.743813,10.9 C308.843813,10.5 308.943813,10.4 309.343813,10.4 L314.843813,10.4 L315.443813,10.4 C314.543813,15.3 313.643813,20.1 312.743813,25 L315.043813,25 L316.843813,25 C317.143813,25 317.343813,24.9 317.343813,24.6 C318.143813,20 319.043813,15.5 319.843813,10.9 C319.843813,10.7 319.943813,10.5 320.243813,10.5 L326.243813,10.5 L326.543813,10.5 C325.643813,15.3 324.743813,20.1 323.843813,25 L324.243813,25 L328.043813,25 C328.343813,25 328.443813,24.9 328.543813,24.6 C329.343813,20.1 330.143813,15.6 331.043813,11.1 C331.243813,10.3 331.043813,10.4 331.843813,10.4 L343.243813,10.4 L343.743813,10.4 C343.443813,11.9 343.243813,13.4 342.943813,14.9 L342.343813,14.9 L337.143813,14.9 C336.843813,14.9 336.743813,15 336.643813,15.3 C336.443813,16.3 336.243813,17.3 336.043813,18.4 L342.043813,18.4 C341.843813,19.7 341.543813,21 341.343813,22.3 L340.843813,22.3 L335.743813,22.3 C335.643813,22.3 335.343813,22.4 335.343813,22.5 C335.143813,23.5 334.943813,24.6 334.743813,25.7 L335.243813,25.7 L344.143813,25.7 C344.543813,25.7 344.643813,25.6 344.743813,25.2 C345.643813,20.4 346.443813,15.6 347.343813,10.8 C347.343813,10.6 347.443813,10.5 347.443813,10.2 L347.943813,10.2 L355.443813,10.2 C357.143813,10.2 358.943813,10.4 360.543813,11.1 C362.543813,12 363.743813,13.5 363.743813,15.7 C363.843813,18.1 363.043813,20.1 360.843813,21.3 C360.243813,21.6 359.443813,21.8 358.743813,22 C358.643813,22 358.543813,22.1 358.343813,22.1 C359.343813,24.7 360.343813,27.3 361.343813,30 L360.943813,30 L355.243813,30 C354.943813,30 354.743813,29.9 354.643813,29.6 C353.843813,26.8 352.943813,23.9 352.143813,21.1 C352.143813,20.9 352.043813,20.8 351.943813,20.6 C351.843813,21.4 351.643813,22.1 351.543813,22.9 C351.143813,25.2 350.743813,27.5 350.243813,29.7 C350.243813,29.8 350.043813,29.9 349.843813,30 L349.543813,30 L289.543813,30 L288.843813,30 C289.743813,24.9 290.743813,19.8 291.643813,14.6 L288.043813,14.6 C287.943813,15.4 287.743813,16.2 287.543813,17 C286.743813,21.2 286.043813,25.4 285.243813,29.5 C285.143813,29.9 285.043813,29.9 284.643813,29.9 L262.243813,29.9 C261.943813,29.9 261.743813,29.8 261.643813,29.5 C260.343813,25.7 259.043813,21.8 257.643813,18 C257.643813,17.9 257.543813,17.8 257.443813,17.5 C257.243813,18.6 257.043813,19.6 256.943813,20.5 C256.443813,23.5 255.843813,26.5 255.343813,29.5 C255.343813,29.6 255.143813,29.8 255.043813,29.8 L248.943813,29.8 C248.843813,30.3 248.743813,30.3 248.743813,30.2 Z M276.343813,22.3 L275.843813,22.3 L271.343813,22.3 C270.143813,22.3 270.143813,22.3 269.943813,23.4 C269.843813,24.2 269.643813,24.9 269.543813,25.7 L279.443813,25.7 C280.143813,22.1 280.743813,18.5 281.443813,14.9 L271.543813,14.9 C271.343813,16 271.143813,17.1 270.943813,18.3 L277.143813,18.3 C276.843813,19.7 276.543813,20.9 276.343813,22.3 Z M351.943813,19.7 C353.043813,19.7 354.143813,19.8 355.243813,19.5 C355.543813,19.4 355.943813,19.2 356.143813,19 C357.043813,18.4 357.243813,17.4 357.143813,16.4 C357.043813,15.5 356.443813,14.8 355.543813,14.6 C354.743813,14.4 353.843813,14.4 352.943813,14.3 C352.643813,16.2 352.343813,17.9 351.943813,19.7 Z" id="Shape" fill="#8DC042"></path>
        </g>
    </g>
</svg>