<?xml version="1.0" encoding="UTF-8" standalone="no"?>
<svg width="14px" height="19px" viewBox="0 0 14 19" version="1.1" xmlns="http://www.w3.org/2000/svg" xmlns:xlink="http://www.w3.org/1999/xlink">
    <g id="Page-1" stroke="none" stroke-width="1" fill="none" fill-rule="evenodd">
        <g id="About-web" transform="translate(-474.000000, -1009.000000)" fill-rule="nonzero" fill="#4C9DF4">
            <g id="trusted" transform="translate(184.000000, 1004.000000)">
                <g id="text">
                    <g id="2" transform="translate(289.000000, 3.000000)">
                        <g id="cert" transform="translate(1.000000, 2.000000)">
                            <path d="M11.2352941,17 C11.6756084,17 12,16.7351719 12,16.559322 L12,2.44067797 C12,2.23601458 11.7109026,2 11.2352941,2 L2.76470588,2 C2.28909744,2 2,2.23601458 2,2.44067797 L2,16.559322 C2,16.7639854 2.28909744,17 2.76470588,17 L11.2352941,17 Z M11.2352941,19 L2.76470588,19 C1.26384373,19 0,17.968218 0,16.559322 L0,2.44067797 C0,1.03178203 1.26384373,0 2.76470588,0 L11.2352941,0 C12.7361563,0 14,1.03178203 14,2.44067797 L14,16.559322 C14,17.9394044 12.7008621,19 11.2352941,19 Z" id="Shape"></path>
                            <path d="M4.20338983,5.41525424 L10.2033898,5.41525424 C10.4795322,5.41525424 10.7033898,5.19139661 10.7033898,4.91525424 C10.7033898,4.63911186 10.4795322,4.41525424 10.2033898,4.41525424 L4.20338983,4.41525424 C3.92724746,4.41525424 3.70338983,4.63911186 3.70338983,4.91525424 C3.70338983,5.19139661 3.92724746,5.41525424 4.20338983,5.41525424 Z" id="Shape"></path>
                            <path d="M4.20338983,8.5 L10.2033898,8.5 C10.4795322,8.5 10.7033898,8.27614237 10.7033898,8 C10.7033898,7.72385763 10.4795322,7.5 10.2033898,7.5 L4.20338983,7.5 C3.92724746,7.5 3.70338983,7.72385763 3.70338983,8 C3.70338983,8.27614237 3.92724746,8.5 4.20338983,8.5 Z" id="Shape"></path>
                            <path d="M4.20338983,11.5 L10.2033898,11.5 C10.4795322,11.5 10.7033898,11.2761424 10.7033898,11 C10.7033898,10.7238576 10.4795322,10.5 10.2033898,10.5 L4.20338983,10.5 C3.92724746,10.5 3.70338983,10.7238576 3.70338983,11 C3.70338983,11.2761424 3.92724746,11.5 4.20338983,11.5 Z" id="Shape"></path>
                            <path d="M4.20338983,14.5 L10.2033898,14.5 C10.4795322,14.5 10.7033898,14.2761424 10.7033898,14 C10.7033898,13.7238576 10.4795322,13.5 10.2033898,13.5 L4.20338983,13.5 C3.92724746,13.5 3.70338983,13.7238576 3.70338983,14 C3.70338983,14.2761424 3.92724746,14.5 4.20338983,14.5 Z" id="Shape"></path>
                        </g>
                    </g>
                </g>
            </g>
        </g>
    </g>
</svg>