<?xml version="1.0" encoding="UTF-8"?>
<svg width="93px" height="60px" viewBox="0 0 93 60" version="1.1" xmlns="http://www.w3.org/2000/svg"
     xmlns:xlink="http://www.w3.org/1999/xlink">
    <g fill="#FFF">
        <path d="M0.121,28.862 C0.374,13.725 14.29,0.469 29.427,0.974 C36.68,0.637 43.498,3.793 49.053,8.226 C46.682,10.92 44.227,13.515 41.604,15.942 C34.926,11.327 25.429,10.008 18.751,15.339 C9.198,21.946 8.763,37.546 17.952,44.658 C26.888,52.767 43.778,48.741 46.247,36.325 C40.65,36.241 35.038,36.325 29.441,36.143 C29.427,32.804 29.413,29.465 29.427,26.127 C38.784,26.099 48.141,26.084 57.512,26.155 C58.073,34.011 57.035,42.372 52.209,48.867 C44.9,59.15 30.227,62.152 18.779,57.747 C7.29,53.37 -0.847,41.235 0.121,28.862"></path>
    </g>
</svg>